<svg width="818" height="632" viewBox="0 0 818 632" fill="none" xmlns="http://www.w3.org/2000/svg">
<g clip-path="url(#clip0_174_876)">
<path d="M29.7681 348.499C35.2939 335.322 44.9196 324.459 57.3972 317.336C71.3009 309.144 90.1957 302.733 106.238 306.117C107.13 306.295 108.199 306.473 109.09 306.829C112.477 301.843 111.586 291.87 112.299 286.884C113.725 274.953 116.755 263.378 125.668 254.652C135.65 244.68 149.197 242.008 162.744 240.228C176.292 238.447 189.839 237.557 203.386 240.584C210.159 242.008 216.398 244.68 221.924 248.241C222.637 245.926 223.35 243.611 224.063 241.296C228.163 225.981 224.42 210.132 221.746 194.818C218.894 178.613 217.29 163.12 220.498 146.915C221.924 139.613 224.42 133.737 227.806 128.394C227.806 125.011 229.054 121.627 231.55 118.778C240.997 107.915 255.614 102.217 269.874 103.285C277.004 103.82 283.778 105.6 290.373 108.628C293.938 110.409 297.147 112.545 300.177 115.217C300.533 115.573 300.89 115.751 301.246 116.107C307.842 113.97 316.576 113.614 322.637 113.436C331.371 113.08 340.284 114.148 348.84 115.573C365.417 118.422 381.46 125.011 396.433 132.846C425.31 148.161 452.761 169.531 464.169 201.229C471.834 222.42 472.547 246.104 470.23 269.254C483.242 258.392 498.037 250.022 511.941 239.872C530.657 226.159 542.6 204.078 563.99 193.927C610.336 171.668 663.99 203.187 683.063 247.707C702.492 237.378 724.239 233.461 747.234 237.735C772.724 242.365 797.501 260.172 808.909 283.679C822.813 312.527 817.465 345.828 815.504 376.636C813.544 409.046 811.405 441.278 809.444 473.688C808.374 491.318 807.305 508.948 806.057 526.578C805.522 536.016 804.809 545.454 804.275 554.892C803.74 564.865 803.918 575.371 800.709 584.987C794.827 602.261 766.307 605.644 762.207 584.987C758.464 566.289 762.207 545.632 763.455 526.756C764.524 509.126 765.594 491.496 766.842 473.867C769.159 437.36 771.476 400.854 773.615 364.526C774.506 349.034 777.002 332.828 775.041 317.336C773.615 305.048 767.376 294.898 758.107 288.131C736.717 272.46 705.879 276.556 681.993 287.062C677.715 288.843 673.259 289.555 669.159 288.487C661.673 289.733 653.83 286.884 649.373 278.336C640.639 261.953 634.4 245.036 617.466 235.242C603.384 227.05 587.341 226.872 575.042 237.735C567.555 244.323 561.495 252.515 554.365 259.638C546.522 267.474 537.609 274.063 527.983 279.583C511.049 289.733 491.263 296.322 475.755 308.432C475.042 308.966 474.329 309.5 473.616 309.856C472.369 313.24 470.586 316.445 467.912 320.007C464.882 324.103 461.852 328.376 459.178 332.65C457.217 335.678 455.613 339.061 453.83 342.089C449.196 353.307 443.314 363.636 435.292 371.649C439.927 373.252 444.561 375.033 449.018 376.636C464.347 382.156 479.855 388.923 495.72 392.841C501.067 394.087 505.167 394.622 509.089 393.731C510.336 393.553 514.08 389.635 515.149 388.211C523.705 376.636 531.905 364.348 546.7 360.431C577.359 352.417 593.937 379.663 604.275 404.594C606.236 401.21 608.553 396.58 611.584 393.731C616.575 389.101 622.992 385.005 629.944 382.69C635.113 379.129 640.282 375.923 645.808 372.896C657.216 366.841 670.229 360.252 683.419 360.609C710.692 361.677 726.022 389.101 724.596 413.854C722.991 438.251 713.722 462.648 707.305 486.154C704.275 497.195 701.423 508.236 699.106 519.455C696.61 531.564 696.788 544.564 693.402 556.317C688.054 574.303 658.108 576.974 654.186 556.317C650.443 536.194 656.503 513.4 661.316 493.811C665.951 474.757 671.833 455.881 676.824 436.826C678.963 428.813 681.637 420.443 682.172 412.251C682.35 410.471 682.35 408.512 682.172 406.731C682.172 406.553 681.102 403.169 681.815 404.95C680.924 402.635 681.28 403.169 680.033 402.457C680.033 402.457 679.854 402.457 679.854 402.279C676.289 402.635 669.872 405.841 664.346 408.156C663.099 410.471 661.138 412.429 658.108 413.854C652.404 416.525 646.699 417.416 640.995 419.553C636.183 421.333 635.826 424.539 632.796 428.635C627.983 434.867 622.279 437.36 616.04 439.497C621.031 463.182 618.001 487.222 592.689 500.044C591.976 500.4 591.263 500.934 590.372 501.469C590.372 503.784 590.372 507.167 590.193 508.592C590.015 518.564 589.837 528.715 589.48 538.687C589.124 559.344 588.589 580.001 588.233 600.658C587.698 628.082 545.096 628.082 545.63 600.658C546.343 567.18 546.343 533.523 547.769 500.044C548.482 483.127 555.791 470.839 570.942 463.182C571.477 462.826 574.151 461.401 575.22 460.867C575.399 460.511 575.755 459.976 575.755 459.798C575.755 459.62 575.755 459.62 575.755 459.442C575.755 458.018 575.755 456.415 575.755 454.99C575.577 452.497 575.399 451.963 574.507 448.579C571.299 435.758 566.308 422.224 560.425 410.471C559.356 408.512 557.93 405.484 556.86 404.238C556.86 404.238 556.504 403.704 555.969 403.169C555.791 403.347 555.791 403.526 555.613 403.526C555.078 404.238 554.543 404.95 554.008 405.662C552.404 407.799 550.978 409.936 549.374 412.073C544.561 418.484 539.748 424.005 532.974 428.456C519.962 437.182 503.919 437.36 489.124 434.689C472.903 431.84 457.217 424.539 441.888 419.018C424.062 412.608 406.237 406.019 388.412 399.608C377.004 395.512 371.121 385.54 373.617 373.43C374.33 369.513 375.221 365.595 375.934 361.499C377.717 352.061 387.521 346.362 396.433 345.828C414.615 344.76 420.141 306.473 422.993 292.405C427.806 268.186 430.836 240.406 423.528 216.543C416.932 194.818 395.542 181.106 376.469 170.599C356.861 159.736 333.51 151.901 310.872 156.531C301.246 158.49 291.443 159.914 282.53 154.75C276.826 151.367 273.439 144.243 269.696 141.394C266.309 138.901 261.318 138.011 256.505 139.079C255.436 142.463 254.901 146.024 254.366 148.517C253.297 154.928 253.831 162.051 254.723 168.462C256.862 185.38 262.387 201.585 264.526 218.502C266.665 236.488 262.566 252.337 257.218 269.076C255.97 272.816 254.723 276.556 254.188 280.473C253.653 284.213 254.366 288.131 253.653 292.048C253.297 294.185 252.762 296.144 251.87 297.925C256.149 326.774 246.523 353.129 240.106 380.91C236.541 396.402 237.076 411.895 237.432 427.744C237.61 436.648 237.967 445.374 236.897 454.278C235.65 465.319 231.55 473.332 224.063 481.524C216.042 490.25 200.89 485.62 197.86 474.579C193.226 457.127 195.186 438.963 194.651 420.977C194.117 403.526 195.008 386.43 198.93 369.513C202.495 353.842 208.733 338.349 210.694 322.144C212.12 311.815 211.229 301.487 208.199 294.007C204.277 284.391 198.751 279.939 187.343 278.158C179.857 277.09 171.835 277.446 164.349 277.802C159.358 277.98 153.832 277.802 149.019 279.583C140.819 282.61 140.285 292.227 137.611 300.062C135.293 306.651 132.62 313.062 128.52 318.226C146.345 334.609 154.188 363.458 151.871 386.252C148.841 416.169 126.559 442.347 131.907 472.976C134.402 487.935 139.75 502.181 142.067 517.14C144.741 533.167 146.702 555.783 133.154 567.892C123.351 576.618 105.169 574.125 102.139 559.7C99.8213 548.481 103.386 536.728 101.426 525.331C99.2865 513.222 95.365 501.469 92.6912 489.359C89.8392 476.538 88.0566 463.36 89.6609 450.182C91.4434 435.402 97.1475 422.046 103.208 408.512C111.408 389.992 118.716 363.102 102.139 346.54C94.8302 339.239 86.0959 344.404 77.3615 346.897C68.8054 349.39 58.8232 350.636 53.4757 358.472C49.7324 363.992 43.1371 366.663 36.72 363.992C31.9072 361.855 27.0943 354.732 29.7681 348.499ZM576.646 458.73C576.825 458.018 576.825 458.196 576.646 458.73V458.73ZM559.356 400.498C560.247 400.32 559.891 400.32 559.356 400.498V400.498ZM555.078 400.854C555.078 400.854 555.256 400.854 555.434 400.854C552.047 396.224 554.721 401.211 555.078 400.854Z" fill="#EAD5B9"/>
<path d="M778.072 557.741C798.571 472.976 792.51 382.156 760.959 300.952C749.729 271.926 734.578 243.255 710.336 223.488C654.364 177.9 568.981 192.681 506.415 156.887C482.173 142.997 462.921 122.34 444.383 101.505C428.34 83.3407 412.476 64.8205 393.938 49.5058C333.154 -0.534235 245.097 -11.397 170.766 14.4244C96.4345 40.2457 36.3634 99.3677 0.712946 169.353" stroke="#5A45B5" stroke-miterlimit="10"/>
<path d="M673.616 572.344C672.724 558.097 698.749 431.484 700.353 417.416C701.958 403.347 701.779 388.211 694.828 375.745C690.015 367.198 682.35 360.609 676.824 352.595C672.011 345.65 668.625 337.637 665.951 329.623C661.851 317.158 659.355 303.98 661.673 290.98C663.99 278.158 671.655 265.693 683.776 260.351C692.332 256.611 704.275 257.679 708.91 265.871C718.179 256.077 736.182 256.611 744.56 267.118C751.334 265.515 758.998 268.186 763.277 273.885C770.585 267.83 783.063 269.967 787.697 278.158C789.658 281.72 790.371 285.994 790.906 289.912C793.758 310.034 796.431 330.335 796.61 350.636C796.788 360.609 796.075 370.937 791.084 379.663C789.48 382.334 787.519 384.827 786.449 387.855C785.558 390.348 785.38 393.197 785.202 395.868C783.776 418.306 785.558 575.193 784.31 597.453C757.394 608.672 699.284 585.343 673.616 572.344Z" fill="#CE956E"/>
<path d="M707.127 328.198C712.475 322.322 716.931 315.733 720.496 308.61C727.091 305.404 733.865 300.24 739.213 295.254C743.312 291.336 747.056 286.706 748.303 281.008C749.551 275.487 747.59 268.898 742.599 266.049C737.252 263.022 730.478 265.159 725.487 268.364C720.318 271.569 715.862 276.021 710.336 278.336C707.484 279.405 704.275 279.939 701.601 281.364C698.215 283.145 695.541 286.35 693.223 289.377C684.846 299.706 676.468 310.034 668.09 320.363" stroke="#302B28" stroke-miterlimit="10" stroke-linecap="round"/>
<path d="M787.519 296.144C787.341 301.843 785.558 307.541 781.815 311.815C778.071 316.089 772.546 318.938 766.842 318.76" stroke="#302B28" stroke-miterlimit="10" stroke-linecap="round"/>
<path d="M763.277 275.665C767.911 285.281 765.416 296.678 762.92 307.007C762.029 310.569 761.138 314.13 760.246 317.692C759.712 319.829 759.177 322.144 757.929 323.924C755.612 327.308 751.334 328.911 747.234 329.267C741.708 329.801 735.826 329.623 731.013 326.774" stroke="#302B28" stroke-miterlimit="10" stroke-linecap="round"/>
<path d="M739.747 298.637C740.282 303.445 739.926 308.432 738.5 313.24C737.965 315.377 737.074 317.336 735.469 318.938C732.083 322.144 725.487 321.788 720.853 321.253" stroke="#302B28" stroke-miterlimit="10" stroke-linecap="round"/>
<path d="M708.197 268.72C707.84 271.748 707.662 274.597 707.305 277.624" stroke="#302B28" stroke-miterlimit="10" stroke-linecap="round"/>
<path d="M678.25 274.597C677.181 279.405 676.111 284.391 676.824 289.377C677.181 292.048 678.25 294.542 679.32 296.857C678.072 299.884 676.646 303.445 675.933 306.651" stroke="#302B28" stroke-miterlimit="10" stroke-linecap="round"/>
<path d="M677.715 297.035C674.329 295.432 671.477 292.939 669.159 290.09C668.803 289.555 668.446 289.021 668.803 288.487" stroke="#302B28" stroke-miterlimit="10" stroke-linecap="round"/>
<path d="M717.287 319.116C725.843 323.568 734.578 328.198 741.53 334.965C748.482 341.732 753.651 350.992 753.473 360.609" stroke="#302B28" stroke-miterlimit="10" stroke-linecap="round"/>
<path d="M746.521 328.911C755.433 330.157 763.633 335.143 768.802 342.445" stroke="#302B28" stroke-miterlimit="10" stroke-linecap="round"/>
<path d="M785.736 387.677C777.358 392.485 766.485 392.663 758.107 388.033" stroke="#302B28" stroke-miterlimit="10" stroke-linecap="round"/>
<path d="M701.423 382.69C706.236 386.252 712.475 387.142 718.357 386.964C724.239 386.786 730.3 385.718 736.182 385.718" stroke="#302B28" stroke-miterlimit="10" stroke-linecap="round"/>
<path d="M702.671 331.048C701.066 335.143 699.106 339.239 696.432 342.801C694.471 345.472 691.976 347.965 688.767 348.321" stroke="#302B28" stroke-miterlimit="10" stroke-linecap="round"/>
<path d="M49.7324 571.453C49.5541 559.166 54.3669 537.618 55.6147 525.331C55.9712 521.77 56.6842 517.674 56.3277 514.112C53.1192 473.866 47.2368 433.621 38.3242 394.265C35.1157 380.019 31.5507 365.417 34.0462 350.992C34.5809 347.431 35.6504 343.869 37.9677 341.02C40.285 338.171 44.2065 336.568 47.5933 337.637C48.3063 337.815 49.1976 338.349 49.9106 338.171C50.9801 337.993 51.6931 337.102 52.2279 336.39C55.4364 332.828 60.6058 331.582 65.0621 333.007C68.4489 325.527 78.7875 322.322 85.9176 326.596C91.4434 320.541 100.534 319.294 108.556 320.541C114.616 321.609 121.033 324.459 123.707 330.157C125.668 334.431 125.133 339.595 124.42 344.404C123.707 348.855 123.172 353.486 122.459 357.937C121.925 361.143 121.568 364.526 122.816 367.554C124.42 371.115 128.163 373.252 130.124 376.814C133.333 382.69 130.124 389.813 126.737 395.512C122.994 401.567 118.894 407.443 114.616 413.142C110.338 418.484 105.704 423.826 103.565 430.415C92.3347 464.072 113.012 500.934 116.22 536.194C116.933 543.139 120.855 560.947 121.212 568.07C114.616 571.631 106.417 570.919 98.93 572.166C89.1261 573.768 78.431 573.768 68.6271 575.193C66.1316 575.549 60.071 573.056 57.3972 572.522C55.2582 571.453 49.9106 574.125 49.7324 571.453Z" fill="#60463C"/>
<path d="M120.498 364.704C118.003 361.677 115.686 358.828 113.19 355.801C111.229 353.485 109.268 350.992 106.595 349.568C102.851 347.609 98.2168 347.965 93.9388 347.965C89.6607 347.965 85.2044 347.609 81.1046 348.321C77.0048 349.034 72.5485 350.992 70.2312 354.554C67.9139 358.116 68.0922 363.636 71.6572 366.307C73.2615 367.554 75.4005 368.088 77.5396 368.444C83.2436 369.513 89.1259 370.403 94.83 371.115C96.0778 378.773 100.534 385.362 104.99 391.772" stroke="#302B28" stroke-miterlimit="10" stroke-linecap="round"/>
<path d="M106.416 330.691C107.13 335.856 107.664 344.76 107.486 350.102" stroke="#302B28" stroke-miterlimit="10" stroke-linecap="round"/>
<path d="M86.4523 327.486C85.2045 334.075 85.0263 341.02 85.561 347.609C85.561 347.253 85.561 346.897 85.561 346.54" stroke="#302B28" stroke-miterlimit="10" stroke-linecap="round"/>
<path d="M65.9534 334.609C65.0621 342.979 66.1316 351.527 68.9835 359.54" stroke="#302B28" stroke-miterlimit="10" stroke-linecap="round"/>
<path d="M49.9105 339.595C49.3758 350.28 50.6236 361.143 53.6538 371.471C54.9016 375.745 56.6841 380.197 60.4274 382.69C64.5272 385.361 70.766 384.471 73.9745 380.731C75.2223 379.307 75.9353 377.704 75.9353 375.745C75.9353 372.54 73.4397 371.115 71.6572 366.129" stroke="#302B28" stroke-miterlimit="10" stroke-linecap="round"/>
<path d="M90.5519 370.759C91.0867 372.896 89.6607 375.033 87.8782 376.101C85.9174 377.17 83.7784 377.17 81.6394 377.348C80.3916 377.348 77.3614 376.992 75.9354 377.17" stroke="#302B28" stroke-miterlimit="10" stroke-linecap="round"/>
<path d="M116.399 333.897C114.616 337.28 112.121 340.13 109.09 342.445C108.734 342.623 107.664 343.869 107.486 343.513" stroke="#302B28" stroke-miterlimit="10" stroke-linecap="round"/>
<path d="M59.5362 381.978C60.9622 384.293 61.3187 388.923 59.1797 390.526C57.0406 392.307 54.0104 392.485 51.3366 392.128C49.3758 391.95 47.5933 391.594 45.989 390.348C44.7412 389.457 44.0282 388.033 43.3152 386.608C38.1459 376.992 34.7591 366.307 33.6896 355.444" stroke="#302B28" stroke-miterlimit="10" stroke-linecap="round"/>
<path d="M94.8301 371.828C77.1832 379.307 64.8838 397.649 64.5273 416.881" stroke="#302B28" stroke-miterlimit="10" stroke-linecap="round"/>
<path d="M618.179 628.795C618.001 616.507 622.814 594.96 624.061 582.672C624.418 579.111 625.131 575.015 624.774 571.453C621.566 531.208 615.684 490.962 606.771 451.607C603.562 437.36 599.997 422.758 602.493 408.334C603.028 404.772 604.097 401.21 606.414 398.361C608.732 395.512 612.653 393.909 616.04 394.978C616.753 395.156 617.644 395.69 618.357 395.512C619.427 395.334 620.14 394.444 620.675 393.731C623.883 390.17 629.053 388.923 633.509 390.348C636.896 382.868 647.234 379.663 654.364 383.937C659.89 377.882 668.981 376.636 677.002 377.882C683.063 378.951 689.48 381.8 692.154 387.498C694.115 391.772 693.58 396.937 692.867 401.745C692.154 406.197 691.619 410.827 690.906 415.279C690.371 418.484 690.015 421.868 691.263 424.895C692.867 428.456 696.61 430.593 698.571 434.155C701.779 440.032 698.571 447.155 695.184 452.853C691.441 458.908 687.341 464.784 683.063 470.483C678.785 475.825 674.15 481.168 672.011 487.757C660.781 521.413 681.459 558.276 684.667 593.535C685.38 600.48 689.302 618.288 689.658 625.411C683.063 628.973 674.863 628.26 667.377 629.507C657.573 631.11 646.878 631.11 637.074 632.534C634.578 632.89 628.518 630.397 625.844 629.863C623.705 628.795 618.357 631.466 618.179 628.795Z" fill="#B5835D"/>
<path d="M688.945 422.046C686.45 419.018 684.133 416.169 681.637 413.142C679.676 410.827 677.715 408.334 675.042 406.909C671.298 404.95 666.664 405.306 662.386 405.306C658.108 405.306 653.651 404.95 649.552 405.662C645.452 406.375 640.995 408.334 638.678 411.895C636.361 415.457 636.539 420.977 640.104 423.648C641.708 424.895 643.848 425.429 645.987 425.785C651.691 426.854 657.573 427.744 663.277 428.456C664.525 436.114 668.981 442.703 673.437 449.114" stroke="#302B28" stroke-width="0.75" stroke-miterlimit="10" stroke-linecap="round"/>
<path d="M674.863 388.211C675.576 393.375 676.111 402.279 675.933 407.621" stroke="#302B28" stroke-width="0.75" stroke-miterlimit="10" stroke-linecap="round"/>
<path d="M654.899 384.827C653.651 391.416 653.473 398.361 654.008 404.95C654.008 404.594 654.008 404.238 654.008 403.882" stroke="#302B28" stroke-width="0.75" stroke-miterlimit="10" stroke-linecap="round"/>
<path d="M634.4 391.95C633.509 400.32 634.578 408.868 637.43 416.881" stroke="#302B28" stroke-width="0.75" stroke-miterlimit="10" stroke-linecap="round"/>
<path d="M618.357 396.937C617.823 407.621 619.07 418.484 622.101 428.813C623.349 433.086 625.131 437.538 628.874 440.032C632.974 442.703 639.213 441.812 642.422 438.073C643.669 436.648 644.382 435.045 644.382 433.086C644.382 429.881 641.887 428.456 640.104 423.47" stroke="#302B28" stroke-width="0.75" stroke-miterlimit="10" stroke-linecap="round"/>
<path d="M658.999 428.1C659.534 430.237 658.108 432.374 656.325 433.443C654.364 434.511 652.225 434.511 650.086 434.689C648.839 434.689 645.808 434.333 644.382 434.511" stroke="#302B28" stroke-width="0.75" stroke-miterlimit="10" stroke-linecap="round"/>
<path d="M684.845 391.238C683.063 394.622 680.567 397.471 677.537 399.786C677.181 399.964 676.111 401.21 675.933 400.854" stroke="#302B28" stroke-width="0.75" stroke-miterlimit="10" stroke-linecap="round"/>
<path d="M627.983 439.319C629.409 441.634 629.765 446.264 627.626 447.867C625.487 449.648 622.457 449.826 619.783 449.47C617.823 449.292 616.04 448.935 614.436 447.689C613.188 446.799 612.475 445.374 611.762 443.949C606.593 434.333 603.206 423.648 602.136 412.786" stroke="#302B28" stroke-width="0.75" stroke-miterlimit="10" stroke-linecap="round"/>
<path d="M663.277 429.169C645.63 436.648 633.331 454.99 632.974 474.223" stroke="#302B28" stroke-width="0.75" stroke-miterlimit="10" stroke-linecap="round"/>
<path d="M127.985 566.823C132.62 539.399 145.097 435.936 146.88 408.156C147.593 396.402 147.949 384.649 145.81 373.252C143.671 361.855 138.68 350.458 130.302 342.445C127.094 339.239 123.35 336.746 119.785 333.897C114.438 329.801 109.09 325.527 105.525 320.007C101.782 314.486 99.8212 307.363 101.782 300.952C102.851 297.035 105.347 293.473 107.308 289.733C109.269 285.994 111.051 282.076 110.338 277.98C109.269 270.501 108.556 262.487 111.051 255.364C113.547 248.241 120.32 241.83 127.807 242.365C132.798 242.721 138.324 245.926 142.423 248.775C143.849 246.282 146.88 245.392 149.554 244.68C153.475 243.789 157.575 243.077 161.318 244.145C165.24 245.214 168.805 248.241 169.518 252.159C171.657 248.954 176.113 247.707 180.035 248.419C183.956 249.132 187.165 251.269 190.373 253.405C194.473 247.173 204.455 247.707 210.159 252.515C215.863 257.323 218.181 264.981 219.785 272.282C224.954 295.61 224.419 320.007 219.963 343.513C216.042 364.348 217.289 385.718 218.537 406.909C220.141 434.333 225.667 547.235 227.271 574.659C223.528 577.508 214.794 580.179 210.159 581.07C197.86 583.919 184.313 584.809 171.657 584.809C159.001 584.809 138.68 573.59 127.985 566.823Z" fill="#D6B094"/>
<path d="M214.437 262.666C213.546 268.186 212.833 273.706 211.942 279.227C211.585 281.186 211.407 283.323 210.694 285.103C209.268 289.021 206.238 292.227 202.495 293.829C198.751 295.432 194.295 295.432 190.373 293.651" stroke="#302B28" stroke-miterlimit="10" stroke-linecap="round"/>
<path d="M190.017 253.584C192.691 258.035 192.691 263.378 191.978 268.364C191.265 273.35 190.017 278.336 190.195 283.501C190.373 288.487 191.799 294.185 188.769 297.925C185.739 301.665 180.213 301.665 175.578 300.774C172.192 300.062 168.448 298.281 167.2 295.076C166.666 293.651 166.666 292.227 166.666 290.624C166.666 287.062 166.666 283.323 166.666 279.761C166.666 270.857 166.844 261.953 169.518 253.405" stroke="#302B28" stroke-miterlimit="10" stroke-linecap="round"/>
<path d="M111.229 278.514C111.942 274.063 113.012 269.432 115.864 266.049C118.359 263.022 122.103 261.419 125.846 259.816C135.115 255.899 144.384 251.803 153.653 247.885C155.079 247.173 156.862 246.638 158.288 247.529C159.179 248.063 159.714 249.31 160.07 250.378C162.031 257.501 160.783 265.515 156.862 271.748C152.94 277.98 146.167 282.61 139.215 284.925C138.502 287.953 137.611 290.98 136.363 293.829C135.65 295.61 134.758 297.391 133.154 298.459C131.015 300.062 128.341 300.062 125.846 300.062" stroke="#302B28" stroke-miterlimit="10" stroke-linecap="round"/>
<path d="M167.022 289.021C165.774 291.158 162.744 294.541 160.249 295.076C157.753 295.61 155.258 295.432 152.94 295.076C150.623 294.72 148.128 294.363 146.167 293.117C144.028 291.87 141.71 286.35 141.532 283.857" stroke="#302B28" stroke-miterlimit="10" stroke-linecap="round"/>
<path d="M142.423 249.132C142.067 250.2 141.532 252.337 141.176 253.227" stroke="#302B28" stroke-miterlimit="10" stroke-linecap="round"/>
<path d="M137.254 289.733C147.236 292.761 157.218 296.678 165.775 302.555C174.331 308.432 181.995 316.267 185.917 326.061" stroke="#302B28" stroke-miterlimit="10" stroke-linecap="round"/>
<path d="M130.302 299.706C129.054 303.802 127.628 308.076 126.381 312.171C125.489 315.021 124.242 318.226 121.39 319.116" stroke="#302B28" stroke-miterlimit="10" stroke-linecap="round"/>
<path d="M220.32 343.869C219.072 344.403 218.181 345.65 217.289 346.54C214.259 349.39 209.803 350.458 205.525 351.17C200.355 352.061 195.186 353.129 190.017 352.773" stroke="#302B28" stroke-miterlimit="10" stroke-linecap="round"/>
<path d="M177.717 341.91C174.33 345.828 169.339 348.499 164.348 349.924C159.357 351.349 154.01 352.061 148.841 352.595" stroke="#302B28" stroke-miterlimit="10" stroke-linecap="round"/>
<path d="M154.188 247.529C154.901 248.419 155.258 249.666 155.614 250.734C156.149 252.871 156.505 255.008 156.684 257.145H156.505C152.227 258.57 149.554 262.309 145.276 263.734C143.493 264.268 141.71 264.802 139.928 264.624C137.967 264.446 136.185 263.378 135.115 261.953C133.867 260.529 133.333 258.57 133.511 256.611" stroke="#302B28" stroke-miterlimit="10" stroke-linecap="round"/>
<path d="M454.543 509.304L471.121 600.658H519.784V493.811L454.543 509.304Z" fill="#915D36"/>
<path d="M467.199 585.878C468.982 574.125 465.06 530.317 464.704 518.386C464.704 517.496 464.704 516.783 464.882 515.893C466.308 512.153 472.012 512.509 475.755 511.263C490.907 506.633 506.058 502.003 521.388 497.373C518.714 478.14 514.436 459.264 508.732 440.744C505.523 430.059 501.245 419.018 492.333 412.251C486.45 407.799 479.142 405.841 471.834 404.06C441.174 396.046 410.515 388.033 380.034 380.019C341.353 369.869 299.999 387.32 260.248 391.416C252.94 392.128 245.275 390.882 239.036 386.786C225.667 389.992 212.12 393.553 198.751 396.759C195.186 397.649 191.443 398.539 188.234 400.32C186.095 401.567 184.134 403.169 181.817 403.704C178.609 404.594 175.044 403.526 171.657 404.416C167.735 405.662 165.418 409.402 162.388 412.251C158.644 415.813 153.475 417.594 149.554 420.977C142.78 426.676 140.106 435.936 137.967 444.484C132.798 464.25 125.668 560.234 120.498 580.179C130.659 595.316 147.415 591.042 164.17 598.165C178.609 604.22 195.899 601.549 211.407 603.864C282.53 614.37 357.039 602.973 428.875 607.247C436.896 607.781 445.096 608.138 452.583 605.288C460.426 602.261 466.13 593.713 467.199 585.878Z" fill="#6059C9"/>
<path d="M427.627 310.925C427.449 311.281 427.449 311.637 427.093 311.815C426.736 312.171 426.201 311.993 425.666 311.993C418.715 310.747 412.298 307.363 406.415 303.267C403.385 301.13 400.533 298.815 398.929 295.432C398.572 294.72 398.216 293.829 398.572 292.939C398.929 291.87 399.998 291.336 401.068 291.158C404.633 290.09 408.554 289.912 412.298 290.268C418.18 290.802 424.597 292.227 429.945 295.076C432.975 296.678 431.727 298.103 430.836 301.13C429.766 304.336 428.697 307.541 427.627 310.925Z" fill="#7A4D2B"/>
<path d="M437.431 295.966C437.253 296.857 437.075 297.569 436.362 298.103C435.47 298.993 433.866 298.637 432.618 298.281C422.458 295.432 412.119 293.829 401.602 293.473C400.176 293.473 398.572 293.295 397.859 292.048C397.324 291.158 397.324 289.911 397.503 288.843C397.681 287.596 397.859 286.528 398.572 285.46C399.285 284.569 400.355 284.035 401.602 283.679C407.663 281.72 414.258 281.898 420.497 283.323C424.775 284.391 429.053 285.994 433.153 287.775C434.223 288.309 437.609 289.199 438.322 290.268C439.036 291.87 437.788 294.72 437.431 295.966Z" fill="white"/>
<path d="M428.34 310.569C427.984 309.856 427.093 309.322 426.38 308.966C419.606 305.404 412.476 302.377 405.167 299.884C404.454 300.24 404.098 301.13 404.276 301.843C404.454 302.555 404.989 303.267 405.524 303.802C410.515 309.144 416.932 312.706 423.706 315.377C425.132 315.911 427.093 316.801 428.162 315.555C428.875 315.021 428.697 311.459 428.34 310.569Z" fill="white"/>
<path d="M278.073 139.97C278.786 140.682 279.856 139.613 280.034 138.723C282.173 131.422 276.647 123.764 270.052 119.669C260.783 113.792 249.018 111.833 238.501 114.682C227.806 117.354 218.537 124.655 213.368 134.449C210.338 140.148 208.733 146.38 207.842 152.613C206.773 160.627 206.773 168.996 209.625 176.654C212.477 184.311 218.181 191.078 226.024 193.749" fill="#302B28"/>
<path d="M236.363 387.32C240.819 395.334 246.879 404.772 248.305 407.265C255.257 419.374 265.418 429.525 277.004 437.36C292.334 447.689 310.516 454.99 328.876 457.661C336.54 458.73 344.383 459.086 352.048 457.839C364.882 455.702 375.399 448.401 383.242 438.073C388.59 430.95 393.225 422.58 395.72 414.032C397.146 409.224 398.037 404.238 398.572 399.252C398.75 398.005 400.176 385.005 399.285 384.827C391.264 382.868 388.055 382.156 380.925 379.485C379.143 371.293 379.856 362.389 383.777 354.91C393.225 357.581 403.385 357.581 412.832 355.088C416.576 354.198 420.675 352.239 421.745 348.677C422.28 347.253 422.101 345.65 421.923 344.047C421.745 338.171 422.458 331.226 423.706 325.349C425.667 325.883 427.984 324.993 429.41 323.39C430.658 321.788 431.192 319.473 431.192 317.336C431.192 316.801 431.014 316.089 430.836 315.555C430.301 314.664 429.232 314.308 428.34 314.13C417.289 310.747 407.307 303.624 400.533 294.185C399.463 292.761 398.394 290.802 399.107 289.199C399.642 287.775 401.424 287.062 402.85 286.528C415.15 282.966 429.232 285.638 440.283 292.048C441.709 291.336 441.888 289.555 442.066 288.131C442.422 284.391 443.67 279.761 443.848 276.021C449.731 277.268 455.969 271.035 454.543 265.159C453.83 262.131 451.691 259.638 450.087 256.967C442.957 245.392 446.879 230.79 445.987 217.256C444.74 195.352 430.479 175.941 413.545 161.873C401.068 151.545 386.095 142.997 369.874 142.997C339.036 142.819 306.416 144.065 284.312 165.435C262.209 186.804 252.049 219.927 258.644 250.022C260.783 260.172 264.705 269.789 269.339 279.227C272.726 285.994 276.291 292.761 278.43 300.062C280.213 306.295 280.926 312.884 280.926 319.473C280.926 333.897 277.717 348.499 270.409 360.965C262.744 373.43 250.266 383.403 236.363 387.32Z" fill="#A56F42"/>
<path d="M276.647 297.213C277.004 297.569 277.36 298.103 277.895 298.459C283.421 294.185 283.243 285.816 281.46 279.049C279.678 272.282 276.826 265.337 278.608 258.57C280.926 249.844 290.195 245.214 298.751 242.543C303.564 241.118 308.555 240.05 313.367 240.584C317.467 241.118 321.567 242.721 325.845 242.721C330.123 242.721 334.758 239.872 334.758 235.776C334.758 233.639 333.688 231.858 332.797 229.899C330.123 224.379 329.054 218.324 328.875 212.269C328.697 206.393 329.232 199.982 332.975 195.53C336.54 191.256 342.423 189.297 347.948 188.941C353.652 188.585 359.178 189.475 364.882 189.832C369.695 190.01 375.043 189.653 378.608 186.448C381.638 183.599 382.708 179.325 384.134 175.229C386.273 169.174 389.659 163.12 395.185 159.736C400.533 156.175 408.376 158.312 413.545 162.229C402.85 149.408 389.838 140.86 375.399 133.915C360.961 126.97 344.918 122.696 329.054 123.586C320.319 124.121 311.763 126.079 303.385 128.573C290.016 132.668 277.004 138.189 265.774 146.558C254.544 154.928 245.453 166.503 241.532 179.859C239.749 185.914 239.036 192.325 238.68 198.557C237.432 217.078 238.858 236.132 244.919 253.762C250.979 271.391 261.853 287.597 277.36 298.103" fill="#302B28"/>
<path d="M342.423 123.052C341.71 121.271 339.392 120.737 337.432 120.381C313.902 117.354 289.66 123.943 269.696 136.942C249.91 149.942 234.402 169.174 224.241 190.544C219.785 199.982 216.22 209.954 215.685 220.461C214.794 235.598 220.141 250.734 229.232 263.022C238.323 275.131 250.266 284.213 263.813 290.98C266.309 257.323 278.074 224.379 297.681 196.777C317.289 169.353 344.562 147.271 375.578 134.093C376.112 133.915 377.004 133.737 377.36 134.271C377.717 134.805 376.291 135.161 376.647 134.627C384.668 134.627 391.799 127.148 391.977 119.134C391.977 111.121 386.451 103.642 379.143 100.436C375.756 98.8335 371.3 98.2992 368.447 100.792C362.209 94.3815 350.979 94.2034 344.562 100.436C337.966 106.135 336.362 116.641 342.423 123.052Z" fill="#6059C9"/>
<path d="M355.435 150.654C351.335 144.065 344.383 139.079 336.897 137.298C331.906 136.052 325.845 136.764 323.35 141.038C321.389 144.422 322.458 148.695 323.706 152.435C320.141 153.682 316.22 152.435 312.476 151.723C308.733 151.01 304.277 151.367 301.959 154.216C299.107 157.955 301.425 163.476 303.742 167.572C300.177 167.216 296.434 167.037 293.582 168.818C288.412 172.202 289.482 180.928 294.295 185.023C298.929 189.119 305.703 190.01 311.942 190.722" fill="#D991C5"/>
<path d="M336.362 111.477C336.719 113.436 338.679 114.682 340.64 115.039C342.601 115.395 344.562 114.682 346.166 113.792C348.305 112.724 350.444 110.052 349.018 108.094C348.662 107.381 347.77 106.669 348.305 105.957C348.84 105.957 349.375 105.957 350.088 105.779C352.048 103.107 350.801 99.0116 348.127 97.0527C345.453 95.0938 341.71 95.0938 338.501 95.9842" fill="#D991C5"/>
<path d="M390.373 106.491C388.59 106.669 386.629 106.313 384.847 106.491C383.064 106.669 381.103 107.915 380.747 109.696C380.034 112.902 385.025 116.107 383.421 118.956C382.529 120.559 380.212 121.271 380.212 122.874C380.212 123.408 380.569 123.943 380.747 124.477C383.956 129.107 390.729 130.888 395.72 128.216" fill="#D991C5"/>
<path d="M268.983 125.367C273.083 125.011 277.182 127.504 278.787 131.244C280.391 134.983 279.321 139.613 276.291 142.463C273.974 144.6 270.587 145.668 269.339 148.517C268.626 149.942 268.626 151.545 268.804 153.147C268.983 156.531 268.983 159.914 269.161 163.298C269.339 167.394 268.983 172.38 265.418 174.517C262.209 176.476 258.109 175.051 254.723 173.626C251.692 177.188 248.305 180.571 244.74 183.777C242.423 185.736 239.215 187.516 236.897 185.914C235.65 185.023 235.115 183.421 234.758 181.996C233.689 177.9 233.154 173.448 233.332 169.174" fill="#D991C5"/>
<path d="M213.546 225.091C215.864 220.995 219.072 217.256 222.994 214.406C224.776 213.16 226.559 211.913 228.698 211.557C230.837 211.201 233.154 211.735 234.58 213.516C236.897 216.365 235.293 221.351 237.789 224.023C240.819 227.228 246.166 224.735 250.266 226.16C253.653 227.406 255.436 231.324 254.723 234.707C254.01 238.091 250.979 240.762 247.592 241.652C246.701 241.83 245.81 242.008 245.097 242.543C243.849 243.433 243.493 245.214 243.671 246.817C243.849 248.954 244.74 250.912 245.275 253.049C245.81 255.186 245.632 257.501 244.206 259.104C242.958 260.529 240.641 260.885 238.858 260.529C236.897 260.172 235.115 259.282 233.332 258.57C226.915 256.077 219.785 255.899 213.368 258.036" fill="#D991C5"/>
<path d="M284.847 220.283C286.63 214.941 284.491 208.352 279.678 205.146C278.252 204.078 276.469 203.365 274.865 203.9C271.835 204.612 271.122 208.53 271.656 211.557C272.191 215.831 273.974 219.749 275.756 223.488C271.835 222.064 267.022 224.735 265.952 228.831C264.883 233.283 267.735 237.556 271.122 240.762C267.022 240.406 263.813 244.145 261.496 247.529C260.783 248.597 260.07 249.666 260.07 250.734C260.07 252.159 261.14 253.584 262.209 254.474C264.883 256.967 268.448 258.392 272.191 258.57" fill="#D991C5"/>
<path d="M242.958 283.857C244.919 279.405 249.197 276.2 254.01 275.487C258.822 274.775 263.813 276.734 267.022 280.295C268.626 282.076 269.696 284.391 269.517 286.884C269.339 289.199 268.092 291.336 266.309 292.761C262.566 296.144 257.218 297.213 252.405 295.966C247.593 294.542 243.671 290.98 241.532 286.35" fill="#D991C5"/>
<path d="M316.576 123.23C315.15 126.97 311.942 129.997 308.376 131.6C307.129 132.134 305.524 132.668 304.098 132.49C302.138 132.312 300.533 131.244 298.929 129.997C296.077 127.682 293.403 124.655 293.047 120.915C292.512 116.641 295.186 112.367 298.929 110.052C308.376 104.176 320.498 112.189 316.576 123.23Z" fill="#D991C5"/>
<path d="M382.351 136.052C364.348 123.586 340.284 124.299 321.389 114.504C318.537 113.08 319.963 108.806 322.993 108.806C334.045 108.806 345.096 112.724 355.435 116.641C366.309 120.737 374.33 127.148 383.777 133.737C385.203 134.805 383.777 137.12 382.351 136.052Z" fill="#C1C1C1"/>
<path d="M284.669 128.573C273.974 142.641 260.427 153.325 252.405 169.531C244.384 185.558 236.541 203.365 234.58 221.351C232.976 237.557 237.076 253.227 248.484 264.981C259.714 276.378 274.509 282.967 287.877 291.336C297.681 297.391 291.443 315.199 279.678 310.747C242.958 296.857 209.268 269.967 210.338 227.406C210.872 206.037 218.894 184.845 229.054 166.147C233.867 157.421 240.106 148.873 247.058 141.928C255.257 133.915 265.418 128.038 273.796 120.381C279.321 115.573 289.482 122.162 284.669 128.573Z" fill="#C1C1C1"/>
<path d="M400.711 223.666C402.672 224.379 404.633 225.269 406.593 225.981C410.337 227.406 414.08 228.831 417.823 230.077C420.497 230.968 422.993 232.036 425.667 232.926C425.31 230.077 422.28 227.584 419.784 225.625C418.358 224.557 416.754 223.488 415.15 222.776C412.832 221.886 410.337 221.351 407.841 221.529C405.346 221.708 402.85 222.42 400.711 223.666Z" fill="white"/>
<path d="M406.593 225.447C406.593 225.625 406.593 225.803 406.593 225.981C410.337 227.406 414.08 228.831 417.823 230.077C418.893 229.009 419.606 227.406 419.784 225.803C418.358 224.735 416.754 223.666 415.15 222.954C412.832 222.064 410.337 221.529 407.841 221.708C406.95 222.776 406.593 224.023 406.593 225.447Z" fill="#302B28"/>
<path d="M426.38 233.995C424.954 228.831 419.606 224.201 414.437 222.598C409.267 220.995 404.989 221.529 399.998 223.666" stroke="#302B28" stroke-width="0.74" stroke-miterlimit="10" stroke-linecap="round"/>
<path d="M426.023 229.543C425.132 224.557 421.745 220.105 417.289 217.968C412.832 215.831 407.128 216.009 402.85 218.324" stroke="#302B28" stroke-width="0.74" stroke-miterlimit="10" stroke-linecap="round"/>
<path d="M390.373 210.132C403.385 204.256 419.963 207.105 430.301 216.899C433.153 217.256 435.47 214.228 436.183 211.557C436.362 210.667 436.54 209.598 436.362 208.53C435.827 206.037 433.153 204.612 430.658 203.722C421.21 200.338 410.337 198.557 401.246 202.653C397.324 204.612 393.403 207.283 390.373 210.132Z" fill="#302B28"/>
<path d="M427.806 265.159C429.232 264.802 430.836 265.159 432.262 265.693C435.827 266.939 439.035 268.898 441.709 271.748C441.353 272.282 441.353 272.816 440.818 272.816C440.283 272.816 439.748 272.46 439.214 272.282C435.114 270.145 431.192 268.008 427.806 265.159Z" fill="#302B28"/>
<path d="M419.071 263.734C408.554 266.939 398.572 273.884 393.938 283.857C390.194 292.048 390.016 301.487 390.729 310.569" stroke="#302B28" stroke-width="0.74" stroke-miterlimit="10" stroke-linecap="round"/>
<path d="M426.736 254.296C425.132 255.364 424.062 256.967 423.706 258.748C423.349 260.529 423.706 262.487 424.775 264.09" stroke="#302B28" stroke-width="0.74" stroke-miterlimit="10" stroke-linecap="round"/>
<path d="M441.709 225.803C441.709 233.105 442.957 240.228 445.631 247.173" stroke="#302B28" stroke-width="0.74" stroke-miterlimit="10" stroke-linecap="round"/>
<path d="M321.389 242.365C316.398 228.118 304.99 219.927 298.216 217.968C294.829 216.899 290.908 216.365 287.521 217.79C284.134 219.214 281.639 222.242 280.391 225.803C279.143 229.187 279.321 233.105 279.856 236.666C281.46 246.817 286.808 255.899 292.869 264.268C297.503 270.857 303.385 277.624 311.229 278.515C313.546 278.871 316.22 278.515 318.18 277.09C320.141 275.843 321.567 273.35 321.211 270.857" fill="#A56F42"/>
<path d="M321.389 242.365C316.398 228.118 304.99 219.927 298.216 217.968C294.829 216.899 290.908 216.365 287.521 217.79C284.134 219.214 281.639 222.242 280.391 225.803C279.143 229.187 279.321 233.105 279.856 236.666C281.46 246.817 286.808 255.899 292.869 264.268C297.503 270.857 303.385 277.624 311.229 278.515C313.546 278.871 316.22 278.515 318.18 277.09C320.141 275.843 321.567 273.35 321.211 270.857" stroke="#302B28" stroke-width="0.74" stroke-miterlimit="10" stroke-linecap="round"/>
<path d="M304.455 230.255C302.138 227.406 299.464 224.913 296.077 223.666C292.69 222.42 288.59 222.954 286.095 225.625C283.956 227.94 283.599 231.502 283.599 234.707C283.599 236.488 283.778 238.447 284.669 240.05" stroke="#302B28" stroke-width="0.74" stroke-miterlimit="10" stroke-linecap="round"/>
<path d="M292.155 246.995C293.047 251.09 297.147 254.118 301.425 254.652C303.742 254.83 306.416 254.652 308.376 256.077C309.446 256.967 310.159 258.214 311.228 258.926C312.476 259.816 314.437 259.638 315.685 258.57C316.933 257.501 317.289 255.72 316.576 254.296C315.863 252.871 314.437 252.159 313.367 250.912C311.228 248.597 310.872 244.68 312.833 242.008" stroke="#302B28" stroke-width="0.74" stroke-miterlimit="10" stroke-linecap="round"/>
<path d="M316.398 228.118C320.319 229.721 323.528 233.283 324.776 237.378C326.023 241.474 325.311 246.104 322.815 249.666C321.924 251.09 320.498 252.515 320.498 254.296C320.498 256.255 322.102 257.857 323.884 258.926C327.271 261.063 331.371 262.131 334.401 264.981C337.253 267.83 338.145 273.35 334.758 275.487C332.441 276.912 329.41 276.021 326.915 277.268C325.132 278.158 323.884 279.939 323.706 281.898C323.528 284.925 326.024 288.131 324.597 290.802C323.528 292.761 321.032 293.295 318.893 293.117" stroke="#302B28" stroke-width="0.74" stroke-miterlimit="10" stroke-linecap="round"/>
<path d="M328.341 194.105C325.489 196.955 326.023 202.297 329.232 204.612C330.302 205.502 331.728 206.037 332.797 206.927C335.471 209.064 335.827 213.338 333.688 216.009C333.154 216.721 332.441 217.256 332.262 217.968C331.906 219.749 333.688 220.995 335.114 221.886C339.927 225.091 342.957 232.214 339.392 236.844C338.145 238.447 336.54 239.515 335.114 240.762C333.688 242.008 332.797 244.323 333.51 246.104C334.223 247.707 336.184 248.419 337.788 249.488C340.64 251.447 342.066 255.186 342.066 258.748C342.066 262.309 340.997 265.693 340.105 269.076" stroke="#302B28" stroke-width="0.74" stroke-miterlimit="10" stroke-linecap="round" stroke-linejoin="round"/>
<path d="M323.884 242.008C319.428 244.145 318.002 250.912 321.211 254.652C323.528 257.323 327.271 258.214 329.588 260.885C331.728 263.378 331.906 267.117 330.301 269.789C327.271 274.953 318.715 275.843 317.111 281.72C316.041 285.994 319.428 289.912 322.458 293.117C322.993 293.651 323.528 294.363 323.706 295.076C324.241 297.213 321.745 298.815 319.606 299.528" stroke="#302B28" stroke-width="0.74" stroke-miterlimit="10" stroke-linecap="round" stroke-linejoin="round"/>
<path d="M306.059 324.281C306.059 324.281 333.867 363.102 380.925 379.663C379.143 371.471 379.856 362.567 383.777 355.088C383.777 355.088 339.571 341.732 306.059 324.281Z" fill="#915D36"/>
<path d="M457.752 287.24L430.836 301.13C430.836 301.13 420.141 315.199 427.806 335.143C435.47 355.088 446.344 357.225 446.344 357.225C446.344 357.225 454.365 361.499 481.816 361.143L457.752 287.24Z" fill="#6059C9"/>
<path d="M532.261 361.321L530.122 354.554L562.743 355.979C562.743 355.979 537.609 293.473 541.887 252.159L457.752 287.24C457.752 287.24 439.035 305.582 446.344 332.294C453.652 359.006 481.816 361.321 481.816 361.321H505.88L511.049 379.129L523.527 380.553L532.261 361.321Z" fill="white"/>
<path d="M566.486 367.198C540.283 372.362 513.723 373.786 487.164 374.855C474.151 375.389 461.317 375.745 448.305 376.101C435.292 376.28 417.11 380.019 407.663 368.978C402.137 362.568 401.781 354.02 407.663 347.787C417.289 337.28 433.688 340.842 446.522 341.02C459.534 341.198 472.369 341.198 485.381 341.198C511.228 341.02 537.074 339.773 562.921 341.554C576.825 342.445 581.816 364.17 566.486 367.198Z" fill="#EFEFEF"/>
<path d="M485.559 394.622C485.559 385.183 486.807 373.964 495.007 369.513C498.75 367.554 503.028 367.376 507.128 367.732C512.832 368.088 519.606 370.403 520.675 375.923C524.597 369.334 528.875 362.211 536.005 359.006C542.778 355.979 550.978 357.047 556.86 361.499C562.743 365.773 566.486 373.074 566.842 380.375C573.616 381.266 579.498 386.252 581.816 392.663C582.529 394.622 582.885 396.937 584.133 398.717C585.202 400.32 586.807 401.389 588.054 402.635C591.798 406.375 592.867 412.429 590.728 417.237C596.432 420.977 598.75 428.813 597.502 435.58C596.432 442.347 592.511 448.401 588.054 453.744C582.172 461.045 575.399 467.634 568.09 473.332C566.664 474.401 565.238 475.469 564.525 477.072C563.99 478.14 563.99 479.387 563.812 480.633C562.564 503.249 564.703 571.631 565.773 594.069L508.732 584.809C511.228 560.412 505.345 495.592 504.276 471.017C504.098 467.277 503.919 463.716 503.028 460.154C501.959 455.88 499.998 452.141 498.215 448.045C495.007 440.21 493.046 431.84 492.689 423.292C492.511 419.731 492.689 415.991 491.085 412.786C489.837 410.114 487.877 407.977 486.629 405.484C485.559 402.279 485.559 398.361 485.559 394.622Z" fill="#A56F42"/>
<path d="M581.816 396.937C569.338 395.868 555.969 395.156 545.63 402.101C541.887 404.594 538.857 407.977 536.005 411.539C532.083 416.169 528.162 420.977 524.775 426.32C522.101 430.415 520.14 436.292 523.527 439.854C525.488 441.812 528.518 442.169 531.014 441.456C533.509 440.744 538.322 439.141 540.461 437.539" stroke="#302B28" stroke-width="0.74" stroke-miterlimit="10" stroke-linecap="round"/>
<path d="M564.347 380.197C556.682 378.951 548.482 377.882 541.174 380.91C537.431 382.512 534.222 385.183 531.37 388.211C525.31 394.444 520.318 401.745 517.11 409.758C516.04 412.429 514.971 415.279 514.793 418.306C514.614 420.443 514.971 422.58 516.219 424.361C517.466 426.141 522.992 427.21 524.953 426.32" stroke="#302B28" stroke-width="0.74" stroke-miterlimit="10" stroke-linecap="round"/>
<path d="M520.675 375.923C518.18 380.91 515.149 390.348 513.01 395.334C512.119 397.471 510.515 399.43 509.445 401.567C507.841 404.95 512.297 409.936 517.11 409.936" stroke="#302B28" stroke-width="0.74" stroke-miterlimit="10" stroke-linecap="round"/>
<path d="M516.575 385.896C511.941 391.238 500.711 394.087 493.937 391.416" stroke="#302B28" stroke-width="0.74" stroke-miterlimit="10" stroke-linecap="round"/>
<path d="M550.621 488.113C545.809 488.469 540.996 488.647 536.539 486.866C530.122 484.195 526.201 477.428 520.497 473.332C516.753 470.661 511.941 469.058 509.445 465.319" stroke="#302B28" stroke-width="0.74" stroke-miterlimit="10" stroke-linecap="round"/>
<path d="M575.933 444.484C575.933 444.484 584.668 459.62 587.876 467.634C590.906 475.469 574.507 487.4 566.129 483.839C557.752 480.277 544.026 448.401 544.026 448.401L575.933 444.484Z" fill="white"/>
<path d="M591.441 418.306C572.725 416.881 553.652 424.183 540.639 437.36C539.213 438.785 537.787 440.388 537.252 442.347C536.718 444.305 537.074 446.62 538.678 447.867C540.105 448.936 542.065 448.757 543.848 448.579C556.682 446.977 569.516 445.552 582.35 443.949" stroke="#302B28" stroke-width="0.74" stroke-miterlimit="10" stroke-linecap="round"/>
<path d="M606.058 353.486C562.545 353.486 527.27 325.899 527.27 291.87C527.27 257.841 562.545 230.255 606.058 230.255C649.571 230.255 684.845 257.841 684.845 291.87C684.845 325.899 649.571 353.486 606.058 353.486Z" fill="white"/>
<path d="M646.343 232.214C629.944 222.064 610.158 228.475 597.502 241.118C583.776 254.652 578.429 274.775 580.924 293.651C583.598 314.308 599.997 335.856 617.466 346.54C626.379 352.061 636.004 355.444 645.986 358.472C658.464 362.033 672.189 363.102 683.241 370.047C695.897 377.882 695.719 401.923 678.785 404.594C662.207 407.265 645.095 402.457 629.231 397.471C614.079 392.663 599.463 386.252 586.807 376.636C558.821 355.444 538.144 321.253 537.965 285.816C537.787 254.83 551.156 220.461 578.25 203.544C604.454 187.16 639.748 190.01 662.029 211.379C673.081 221.708 659.177 240.05 646.343 232.214Z" fill="#EFEFEF"/>
<path d="M541.887 270.679H602.315C609.979 270.679 617.288 274.419 621.388 281.008C623.17 283.857 624.418 287.597 624.418 291.87C624.418 307.363 614.97 314.308 611.049 316.267C603.028 320.363 556.86 339.061 556.86 339.061C556.86 339.061 535.826 316.445 541.887 270.679Z" fill="#E2E2E2"/>
<path d="M598.036 292.939C598.036 300.952 602.849 307.363 608.732 307.363C614.614 307.363 619.427 300.952 619.427 292.939C619.427 284.925 614.614 278.514 608.732 278.514C602.849 278.514 598.036 284.925 598.036 292.939Z" fill="#6059C9"/>
<path d="M593.402 204.79C631.013 199.27 667.198 233.817 674.329 282.076C681.28 330.157 656.503 373.608 618.892 379.129C581.281 384.649 545.096 350.102 537.966 301.843C531.014 253.762 555.791 210.311 593.402 204.79ZM545.096 300.774C551.334 343.869 583.776 374.677 617.466 369.869C651.156 365.061 673.437 326.061 667.02 283.145C660.781 240.05 628.339 209.242 594.65 214.05C561.138 218.858 538.857 257.679 545.096 300.774Z" fill="#6059C9"/>
<path d="M528.162 422.224C530.479 422.58 532.44 423.826 534.044 425.607C535.648 427.388 536.718 429.347 537.787 431.484C536.005 433.977 533.866 436.292 531.548 438.251C530.479 438.963 529.409 439.854 528.34 440.21C527.092 440.566 525.666 440.566 524.597 439.854" stroke="#302B28" stroke-width="0.74" stroke-miterlimit="10" stroke-linecap="round"/>
<path d="M517.823 408.334C522.279 409.758 525.844 413.32 527.27 417.772C525.488 420.265 523.527 422.402 521.388 424.717C520.675 425.429 519.962 426.141 519.071 426.32" stroke="#302B28" stroke-width="0.74" stroke-miterlimit="10" stroke-linecap="round"/>
<path d="M514.436 392.485C516.219 393.375 518.001 394.622 519.249 396.224C519.962 397.115 520.497 398.183 519.962 399.252C518.179 402.101 516.219 404.95 514.258 407.621C514.08 407.978 513.723 408.334 513.188 408.334" stroke="#302B28" stroke-width="0.74" stroke-miterlimit="10" stroke-linecap="round"/>
<path d="M545.63 433.977C548.126 435.758 549.908 438.785 550.265 441.812C547.056 445.018 542.956 446.799 538.5 447.155" stroke="#302B28" stroke-width="0.74" stroke-miterlimit="10" stroke-linecap="round"/>
<path d="M516.753 370.225C515.506 371.471 514.614 373.074 514.258 374.855C513.723 376.636 513.723 378.416 513.545 380.197C510.693 380.375 507.484 380.197 504.632 379.485C503.206 379.129 501.78 378.595 500.532 377.704C498.928 376.458 498.215 374.321 498.393 372.362C498.572 370.403 499.819 368.444 501.78 367.554" stroke="#302B28" stroke-width="0.74" stroke-miterlimit="10" stroke-linecap="round"/>
<path d="M206.594 519.811C202.138 551.509 199.643 583.385 198.751 615.439" stroke="#302B28" stroke-width="0.74" stroke-miterlimit="10" stroke-linecap="round"/>
<path d="M464.882 515.181C467.021 548.481 469.16 582.672 459.891 614.548" stroke="#302B28" stroke-width="0.74" stroke-miterlimit="10" stroke-linecap="round"/>
<path d="M399.285 415.279C391.442 438.785 371.3 457.839 347.414 464.072C323.528 470.483 296.434 463.894 278.074 447.333" stroke="#302B28" stroke-width="0.74" stroke-miterlimit="10" stroke-linecap="round"/>
<path d="M290.908 464.428C310.516 477.428 334.936 483.127 358.465 480.099C362.565 479.565 367.022 478.497 369.517 475.291" stroke="#302B28" stroke-width="0.74" stroke-miterlimit="10" stroke-linecap="round"/>
</g>
<defs>
<clipPath id="clip0_174_876">
<rect width="818" height="632" fill="white" transform="matrix(-1 0 0 1 818 0)"/>
</clipPath>
</defs>
</svg>
