<svg width="557" height="564" viewBox="0 0 557 564" fill="none" xmlns="http://www.w3.org/2000/svg">
<g clip-path="url(#clip0_205_2171)">
<g opacity="0.5">
<g opacity="0.5">
<path opacity="0.5" d="M264.304 253.968C243.31 253.968 223.528 245.767 208.59 230.978C193.787 216.189 185.578 196.425 185.578 175.317C185.578 154.344 193.787 134.58 208.59 119.657C223.393 104.868 243.176 96.6665 264.304 96.6665C285.297 96.6665 305.079 104.868 320.017 119.657C334.82 134.446 343.029 154.209 343.029 175.317C343.029 196.291 334.82 216.054 320.017 230.978C305.214 245.767 285.432 253.968 264.304 253.968ZM264.304 98.6832C221.913 98.6832 187.597 133.101 187.597 175.317C187.597 217.668 222.048 251.951 264.304 251.951C306.694 251.951 341.011 217.533 341.011 175.317C341.145 133.101 306.694 98.6832 264.304 98.6832Z" fill="#C1A084"/>
</g>
</g>
<g opacity="0.5">
<g opacity="0.5">
<path opacity="0.5" d="M522.28 238.372C516.493 238.372 511.783 233.667 511.783 227.886C511.783 222.104 516.493 217.399 522.28 217.399C528.067 217.399 532.777 222.104 532.777 227.886C532.642 233.667 527.932 238.372 522.28 238.372ZM522.28 219.55C517.57 219.55 513.802 223.314 513.802 228.02C513.802 232.726 517.57 236.49 522.28 236.49C526.99 236.49 530.758 232.726 530.758 228.02C530.758 223.314 526.855 219.55 522.28 219.55Z" fill="#C1A084"/>
</g>
</g>
<g opacity="0.5">
<g opacity="0.5">
<path opacity="0.5" d="M147.762 137.269C141.976 137.269 137.266 132.563 137.266 126.782C137.266 121.001 141.976 116.296 147.762 116.296C153.549 116.296 158.259 121.001 158.259 126.782C158.125 132.698 153.549 137.269 147.762 137.269ZM147.762 118.447C143.052 118.447 139.284 122.211 139.284 126.917C139.284 131.622 143.052 135.387 147.762 135.387C152.472 135.387 156.24 131.622 156.24 126.917C156.24 122.211 152.472 118.447 147.762 118.447Z" fill="#C1A084"/>
</g>
</g>
<g opacity="0.5">
<g opacity="0.5">
<g opacity="0.5">
<g opacity="0.5">
<g opacity="0.5">
<path opacity="0.5" d="M87.6076 149.235H58.8088C58.136 149.235 57.5977 148.697 57.5977 148.025V136.328C57.5977 135.656 58.136 135.118 58.8088 135.118H87.473C88.1459 135.118 88.6842 135.656 88.6842 136.328V148.025C88.6842 148.832 88.1459 149.235 87.6076 149.235Z" fill="#D8BA9A"/>
</g>
</g>
</g>
</g>
<g opacity="0.5">
<g opacity="0.5">
<g opacity="0.5">
<g opacity="0.5">
<path opacity="0.5" d="M120.713 149.235H92.0491C91.3762 149.235 90.8379 148.697 90.8379 148.025V136.328C90.8379 135.656 91.3762 135.118 92.0491 135.118H120.713C121.386 135.118 121.924 135.656 121.924 136.328V148.025C121.924 148.832 121.386 149.235 120.713 149.235Z" fill="#D8BA9A"/>
</g>
</g>
</g>
</g>
<g opacity="0.5">
<g opacity="0.5">
<g opacity="0.5">
<g opacity="0.5">
<path opacity="0.5" d="M104.026 164.831H75.2268C74.5539 164.831 74.0156 164.293 74.0156 163.621V151.924C74.0156 151.252 74.5539 150.714 75.2268 150.714H103.891C104.564 150.714 105.102 151.252 105.102 151.924V163.621C105.102 164.293 104.698 164.831 104.026 164.831Z" fill="#D8BA9A"/>
</g>
</g>
</g>
</g>
</g>
<g opacity="0.5">
<g opacity="0.5">
<g opacity="0.5">
<g opacity="0.5">
<g opacity="0.5">
<path opacity="0.5" d="M509.496 175.721H480.832C480.159 175.721 479.621 175.183 479.621 174.511V162.814C479.621 162.142 480.159 161.604 480.832 161.604H509.496C510.169 161.604 510.708 162.142 510.708 162.814V174.511C510.573 175.183 510.035 175.721 509.496 175.721Z" fill="#D8BA9A"/>
</g>
</g>
</g>
</g>
<g opacity="0.5">
<g opacity="0.5">
<g opacity="0.5">
<g opacity="0.5">
<path opacity="0.5" d="M542.602 175.721H513.938C513.265 175.721 512.727 175.183 512.727 174.511V162.814C512.727 162.142 513.265 161.604 513.938 161.604H542.602C543.275 161.604 543.813 162.142 543.813 162.814V174.511C543.679 175.183 543.275 175.721 542.602 175.721Z" fill="#D8BA9A"/>
</g>
</g>
</g>
</g>
<g opacity="0.5">
<g opacity="0.5">
<g opacity="0.5">
<g opacity="0.5">
<path opacity="0.5" d="M525.914 191.316H497.25C496.577 191.316 496.039 190.778 496.039 190.106V178.409C496.039 177.737 496.577 177.199 497.25 177.199H525.914C526.587 177.199 527.126 177.737 527.126 178.409V190.106C526.991 190.778 526.453 191.316 525.914 191.316Z" fill="#D8BA9A"/>
</g>
</g>
</g>
</g>
</g>
<path d="M89.6267 99.0865C72.1322 99.0865 58.002 84.8352 58.002 67.4917C58.002 50.0138 72.2668 35.897 89.6267 35.897C106.987 35.897 121.252 50.1482 121.252 67.4917C121.386 84.8352 107.121 99.0865 89.6267 99.0865ZM89.6267 37.107C72.9396 37.107 59.2131 50.686 59.2131 67.4917C59.2131 84.2975 72.805 97.8765 89.6267 97.8765C106.448 97.8765 120.04 84.2975 120.04 67.4917C120.04 50.686 106.448 37.107 89.6267 37.107Z" fill="#D8BA9A"/>
<g opacity="0.3">
<g opacity="0.3">
<g opacity="0.3">
<path opacity="0.3" d="M89.6264 92.4987C103.45 92.4987 114.657 81.3027 114.657 67.4918C114.657 53.6808 103.45 42.4849 89.6264 42.4849C75.8023 42.4849 64.5957 53.6808 64.5957 67.4918C64.5957 81.3027 75.8023 92.4987 89.6264 92.4987Z" fill="#D8BA9A"/>
</g>
</g>
</g>
<path d="M89.6262 48.9382C89.357 48.9382 89.0879 48.6693 89.0879 48.4004V44.9049C89.0879 44.636 89.357 44.3671 89.6262 44.3671C89.8953 44.3671 90.1645 44.636 90.1645 44.9049V48.4004C90.2991 48.6693 90.0299 48.9382 89.6262 48.9382Z" fill="#D8BA9A"/>
<path d="M76.5722 54.3161C76.3031 54.585 75.8994 54.585 75.7648 54.3161L73.3425 51.896C73.0733 51.6271 73.0733 51.2238 73.3425 51.0894C73.6116 50.8205 74.0154 50.8205 74.1499 51.0894L76.5722 53.5094C76.7068 53.6438 76.7068 54.0472 76.5722 54.3161Z" fill="#D8BA9A"/>
<path d="M71.056 67.4917C71.056 67.7606 70.7868 68.0295 70.5177 68.0295H67.0188C66.7496 68.0295 66.4805 67.7606 66.4805 67.4917C66.4805 67.2228 66.7496 66.9539 67.0188 66.9539H70.5177C70.7868 66.8195 71.056 67.0884 71.056 67.4917Z" fill="#D8BA9A"/>
<path d="M76.574 80.533C76.8432 80.8019 76.8432 81.2052 76.574 81.3397L74.0171 83.8941C73.748 84.163 73.3442 84.163 73.2097 83.8941C72.9405 83.6252 72.9405 83.2219 73.2097 83.0874L75.632 80.6674C75.9011 80.2641 76.3049 80.2641 76.574 80.533Z" fill="#D8BA9A"/>
<path d="M89.6262 86.0453C89.8953 86.0453 90.1645 86.3142 90.1645 86.5831V90.0787C90.1645 90.3476 89.8953 90.6164 89.6262 90.6164C89.357 90.6164 89.0879 90.3476 89.0879 90.0787V86.5831C89.0879 86.3142 89.357 86.0453 89.6262 86.0453Z" fill="#D8BA9A"/>
<path d="M102.815 80.533C103.084 80.2641 103.488 80.2641 103.623 80.533L106.045 82.953C106.314 83.2219 106.314 83.6252 106.045 83.7597C105.776 84.0286 105.372 84.0286 105.237 83.7597L102.815 81.3396C102.546 81.2052 102.546 80.8019 102.815 80.533Z" fill="#D8BA9A"/>
<path d="M108.197 67.4918C108.197 67.2229 108.466 66.954 108.736 66.954H112.234C112.504 66.954 112.773 67.2229 112.773 67.4918C112.773 67.7607 112.504 68.0295 112.234 68.0295H108.736C108.466 68.0295 108.197 67.7607 108.197 67.4918Z" fill="#D8BA9A"/>
<path d="M102.815 54.3161C102.546 54.0472 102.546 53.6438 102.815 53.5094L105.237 51.0894C105.507 50.8205 105.91 50.8205 106.045 51.0894C106.314 51.3583 106.314 51.7616 106.045 51.896L103.623 54.3161C103.353 54.585 102.95 54.585 102.815 54.3161Z" fill="#D8BA9A"/>
<path d="M98.6426 76.9029C98.6426 76.9029 98.508 76.9029 98.508 76.7685L89.4916 67.6262C89.357 67.4917 89.357 67.3573 89.4916 67.2228L99.5846 57.1394C99.7191 57.005 99.8537 57.005 99.9883 57.1394C100.123 57.2739 100.123 57.4083 99.9883 57.5427L90.0299 67.4917L98.9117 76.4996C99.0463 76.6341 99.0463 76.7685 98.9117 76.9029C98.7771 76.9029 98.7771 76.9029 98.6426 76.9029Z" fill="#D8BA9A"/>
<g opacity="0.5">
<g opacity="0.5">
<path opacity="0.5" d="M227.699 62.6517H182.482L189.884 16.9402H235.101L227.699 62.6517Z" fill="#D8BA9A"/>
</g>
</g>
<path d="M239.273 16.9402L231.871 62.6517H227.699L235.101 16.9402H239.273Z" fill="#D8BA9A"/>
<path d="M230.121 21.2424L227.026 40.4682L224.065 58.4839H187.461L189.076 48.5349L193.517 21.2424H230.121Z" fill="#FEE8C8"/>
<path d="M208.724 35.3593C208.186 39.1238 204.956 42.216 201.323 42.216C197.689 42.216 195.267 39.1238 195.805 35.3593C196.344 31.5948 199.573 28.5026 203.207 28.5026C206.84 28.5026 209.263 31.5948 208.724 35.3593Z" fill="#D8BA9A"/>
<path d="M236.042 36.3004L244.117 62.6518H239.81L234.293 47.325L236.042 36.3004Z" fill="#D8BA9A"/>
<path d="M332.936 70.9874H169.159L164.584 62.6517H336.838L332.936 70.9874Z" fill="#D8BA9A"/>
<path d="M227.026 40.4681L224.065 58.4839H187.461L189.076 48.5349C191.767 45.5771 196.074 43.0226 201.86 45.9804C212.626 51.3582 214.914 41.4093 223.257 39.7959C225.007 39.527 226.218 39.7959 227.026 40.4681Z" fill="#D8BA9A"/>
<g opacity="0.5">
<g opacity="0.5">
<g opacity="0.5">
<g opacity="0.5">
<path opacity="0.5" d="M311.942 52.2994H315.575V50.2827H261.073C259.324 50.2827 257.843 50.9549 256.632 52.165C255.555 53.2405 254.748 54.8539 254.748 56.6017C254.748 60.0973 257.574 62.9206 261.073 62.9206H315.575V61.1728H311.942V52.2994Z" fill="#D8BA9A"/>
</g>
</g>
</g>
</g>
<path d="M312.346 52.2994V60.904H264.437C262.15 60.904 260.266 59.0217 260.266 56.6017C260.266 55.3917 260.804 54.3161 261.477 53.5094C262.284 52.7028 263.361 52.2994 264.437 52.2994H312.346Z" fill="#FEE8C8"/>
<path d="M312.345 54.4506V55.795H265.782C265.379 55.795 265.109 55.5261 265.109 55.1228C265.109 54.7195 265.379 54.4506 265.782 54.4506H312.345Z" fill="#D8BA9A"/>
<path d="M312.345 57.6772V59.0217H265.782C265.379 59.0217 265.109 58.7528 265.109 58.3495C265.109 57.9461 265.379 57.6772 265.782 57.6772H312.345Z" fill="#D8BA9A"/>
<path d="M303.733 39.7959H307.366V37.6448H252.864C251.115 37.6448 249.634 38.317 248.423 39.527C247.347 40.6026 246.539 42.2159 246.539 43.9637C246.539 47.4593 249.365 50.2827 252.864 50.2827H307.366V48.4004H303.733V39.7959Z" fill="#D8BA9A"/>
<path d="M304.002 39.7959V48.4004H256.094C253.806 48.4004 251.922 46.5182 251.922 44.0982C251.922 42.8882 252.46 41.8126 253.133 41.0059C253.94 40.1992 255.017 39.7959 256.094 39.7959H304.002Z" fill="#FEE8C8"/>
<path d="M304.003 41.947V43.2915H257.44C257.037 43.2915 256.768 43.0226 256.768 42.6192C256.768 42.2159 257.037 41.947 257.44 41.947H304.003Z" fill="#D8BA9A"/>
<path d="M304.003 45.1737V46.5182H257.44C257.037 46.5182 256.768 46.2493 256.768 45.8459C256.768 45.4426 257.037 45.1737 257.44 45.1737H304.003Z" fill="#D8BA9A"/>
<g opacity="0.3">
<path opacity="0.3" d="M373.846 260.153V9.00792C373.846 7.12568 375.461 5.51233 377.345 5.51233H452.168C454.052 5.51233 455.666 7.12568 455.666 9.00792V260.153C455.666 262.035 454.052 263.648 452.168 263.648H377.345C375.326 263.514 373.846 262.035 373.846 260.153Z" fill="#D8BA9A"/>
</g>
<g opacity="0.5">
<path opacity="0.5" d="M459.165 0H370.347C369.27 0 368.328 0.94112 368.328 2.01669V267.144C368.328 268.219 369.27 269.16 370.347 269.16H459.165C460.242 269.16 461.184 268.219 461.184 267.144V2.01669C461.049 0.94112 460.242 0 459.165 0ZM455.532 262.707C455.532 263.245 455.128 263.648 454.59 263.648H374.653C374.115 263.648 373.711 263.245 373.711 262.707V6.31895C373.711 5.78117 374.115 5.37783 374.653 5.37783H454.59C455.128 5.37783 455.532 5.78117 455.532 6.31895V262.707Z" fill="#C1A084"/>
</g>
<g opacity="0.5">
<path opacity="0.5" d="M455.533 180.83H373.039V184.056H455.533V180.83Z" fill="#C1A084"/>
</g>
<g opacity="0.5">
<path opacity="0.5" d="M455.533 74.2141H373.039V77.4408H455.533V74.2141Z" fill="#C1A084"/>
</g>
<path d="M426.732 547.329C426.732 547.329 408.295 522.187 414.889 517.347C421.484 512.507 431.846 542.758 431.846 542.758C431.846 542.758 435.748 529.179 443.015 531.867C451.628 535.094 438.574 547.329 438.574 547.329H426.732Z" fill="#D8BA9A"/>
<path d="M119.501 545.446C119.501 545.446 105.774 524.473 112.368 519.633C118.962 514.793 124.614 541.01 124.614 541.01C124.614 541.01 128.517 527.431 135.784 530.12C144.397 533.346 131.343 545.581 131.343 545.581H119.501V545.446Z" fill="#D8BA9A"/>
<path d="M275.068 563.865C425.794 563.865 547.983 558.93 547.983 552.841C547.983 546.752 425.794 541.816 275.068 541.816C124.341 541.816 2.15234 546.752 2.15234 552.841C2.15234 558.93 124.341 563.865 275.068 563.865Z" fill="#D8BA9A"/>
<g opacity="0.5">
<path opacity="0.5" d="M65.1333 487.097C65.537 483.87 65.2678 478.492 62.1726 474.056C56.7897 466.123 32.8356 439.1 20.9931 434.394C7.53578 429.016 29.4713 486.29 44.4089 494.626C55.9823 500.945 64.1912 494.895 65.1333 487.097Z" fill="#D8BA9A"/>
</g>
<path d="M76.5722 550.69H77.6488C73.0733 525.683 63.7877 501.617 50.1957 480.106C45.8894 473.249 41.0447 466.527 35.7964 460.342C35.3927 459.804 34.5852 460.611 34.9889 461.149C53.2909 483.467 66.4792 509.684 73.6116 537.514C74.8227 541.816 75.7647 546.253 76.5722 550.69Z" fill="#D8BA9A"/>
<g opacity="0.5">
<path opacity="0.5" d="M55.5783 508.743C54.3672 506.323 52.4831 504.441 49.9262 503.499C42.5247 500.542 12.3802 488.845 2.01804 490.593C-9.82443 492.475 30.6822 524.07 44.6779 523.532C55.5783 523.128 59.0772 515.331 55.5783 508.743Z" fill="#D8BA9A"/>
</g>
<path d="M31.0866 508.205C42.7945 513.852 55.3098 517.885 68.0943 519.902C68.7672 520.036 69.0363 518.961 68.3634 518.826C55.579 516.809 43.1982 512.911 31.6249 507.264C30.952 506.995 30.4137 507.936 31.0866 508.205Z" fill="#D8BA9A"/>
<g opacity="0.5">
<path opacity="0.5" d="M491.732 487.097C491.328 483.87 491.597 478.492 494.692 474.056C500.075 466.123 524.029 439.1 535.872 434.394C549.329 429.016 527.394 486.29 512.456 494.626C501.017 500.945 492.808 494.895 491.732 487.097Z" fill="#D8BA9A"/>
</g>
<path d="M480.293 550.69H479.217C483.792 525.683 493.078 501.617 506.67 480.106C510.976 473.249 515.821 466.527 521.069 460.342C521.473 459.804 522.28 460.611 521.877 461.149C503.575 483.467 490.386 509.684 483.254 537.514C482.177 541.816 481.101 546.253 480.293 550.69Z" fill="#D8BA9A"/>
<g opacity="0.5">
<path opacity="0.5" d="M501.287 508.743C502.498 506.323 504.383 504.441 506.939 503.499C514.341 500.542 544.485 488.845 554.848 490.593C566.69 492.475 526.183 524.07 512.188 523.532C501.422 523.128 497.788 515.331 501.287 508.743Z" fill="#D8BA9A"/>
</g>
<path d="M525.915 508.205C514.207 513.852 501.691 517.885 488.907 519.902C488.234 520.036 487.965 518.961 488.638 518.826C501.422 516.809 513.803 512.911 525.376 507.264C526.049 506.995 526.587 507.936 525.915 508.205Z" fill="#D8BA9A"/>
<path d="M368.193 398.766H185.039C176.964 398.766 170.639 391.237 171.85 382.767C174.138 366.096 182.347 343.106 182.347 343.106L276.683 349.021L371.019 343.106C371.019 343.106 379.228 366.096 381.516 382.767C382.593 391.103 376.268 398.766 368.193 398.766Z" fill="#272B34"/>
<path d="M330.512 243.078H212.895V353.458H330.512V243.078Z" fill="#272B34"/>
<path d="M315.574 398.766C315.574 398.766 304.405 411.404 276.683 411.539H276.548C248.96 411.539 237.656 398.766 237.656 398.766H315.574Z" fill="#272B34"/>
<path d="M317.592 529.313V537.918H311.267V534.019C311.267 532.943 310.325 532.002 309.248 532.002H282.333C281.391 532.002 280.718 532.809 280.718 533.615V537.783H273.451V533.75C273.451 532.809 272.644 532.136 271.702 532.136H245.056C243.98 532.136 243.038 533.078 243.038 534.153V538.052H236.713V529.447C236.713 527.565 238.328 525.952 240.212 525.952H273.317V411.673H280.584V525.952H313.958C315.977 525.683 317.592 527.296 317.592 529.313Z" fill="#272B34"/>
<path d="M278.835 473.921H275.202C272.376 473.921 270.223 471.636 270.223 468.947V425.521H283.949V468.947C283.949 471.636 281.661 473.921 278.835 473.921Z" fill="#63636D"/>
<path d="M249.364 543.564C249.364 548.673 245.192 552.976 239.944 552.976C234.83 552.976 230.523 548.808 230.523 543.564C230.523 538.321 234.695 534.153 239.944 534.153C245.192 534.153 249.364 538.321 249.364 543.564Z" fill="#272B34"/>
<path d="M239.943 548.942C236.983 548.942 234.561 546.522 234.561 543.564C234.561 540.607 236.983 538.187 239.943 538.187C242.904 538.187 245.326 540.607 245.326 543.564C245.326 546.522 242.904 548.942 239.943 548.942Z" fill="#63636D"/>
<path d="M286.506 543.564C286.506 548.673 282.335 552.976 277.086 552.976C271.972 552.976 267.666 548.808 267.666 543.564C267.666 538.321 271.838 534.153 277.086 534.153C282.335 534.153 286.506 538.321 286.506 543.564Z" fill="#272B34"/>
<path d="M277.221 548.942C274.26 548.942 271.838 546.522 271.838 543.564C271.838 540.607 274.26 538.187 277.221 538.187C280.181 538.187 282.604 540.607 282.604 543.564C282.604 546.522 280.181 548.942 277.221 548.942Z" fill="#63636D"/>
<path d="M323.918 543.564C323.918 548.673 319.747 552.976 314.498 552.976C309.384 552.976 305.078 548.808 305.078 543.564C305.078 538.321 309.25 534.153 314.498 534.153C319.747 534.153 323.918 538.321 323.918 543.564Z" fill="#272B34"/>
<path d="M314.498 548.942C311.538 548.942 309.115 546.522 309.115 543.564C309.115 540.607 311.538 538.187 314.498 538.187C317.459 538.187 319.881 540.607 319.881 543.564C319.881 546.522 317.459 548.942 314.498 548.942Z" fill="#63636D"/>
<path d="M313.287 399.842H239.54C239.271 399.842 239.137 399.707 239.137 399.438V399.17C239.137 398.901 239.271 398.766 239.54 398.766H313.287C313.556 398.766 313.69 398.901 313.69 399.17V399.438C313.69 399.573 313.556 399.842 313.287 399.842Z" fill="#63636D"/>
<path d="M263.496 123.287C263.496 123.287 243.444 121.539 240.08 136.194C236.716 150.848 253.941 160.932 236.716 169.133C219.49 177.334 212.492 171.418 206.033 187.417C201.054 199.652 211.954 201.534 198.093 210.811C184.232 220.088 199.439 249.935 221.778 244.288C234.024 241.196 234.966 220.894 242.637 231.65C250.307 242.406 266.322 258.943 275.338 247.111C284.355 235.28 285.162 212.29 304.002 220.088C322.843 228.02 330.782 225.734 334.416 219.55C338.049 213.365 329.975 195.619 320.959 190.241C311.942 184.863 302.657 178.544 308.578 168.595C313.422 160.394 309.924 155.688 303.195 149.773C296.466 143.857 302.926 141.706 297.274 130.412C291.756 119.119 273.454 114.548 263.496 123.287Z" fill="#272B34"/>
<path d="M290.276 146.949C290.276 146.949 300.638 146.815 302.387 156.629C304.002 166.309 297.812 172.225 292.429 172.225C292.429 172.225 281.394 158.377 290.276 146.949Z" fill="white"/>
<path d="M241.829 147.353C241.829 147.353 248.289 161.335 234.158 167.654C222.989 172.628 211.819 172.897 209.666 182.712" stroke="#272B34" stroke-width="0.75" stroke-miterlimit="10" stroke-linecap="round" stroke-linejoin="round"/>
<path d="M309.519 163.755C309.519 163.755 305.751 173.57 310.73 178.544C315.709 183.519 328.09 191.316 328.628 201.534" stroke="#272B34" stroke-width="0.75" stroke-miterlimit="10" stroke-linecap="round" stroke-linejoin="round"/>
<path d="M194.055 219.012C194.055 219.012 191.498 232.726 199.437 241.196C207.377 249.666 217.605 245.498 217.605 245.498" stroke="#272B34" stroke-width="0.75" stroke-miterlimit="10" stroke-linecap="round" stroke-linejoin="round"/>
<path d="M239.541 297.26C239.541 297.26 219.221 311.914 225.68 325.762C234.966 345.66 290.006 359.508 308.712 334.636C319.209 320.653 313.153 316.889 313.153 316.889L301.58 300.755L239.541 297.26Z" fill="#1E1759"/>
<path d="M162.834 256.523C162.834 256.523 159.873 255.581 165.256 248.187C170.639 240.792 182.616 229.768 182.616 229.768C182.616 229.768 188.403 249.128 162.834 256.523Z" fill="#272B34"/>
<path d="M184.904 239.045L166.871 212.021L155.971 216.995L171.716 251.279L184.904 239.045Z" fill="#FF8C66"/>
<path d="M155.702 203.416C157.72 203.013 154.49 199.786 152.472 197.904C149.915 195.484 150.453 192.795 155.029 194.678C160.815 197.232 162.43 198.442 165.929 201.938C166.871 202.879 167.544 204.089 168.082 205.433C169.159 208.66 168.89 212.155 167.275 215.113C166.602 216.458 165.66 217.937 164.583 219.55C161.623 223.718 154.087 221.97 149.646 222.239C145.205 222.508 140.629 220.894 137.13 218.34C133.632 215.785 128.787 213.097 130.806 211.618C132.824 210.139 138.745 216.458 139.418 215.382C139.957 214.441 126.23 207.45 126.634 205.568C127.037 203.685 129.594 204.492 129.594 204.492C129.594 204.492 127.441 203.013 128.787 201.534C130.133 200.055 133.901 201.4 133.901 201.4L142.379 204.492C142.379 204.492 137.938 199.652 139.284 197.232C140.629 194.678 147.762 194.14 149.377 194.409C151.126 194.678 151.395 196.156 149.108 197.501C146.82 198.845 144.667 198.845 145.205 200.862C145.743 202.879 148.031 204.492 150.319 204.223C152.337 203.82 155.702 203.416 155.702 203.416Z" fill="#FF8C66"/>
<path d="M129.325 203.954C133.766 205.568 138.207 207.315 142.513 209.198C143.051 209.466 142.513 210.139 141.975 210.004C137.668 208.122 133.362 206.509 128.921 204.895C128.517 204.626 128.786 203.82 129.325 203.954Z" fill="#CC5622"/>
<path d="M140.763 213.231C141.571 209.601 143.32 206.105 145.877 202.879C146.281 202.341 146.953 202.879 146.684 203.282C144.262 206.374 142.647 209.601 141.84 213.231C141.571 213.769 140.629 213.769 140.763 213.231Z" fill="#CC5622"/>
<path d="M147.895 208.257C153.682 207.315 158.796 209.601 160.949 214.307C161.218 214.844 160.276 215.248 160.142 214.71C157.988 210.408 153.413 208.122 148.03 209.063C147.492 209.198 147.357 208.391 147.895 208.257Z" fill="#CC5622"/>
<path d="M162.834 256.523C162.834 256.523 173.196 264.993 184.769 284.218C186.923 287.848 189.345 290.941 191.767 293.764C200.918 303.982 211.415 307.881 219.22 302.234C220.431 301.427 221.508 300.352 222.585 299.007C225.68 295.243 229.179 288.252 232.543 280.454C239.81 263.783 246.404 243.347 246.404 243.347L236.984 221.298L223.392 213.097L222.316 216.189L217.471 232.726L206.705 263.648L182.751 229.902C182.751 230.037 182.751 230.037 182.751 230.171C181.54 235.818 179.252 241.061 175.888 245.632C172.254 250.069 167.948 253.834 162.834 256.523Z" fill="#396C61"/>
<path d="M187.326 238.238C185.98 248.859 180.194 258.405 171.85 264.993C171.446 265.396 171.985 265.934 172.388 265.53C180.866 258.674 186.653 248.994 188.133 238.238C188.268 237.7 187.326 237.7 187.326 238.238Z" fill="#FFFCF7"/>
<path d="M191.768 293.63C200.919 303.847 211.415 307.746 219.221 302.1C214.376 297.663 203.61 289.596 194.055 292.688C193.113 292.957 192.306 293.226 191.768 293.63Z" fill="#FFFCF7"/>
<path d="M207.244 263.11C210.473 269.026 213.03 275.211 214.914 281.664C215.183 282.336 213.972 282.605 213.838 281.933C211.954 275.614 209.397 269.429 206.302 263.648C205.898 263.11 206.84 262.438 207.244 263.11Z" fill="#FFFCF7"/>
<path d="M210.204 269.16C212.088 270.774 213.837 272.656 215.856 274.269C216.394 274.673 215.587 275.479 215.048 275.076C213.164 273.463 211.415 271.58 209.396 269.967C208.858 269.564 209.665 268.757 210.204 269.16Z" fill="#FFFCF7"/>
<path d="M385.958 245.498C385.958 245.498 389.053 244.154 382.459 236.894C375.865 229.633 362.004 219.012 362.004 219.012C362.004 219.012 357.832 240.389 385.958 245.498Z" fill="#272B34"/>
<path d="M357.158 239.851L373.576 208.929L385.822 213.231L372.634 251.414L357.158 239.851Z" fill="#FF8C66"/>
<path d="M385.957 245.498C385.957 245.498 375.729 255.716 365.367 277.362C363.348 281.395 361.195 285.025 358.907 288.252C350.16 300.217 339.394 305.326 330.512 300.083C329.167 299.276 327.821 298.335 326.61 296.991C322.976 293.226 318.401 286.101 314.094 278.168C304.54 261.094 295.389 240.12 295.389 240.12L303.059 215.651L308.711 197.635L312.21 204.358L323.38 225.869L339.933 257.598L362.003 219.147C362.003 219.281 362.003 219.281 362.137 219.415C364.021 225.331 367.116 230.709 371.154 235.146C375.056 239.582 380.17 243.212 385.957 245.498Z" fill="#396C61"/>
<path d="M355.408 231.112C358.368 242.137 367.923 251.01 379.093 253.161C379.631 253.296 379.9 252.489 379.362 252.355C368.327 250.204 359.176 241.734 356.215 230.978C356.081 230.44 355.273 230.575 355.408 231.112Z" fill="#FFFCF7"/>
<path d="M358.907 288.117C350.159 300.083 339.394 305.192 330.512 299.949C335.222 294.705 345.853 285.025 356.484 287.176C357.426 287.445 358.234 287.848 358.907 288.117Z" fill="#FFFCF7"/>
<path d="M339.259 257.195C336.433 263.783 334.28 270.774 333.069 277.899C332.934 278.706 334.146 278.841 334.28 278.168C335.626 271.177 337.644 264.32 340.471 257.867C340.605 256.926 339.529 256.523 339.259 257.195Z" fill="#FFFCF7"/>
<path d="M336.704 264.051C334.82 265.934 333.205 268.085 331.186 269.967C330.648 270.505 331.59 271.312 332.128 270.774C334.012 268.891 335.627 266.74 337.646 264.858C338.184 264.186 337.242 263.379 336.704 264.051Z" fill="#FFFCF7"/>
<path d="M385.419 199.921C383.401 199.518 386.63 196.291 388.649 194.409C391.206 191.989 390.668 189.3 386.092 191.182C380.305 193.736 378.691 194.946 375.192 198.442C374.25 199.383 373.577 200.593 373.039 201.938C371.962 205.164 372.231 208.66 373.846 211.618C374.519 212.962 375.461 214.441 376.537 216.054C379.498 220.222 387.034 218.474 391.475 218.743C395.916 219.012 400.492 217.399 403.99 214.844C407.489 212.29 412.334 209.601 410.315 208.122C408.297 206.643 402.376 212.962 401.703 211.887C401.164 210.945 414.891 203.954 414.487 202.072C414.083 200.19 411.527 200.996 411.527 200.996C411.527 200.996 413.68 199.518 412.334 198.039C410.988 196.56 407.22 197.904 407.22 197.904L398.742 200.996C398.742 200.996 403.183 196.156 401.837 193.736C400.492 191.182 393.359 190.644 391.744 190.913C389.995 191.182 389.726 192.661 392.013 194.005C394.301 195.35 396.454 195.35 395.916 197.366C395.378 199.383 393.09 200.996 390.802 200.728C388.918 200.324 385.419 199.921 385.419 199.921Z" fill="#FF8C66"/>
<path d="M411.796 200.459C407.355 202.072 402.914 203.82 398.608 205.702C398.069 205.971 398.608 206.643 399.146 206.509C403.452 204.627 407.759 203.013 412.2 201.4C412.603 201.131 412.334 200.324 411.796 200.459Z" fill="#CC5622"/>
<path d="M400.356 209.735C399.549 206.105 397.799 202.61 395.242 199.383C394.839 198.845 394.166 199.383 394.435 199.786C396.857 202.879 398.472 206.105 399.28 209.735C399.683 210.273 400.491 210.273 400.356 209.735Z" fill="#CC5622"/>
<path d="M393.225 204.761C387.438 203.82 382.324 206.105 380.171 210.811C379.902 211.349 380.844 211.752 380.979 211.214C383.132 206.912 387.707 204.626 393.09 205.568C393.629 205.702 393.763 204.895 393.225 204.761Z" fill="#CC5622"/>
<path d="M316.382 227.079C316.382 228.827 316.382 230.44 316.248 232.188C315.844 245.767 314.229 259.077 312.749 266.875C311.672 272.387 310.326 280.051 309.384 285.294C308.846 288.521 305.616 306.402 305.616 306.402C296.869 309.494 267.801 315.141 238.33 301.696C238.33 301.696 236.58 272.925 233.62 259.212C232.678 254.506 231.332 250.204 229.851 246.708C226.487 239.179 222.45 229.23 222.046 221.298C221.912 218.071 222.315 215.113 223.527 212.693C224.738 210.408 226.756 208.66 229.851 207.719C241.156 204.223 253.806 198.845 258.65 196.694C259.861 196.156 260.669 195.753 260.669 195.753C260.669 195.753 277.221 193.064 290.275 192.661C296.735 192.392 302.252 192.661 304.809 194.005C309.519 196.56 313.018 203.148 314.767 211.483C315.844 216.189 316.382 221.567 316.382 227.079Z" fill="#396C61"/>
<path d="M246.808 239.717C243.039 250.472 239.271 261.228 235.503 271.984C235.369 272.522 236.176 272.656 236.311 272.253C240.079 261.497 243.847 250.741 247.615 239.986C247.884 239.448 247.077 239.313 246.808 239.717Z" fill="#FFFCF7"/>
<path d="M283.411 305.192C283.277 305.192 283.411 305.192 283.411 305.192C283.007 305.058 282.738 304.789 282.873 304.52C288.929 278.841 282.873 237.7 282.873 237.297C282.873 237.028 283.007 236.759 283.411 236.625C283.68 236.625 283.949 236.759 284.084 237.162C284.084 237.566 290.14 278.841 284.084 304.789C283.949 305.058 283.68 305.192 283.411 305.192Z" fill="#FFFCF7"/>
<path d="M239.81 260.287C242.098 273.194 243.309 286.101 243.309 299.142C243.309 299.814 244.386 299.814 244.386 299.142C244.251 285.966 243.04 272.925 240.752 260.018C240.752 259.346 239.676 259.615 239.81 260.287Z" fill="#FFFCF7"/>
<path d="M238.463 297.797C255.016 303.982 272.914 306.805 290.543 305.192C295.523 304.789 300.502 303.982 305.481 302.906C306.154 302.772 305.885 301.696 305.212 301.831C283.142 306.94 259.995 304.654 238.867 296.722C238.06 296.453 237.791 297.529 238.463 297.797Z" fill="#FFFCF7"/>
<path d="M258.246 197.501C258.246 197.501 267.935 223.852 280.451 225.869C292.966 227.886 285.968 198.308 285.968 198.308C285.968 198.308 261.88 193.064 258.246 197.501Z" fill="#FF8C66"/>
<path d="M317.862 233.398C317.593 232.995 317.459 232.591 317.19 232.188C316.651 232.053 315.978 231.785 315.44 231.65C318.939 237.566 322.707 243.481 322.573 250.473C322.438 257.867 318.401 263.379 313.825 268.892C312.076 271.043 310.326 273.194 309.519 275.883C308.711 278.706 308.711 281.798 308.846 284.756C308.846 285.563 310.057 285.563 310.057 284.756C309.923 281.53 309.923 278.303 310.999 275.211C312.21 271.984 314.902 269.429 317.055 266.741C320.958 261.9 323.649 256.657 323.784 250.473C323.918 244.288 321.092 238.776 317.862 233.398Z" fill="#FFFCF7"/>
<path d="M312.211 219.819C312.615 224.525 313.96 229.23 316.248 233.398C316.652 234.205 317.863 233.532 317.459 232.86C315.172 228.827 313.96 224.256 313.557 219.684C313.557 218.743 312.211 219.012 312.211 219.819Z" fill="#FFFCF7"/>
<path d="M258.111 197.366C258.111 197.366 272.78 209.601 285.968 198.308L284.219 190.106L282.2 181.233L280.854 175.048L261.341 164.831L258.111 197.366Z" fill="#FF8C66"/>
<path d="M265.783 174.914C274.53 190.106 282.605 195.35 285.162 194.812L282.067 180.964L265.783 174.914Z" fill="#272B34"/>
<path d="M259.054 192.526C259.054 192.526 249.634 196.022 245.059 202.206C245.059 202.206 252.46 213.634 250.711 219.012C250.711 219.012 259.727 215.113 264.975 220.357C270.224 225.6 283.412 236.356 283.412 236.356L280.451 224.928C280.451 224.928 264.303 209.87 259.054 192.526Z" fill="#467B6C"/>
<path d="M284.758 192.93C284.758 192.93 292.025 189.165 298.484 192.93C298.484 192.93 297.004 210.811 300.099 216.592L283.412 236.221L280.451 224.793C280.451 224.928 289.064 213.5 284.758 192.93Z" fill="#467B6C"/>
<path d="M258.381 192.661C260.4 197.232 262.956 201.534 265.917 205.568C268.205 208.66 271.031 212.559 275.068 213.231C278.702 213.769 282.066 211.349 283.815 208.257C286.103 204.223 285.565 199.114 285.027 194.678C285.027 194.14 284.084 194.14 284.219 194.678C284.623 198.845 285.296 203.551 283.277 207.45C281.528 210.945 277.49 213.634 273.588 211.887C269.954 210.273 267.263 206.24 265.11 203.013C262.687 199.652 260.669 195.888 259.054 192.123C258.919 191.72 258.246 192.258 258.381 192.661Z" fill="white"/>
<path d="M254.612 160.797C257.035 166.847 259.053 168.729 264.167 174.242C268.743 179.216 276.144 181.233 279.778 181.233C292.966 180.964 298.483 175.048 295.119 157.57C292.966 146.68 295.388 140.227 292.159 136.328C291.889 136.194 291.755 135.925 291.486 135.79C286.506 131.757 280.047 130.009 273.587 130.547C241.963 133.37 251.114 152.193 254.612 160.797Z" fill="#FF8C66"/>
<path d="M271.03 160.797C271.165 161.738 272.779 162.276 274.529 162.142C276.278 161.873 277.759 160.932 277.624 159.991C277.49 159.049 275.875 158.512 274.125 158.646C272.376 158.915 270.895 159.856 271.03 160.797Z" fill="#CC5622"/>
<path d="M289.872 159.453C290.006 160.394 291.621 160.932 293.371 160.797C294.178 160.663 294.986 160.394 295.524 160.125C295.389 159.318 295.255 158.512 295.12 157.705V157.571C294.582 157.436 293.774 157.302 292.967 157.436C291.218 157.571 289.737 158.512 289.872 159.453Z" fill="#CC5622"/>
<path d="M298.214 145.47C299.964 142.513 291.351 121.405 269.146 128.53C269.146 128.665 290.005 148.966 298.214 145.47Z" fill="#272B34"/>
<path d="M280.451 135.925C280.451 135.925 282.739 142.647 271.973 146.008C261.207 149.369 274.261 159.453 264.033 161.738C264.033 161.738 265.11 153.537 258.112 155.016C251.114 156.36 253.94 164.024 250.441 160.394C247.077 156.764 243.443 134.177 258.112 129.471C272.78 124.766 280.451 135.925 280.451 135.925Z" fill="#272B34"/>
<path d="M275.203 155.016C276.683 157.436 280.182 156.898 280.855 154.209C280.99 153.672 280.182 153.403 280.048 153.94C279.509 155.957 276.952 156.36 275.876 154.613C275.607 154.209 274.934 154.613 275.203 155.016Z" fill="#272B34"/>
<path d="M286.103 153.94C287.584 156.36 291.083 155.823 291.755 153.134C291.89 152.596 291.083 152.327 290.948 152.865C290.41 154.882 287.853 155.285 286.776 153.537C286.642 152.999 285.834 153.537 286.103 153.94Z" fill="#272B34"/>
<path d="M287.179 166.713C287.179 168.326 285.833 169.671 284.218 169.671C282.604 169.671 281.258 168.326 281.258 166.713C281.258 165.099 282.604 163.755 284.218 163.755C285.833 163.755 287.179 165.099 287.179 166.713Z" fill="white"/>
<path d="M287.314 172.36C286.102 172.897 284.757 173.166 283.546 172.225C283.007 171.822 283.68 170.881 284.218 171.284C285.026 171.956 285.968 171.553 286.91 171.15C287.583 171.015 287.986 172.091 287.314 172.36Z" fill="#CC5622"/>
<path d="M277.759 148.563C276.414 148.294 274.799 148.697 274.395 150.176C273.991 151.52 271.838 151.252 272.107 149.907C272.78 147.218 275.337 145.739 278.028 146.411C279.374 146.68 279.105 148.966 277.759 148.563Z" fill="#272B34"/>
<path d="M291.486 149.504C290.544 148.563 289.199 147.084 287.718 147.756C286.373 148.294 285.431 146.143 286.776 145.605C289.199 144.664 291.217 146.008 292.832 147.621C293.909 148.831 292.563 150.579 291.486 149.504Z" fill="#272B34"/>
<path d="M285.7 161.469C285.162 161.604 284.623 161.738 283.95 161.873C283.681 161.873 283.412 161.604 283.412 161.335C283.412 161.066 283.681 160.797 283.95 160.797C285.027 160.663 285.834 160.394 286.238 160.125C284.489 158.646 283.681 156.495 283.681 156.36C283.547 156.092 283.681 155.688 283.95 155.688C284.22 155.554 284.623 155.688 284.623 155.957C284.623 155.957 285.565 158.512 287.449 159.587C287.584 159.722 287.718 159.856 287.718 159.991C287.718 160.125 287.718 160.259 287.584 160.394C287.584 160.394 286.911 161.066 285.7 161.469Z" fill="#272B34"/>
<path d="M266.993 164.427C267.128 161.604 266.186 159.318 265.244 157.705C263.763 154.882 260.13 151.52 257.169 152.327C252.728 153.537 252.728 157.57 253.67 161.469C254.612 165.503 257.977 170.343 263.36 168.864C266.051 168.057 266.859 166.444 266.993 164.427Z" fill="#FF8C66"/>
<path d="M261.475 164.427C261.475 162.814 261.475 161.066 260.667 159.453C259.994 158.108 258.11 156.226 256.361 157.033C255.823 157.302 255.284 156.36 255.823 156.092C257.572 155.285 259.321 156.226 260.533 157.57C262.282 159.453 262.551 162.007 262.417 164.427C262.551 165.099 261.475 165.099 261.475 164.427Z" fill="#272B34"/>
<path d="M306.693 321.057C306.693 321.057 358.907 287.983 383.265 287.848C407.623 287.714 431.712 318.233 373.038 345.122C314.229 372.146 269.82 371.743 269.82 371.743L259.727 348.484L306.693 321.057Z" fill="#6059C9"/>
<path d="M261.207 350.904L244.654 359.105C244.654 359.105 229.178 353.996 226.622 360.449C224.603 365.693 197.957 383.977 201.053 390.699C202.129 392.985 209.665 384.649 216.798 383.305C227.294 381.288 237.791 374.969 243.174 373.356C248.557 371.608 271.3 366.365 271.3 366.365C271.3 366.365 271.704 357.491 261.207 350.904Z" fill="#FF8C66"/>
<path d="M386.361 294.84C394.705 298.739 401.03 306.268 403.318 315.275C403.452 315.813 404.26 315.544 404.125 315.007C401.837 305.864 395.378 298.066 386.765 294.167C386.361 293.899 385.823 294.571 386.361 294.84Z" fill="#1E1759"/>
<path d="M348.141 300.755C329.032 312.586 309.788 323.88 290.14 334.635C284.622 337.728 278.97 340.686 273.318 343.778C272.78 344.047 273.318 344.719 273.722 344.45C293.504 333.963 313.017 322.939 332.261 311.376C337.779 308.15 343.162 304.789 348.545 301.427C348.949 301.159 348.545 300.486 348.141 300.755Z" fill="#1E1759"/>
<path d="M267.129 127.724C267.667 127.186 274.261 115.892 264.437 108.901C253.806 101.372 239.407 112.262 240.214 121.001C241.156 129.74 255.286 139.824 267.129 127.724Z" fill="#272B34"/>
<path d="M248.557 321.057C248.557 321.057 196.342 287.983 171.984 287.848C147.627 287.714 123.538 318.233 182.212 345.122C241.021 372.146 277.894 380.347 277.894 380.347C275.875 372.953 281.527 364.214 295.523 353.458L248.557 321.057Z" fill="#6059C9"/>
<path d="M160.814 295.512C153.951 300.217 150.048 308.419 150.721 316.754C150.721 317.292 151.663 317.292 151.529 316.754C150.856 308.822 154.489 300.755 161.084 296.318C161.756 295.915 161.353 295.243 160.814 295.512Z" fill="#1E1759"/>
<path d="M288.93 349.29C278.971 354.937 269.82 366.634 270.628 378.599C270.628 379.137 271.57 379.137 271.435 378.599C270.628 366.903 279.51 355.609 289.334 349.962C289.872 349.828 289.468 349.021 288.93 349.29Z" fill="#1E1759"/>
<path d="M198.362 298.739C211.146 303.713 223.527 309.898 235.235 316.754C241.022 320.115 246.539 323.745 252.191 327.375C257.574 330.737 262.957 334.232 268.205 337.728C274.396 341.896 280.452 346.332 286.238 351.172C286.642 351.576 287.315 350.903 286.777 350.635C276.684 342.299 265.783 335.039 254.748 328.048C243.309 320.788 231.871 313.528 219.759 307.478C212.896 303.982 205.763 300.89 198.631 298.066C198.093 297.663 197.823 298.604 198.362 298.739Z" fill="#1E1759"/>
<path d="M295.522 353.458C295.522 353.458 300.098 354.534 294.177 367.171C288.255 379.809 277.893 380.347 277.893 380.347C273.452 368.247 295.522 353.458 295.522 353.458Z" fill="#272B34"/>
<path d="M288.93 357.626L305.482 365.827C305.482 365.827 320.958 360.718 323.515 367.172C325.534 372.415 352.179 390.565 349.084 397.422C348.007 399.707 340.471 391.372 333.339 390.027C322.842 388.011 312.345 381.692 306.962 380.078C301.58 378.331 278.837 373.087 278.837 373.087C278.837 373.087 278.298 364.348 288.93 357.626Z" fill="#FF8C66"/>
<path d="M212.895 306.805H347.468L348.948 303.444C349.89 301.427 347.468 299.276 344.104 299.276H220.027C217.739 299.276 215.855 300.217 215.182 301.562L212.895 306.805Z" fill="white"/>
<path d="M374.249 218.743L358.1 287.176C357.696 289.058 356.082 290.268 354.198 290.268H254.344C251.787 290.268 249.768 287.848 250.441 285.294L266.59 216.861C266.994 214.979 268.609 213.769 270.493 213.769H370.346C372.903 213.769 374.922 216.189 374.249 218.743Z" fill="white"/>
<path d="M358.906 283.546L258.11 283.008C257.707 283.008 257.438 282.739 257.438 282.336C257.438 281.933 257.707 281.664 258.11 281.664L358.906 282.202C359.31 282.202 359.579 282.471 359.579 282.874C359.579 283.277 359.31 283.546 358.906 283.546Z" fill="#272B34"/>
<path d="M325.802 254.775C325.264 259.077 321.496 262.573 317.189 262.573C312.883 262.573 309.788 259.077 310.192 254.775C310.73 250.473 314.498 246.977 318.804 246.977C323.111 246.977 326.206 250.473 325.802 254.775Z" fill="#272B34"/>
<path d="M274.395 213.769L257.17 290.403H254.344C251.787 290.403 249.768 287.983 250.441 285.428L266.59 216.995C266.994 215.113 268.609 213.903 270.493 213.903H274.395V213.769Z" fill="#272B34"/>
<path d="M303.327 290.403L299.963 306.671H309.921L313.42 290.403H303.327Z" fill="white"/>
<path d="M285.43 303.847L287.448 301.024C288.121 299.949 289.332 299.411 290.678 299.411H318.131C319.611 299.411 320.957 300.217 321.63 301.562L322.976 304.251C323.649 305.461 322.706 306.94 321.361 306.94H287.044C285.43 306.805 284.488 305.057 285.43 303.847Z" fill="white"/>
<path d="M126.499 464.914H62.9803C61.3655 464.914 60.1543 463.704 60.1543 462.09C60.1543 460.477 61.3655 459.267 62.9803 459.267H126.499C128.114 459.267 129.325 460.477 129.325 462.09C129.191 463.569 127.979 464.914 126.499 464.914Z" fill="#272737"/>
<path d="M157.181 554.32C155.835 554.32 154.49 553.513 154.086 552.034L74.822 314.334C74.2837 312.586 75.2257 310.704 76.8406 310.166C78.59 309.629 80.4741 310.57 81.0124 312.183L160.276 550.018C160.814 551.766 159.872 553.648 158.258 554.186C157.854 554.32 157.45 554.32 157.181 554.32Z" fill="#63636D"/>
<path d="M33.2392 554.32C32.8355 554.32 32.5663 554.32 32.1626 554.186C30.4131 553.648 29.4711 551.766 30.144 550.018L109.408 312.183C109.946 310.435 111.83 309.494 113.58 310.166C115.329 310.704 116.271 312.587 115.598 314.334L36.3344 552.034C35.9307 553.513 34.5849 554.32 33.2392 554.32Z" fill="#63636D"/>
<path d="M480.562 464.914H417.043C415.428 464.914 414.217 463.704 414.217 462.09C414.217 460.477 415.428 459.267 417.043 459.267H480.562C482.176 459.267 483.388 460.477 483.388 462.09C483.388 463.569 482.042 464.914 480.562 464.914Z" fill="#272737"/>
<path d="M511.243 554.32C509.898 554.32 508.552 553.513 508.148 552.034L428.884 314.2C428.346 312.452 429.288 310.57 430.903 310.032C432.653 309.494 434.402 310.435 435.075 312.049L514.339 549.883C514.877 551.631 513.935 553.513 512.32 554.051C511.916 554.32 511.647 554.32 511.243 554.32Z" fill="#63636D"/>
<path d="M387.302 554.32C386.898 554.32 386.629 554.32 386.225 554.186C384.476 553.648 383.534 551.766 384.206 550.018L463.47 312.183C464.009 310.435 465.893 309.494 467.642 310.166C469.392 310.704 470.334 312.587 469.661 314.334L390.397 552.169C389.993 553.513 388.647 554.32 387.302 554.32Z" fill="#63636D"/>
<path d="M497.249 306.805V319.309C497.249 319.981 497.114 320.519 496.98 321.191C496.845 321.998 496.441 322.804 496.038 323.611C494.154 326.972 489.982 329.258 485.137 329.258H60.9612C56.1166 329.258 52.0794 326.972 50.0608 323.611C49.6571 322.804 49.3879 322.132 49.1188 321.191C48.9842 320.519 48.8496 319.981 48.8496 319.309V306.805H497.249Z" fill="#272B34"/>
<path d="M497.115 321.191C496.98 321.998 496.576 322.804 496.173 323.611H50.1959C49.7922 322.804 49.5231 322.132 49.2539 321.191H497.115Z" fill="#63636D"/>
<path d="M477.467 279.513H432.25C430.77 279.513 429.559 278.303 429.559 276.824V275.076C429.559 273.597 430.77 272.387 432.25 272.387H477.467C478.947 272.387 480.158 273.597 480.158 275.076V276.824C480.293 278.303 478.947 279.513 477.467 279.513Z" fill="#D03F23"/>
<path d="M482.85 295.781C482.715 297.529 482.177 299.276 480.966 300.755C476.525 306.133 464.951 306.805 458.761 306.94C457.819 306.94 457.012 306.94 456.339 306.94C455.935 306.94 455.531 306.94 455.262 306.94C454.993 306.94 454.858 306.94 454.858 306.94C454.858 306.94 450.283 307.209 444.765 306.671C444.227 306.671 443.689 306.537 443.15 306.537C437.633 305.864 431.712 304.385 428.751 300.89C428.078 300.083 427.54 299.008 427.271 298.066C427.136 297.663 427.002 297.125 427.002 296.722C426.733 294.436 427.271 291.882 428.078 289.596C428.213 289.059 428.482 288.521 428.617 288.117C428.886 287.445 429.289 286.639 429.559 285.966C430.097 284.891 430.635 283.815 431.173 283.009C431.308 282.74 431.443 282.605 431.577 282.471C431.846 282.067 432.115 281.664 432.385 281.261C432.923 280.454 433.327 279.916 433.327 279.916H476.39C476.39 279.916 478.005 281.933 479.485 284.891C479.755 285.294 479.889 285.697 480.158 286.101C480.158 286.101 480.158 286.235 480.293 286.235C480.831 287.311 481.235 288.386 481.773 289.462C481.908 290 482.177 290.537 482.311 290.941C482.715 292.151 482.984 293.495 482.984 294.705C482.85 294.705 482.85 295.243 482.85 295.781Z" fill="#D03F23"/>
<path d="M482.042 290.537C475.179 293.899 466.432 294.705 459.838 294.571C452.167 294.436 445.169 292.016 437.767 290.403C434.672 289.731 431.308 289.193 428.078 289.327C428.213 288.79 428.482 288.252 428.616 287.849C436.691 287.849 445.304 291.344 452.974 292.554C460.645 293.764 468.45 293.226 475.852 291.21C477.736 290.672 479.62 290 481.504 289.059C481.773 289.462 481.908 290 482.042 290.537Z" fill="#FFB6C9"/>
<path d="M462.932 279.513C454.588 287.58 441.4 288.79 431.711 282.067C431.98 281.664 432.249 281.261 432.518 280.857C441.266 286.773 452.839 286.101 460.779 279.513H462.932Z" fill="#FFB6C9"/>
<path d="M482.849 295.781C474.236 297.932 466.027 301.696 458.76 306.805C457.818 306.805 457.011 306.805 456.338 306.805C464.143 300.89 473.16 296.587 482.714 294.302C482.849 294.705 482.849 295.243 482.849 295.781Z" fill="#FFB6C9"/>
<path d="M444.9 306.536C444.362 306.536 443.824 306.402 443.286 306.402C443.286 304.251 442.478 302.234 440.459 300.89C436.826 298.47 431.981 297.663 427.406 297.797C427.271 297.394 427.137 296.856 427.137 296.453C429.29 296.453 431.443 296.587 433.596 296.991C436.961 297.663 441.132 298.739 443.286 301.562C444.497 303.175 445.035 304.789 444.9 306.536Z" fill="#FFB6C9"/>
<path d="M480.158 285.697C479.081 286.101 477.87 286.235 476.524 286.101C472.353 285.832 469.93 282.874 468.988 279.378H470.469C471.545 282.874 474.64 285.428 479.081 284.353C479.216 284.353 479.216 284.353 479.35 284.218C479.62 284.622 479.754 285.025 480.023 285.428C480.158 285.697 480.158 285.697 480.158 285.697Z" fill="#FFB6C9"/>
<path d="M476.389 279.916H433.46C433.191 279.916 433.057 279.782 433.057 279.513C433.057 279.244 433.191 279.109 433.46 279.109H476.389C476.658 279.109 476.793 279.244 476.793 279.513C476.793 279.782 476.524 279.916 476.389 279.916Z" fill="#283618"/>
<path d="M438.035 250.876C438.035 250.876 445.571 248.187 447.59 256.119C449.608 264.052 455.126 262.035 456.203 260.287C458.356 256.791 458.625 244.288 454.991 243.616C450.685 242.809 439.515 247.246 438.035 250.876Z" fill="#396C61"/>
<path d="M454.857 243.616C445.976 243.75 443.688 251.548 442.207 258.405L439.381 253.027L441.4 262.573C441.131 263.648 440.996 264.589 440.727 265.396C438.574 272.118 431.98 274.27 431.98 274.27C431.98 274.27 431.576 271.581 431.172 267.682L434.402 262.573L430.903 264.052C430.5 258.002 430.5 250.741 431.98 246.574C434.806 238.641 442.477 241.061 442.477 241.061L454.857 243.616Z" fill="#467B6C"/>
<path d="M477.061 235.28C477.061 235.28 472.351 233.936 467.507 240.523C462.797 246.977 460.913 247.649 457.817 245.229C454.588 242.809 456.606 228.827 460.105 228.02C464.412 227.079 475.447 231.65 477.061 235.28Z" fill="#396C61"/>
<path d="M491.999 271.58C491.999 271.58 486.212 269.833 482.31 264.32L487.423 252.355L480.426 261.094C480.156 260.421 479.887 259.749 479.618 259.077C476.523 249.397 477.196 228.558 459.701 228.289L477.061 224.256C477.061 224.256 487.962 220.76 491.999 232.188C493.075 235.146 493.479 239.045 493.748 243.347L487.423 237.431C487.423 237.431 491.864 243.75 493.883 246.439C493.883 258.405 491.999 271.58 491.999 271.58Z" fill="#467B6C"/>
<path d="M432.652 216.727C432.652 216.727 440.188 214.038 442.207 221.97C444.226 229.902 454.05 232.995 454.992 229.096C456.068 224.928 453.646 210.139 450.147 209.332C445.841 208.391 434.267 213.097 432.652 216.727Z" fill="#396C61"/>
<path d="M450.417 209.467C436.152 209.736 433.729 223.852 431.576 234.339L424.309 223.852C424.444 224.121 428.212 236.759 429.827 241.734C426.462 250.473 417.715 253.296 417.715 253.296C417.715 253.296 415.293 236.49 416.1 223.583C418.254 221.836 422.022 218.609 422.022 218.609L416.369 219.953C416.639 217.533 417.042 215.517 417.715 213.769C421.752 202.341 432.653 205.837 432.653 205.837L450.417 209.467Z" fill="#467B6C"/>
<path d="M454.318 272.253H456.202C459.163 250.876 457.279 232.591 455.126 221.029C452.703 207.853 449.474 200.19 449.339 199.786C449.07 199.249 448.532 199.114 448.128 199.249C447.59 199.383 447.455 200.055 447.59 200.459C447.59 200.593 450.954 208.257 453.376 221.298C455.395 232.86 457.279 250.876 454.318 272.253Z" fill="#396C61"/>
<path d="M90.7016 277.093C90.2979 277.093 89.7596 277.093 89.3559 277.227C88.1447 277.362 86.9336 277.765 85.857 278.303C82.4926 280.051 80.0703 283.681 80.0703 287.714C80.0703 293.495 84.7804 298.335 90.7016 298.335C90.9708 298.335 91.2399 298.335 91.3745 298.335C91.9128 298.335 92.4511 298.201 92.9894 298.066C97.6994 296.991 101.198 292.823 101.198 287.714C101.198 281.798 96.4883 277.093 90.7016 277.093ZM92.1819 293.764C91.6436 293.899 91.1053 293.899 90.567 293.899C90.4325 293.899 90.2979 293.899 90.1633 293.899C86.9336 293.63 84.3767 290.941 84.3767 287.58C84.3767 285.429 85.4532 283.546 87.0681 282.471C87.8756 281.798 88.9522 281.395 90.0288 281.395C90.2979 281.395 90.4325 281.395 90.7016 281.395C94.2005 281.395 97.0266 284.219 97.0266 287.714C96.892 290.537 94.8734 292.957 92.1819 293.764Z" fill="#D03F23"/>
<path d="M89.2218 277.093L90.0292 281.261C88.9526 281.395 87.876 281.798 87.0686 282.336L85.8574 278.034C86.934 277.631 88.0106 277.227 89.2218 277.093Z" fill="#C74279"/>
<path d="M92.9901 297.932C92.4518 298.066 91.9135 298.066 91.3752 298.201L90.1641 293.899C90.2986 293.899 90.4332 293.899 90.5678 293.899C91.1061 293.899 91.6444 293.764 92.1827 293.764L92.9901 297.932Z" fill="#C74279"/>
<path d="M122.46 268.488L121.787 271.849L121.384 274.135L116.808 301.159L116.404 303.579L115.866 306.805H94.3343L93.796 303.579L93.3923 301.159L88.8168 274.135L88.4131 271.849L87.7402 268.488H122.46Z" fill="#D03F23"/>
<path d="M121.788 271.849L121.385 274.135H88.8178L88.4141 271.849H121.788Z" fill="#FFB6C9"/>
<path d="M116.808 301.159L116.405 303.579H93.7963L93.3926 301.159H116.808Z" fill="#FFB6C9"/>
<path d="M258.381 148.159C258.381 148.159 248.692 150.579 249.499 160.528C250.172 170.477 261.341 174.376 266.321 172.36C266.321 172.225 271.031 155.15 258.381 148.159Z" fill="white"/>
<path d="M255.151 151.117C254.747 151.117 254.343 150.848 254.343 150.445C254.209 149.907 251.114 136.194 257.439 126.379C260.399 121.808 264.975 118.85 271.031 117.64C271.569 117.506 271.973 117.909 272.107 118.312C272.242 118.85 271.838 119.253 271.434 119.388C265.917 120.464 261.61 123.152 258.919 127.32C252.998 136.463 256.093 149.907 256.093 150.042C256.228 150.445 255.958 150.983 255.42 151.117C255.285 151.117 255.286 151.117 255.151 151.117Z" fill="white"/>
<path d="M256.496 148.832C256.496 148.832 267.262 157.571 263.494 172.628" stroke="#272B34" stroke-width="0.75" stroke-miterlimit="10" stroke-linecap="round" stroke-linejoin="round"/>
</g>
<defs>
<clipPath id="clip0_205_2171">
<rect width="557" height="564" fill="white"/>
</clipPath>
</defs>
</svg>
