<svg width="557" height="405" viewBox="0 0 557 405" fill="none" xmlns="http://www.w3.org/2000/svg">
<g clip-path="url(#clip0_205_864)">
<g opacity="0.5">
<path opacity="0.5" d="M209.101 354.6C209.401 352.4 209.101 348.6 207.101 345.6C203.401 340.1 186.701 321.3 178.501 318C169.101 314.2 184.401 354.1 194.801 359.9C202.701 364.2 208.401 360 209.101 354.6Z" fill="#CEB899"/>
</g>
<path d="M217 398.8H217.7C214.5 381.4 208 364.7 198.6 349.8C195.6 345 192.2 340.4 188.6 336C188.3 335.6 187.8 336.2 188.1 336.5C200.8 352 210 370.2 214.9 389.6C215.8 392.6 216.5 395.7 217 398.8Z" fill="#CEB899"/>
<g opacity="0.5">
<path opacity="0.5" d="M215.001 372.5C212.701 370.2 213.001 363.8 213.201 362C213.801 356.5 217.101 339.6 221.501 333.8C226.601 327.2 232.301 361.9 227.401 370.3C223.601 376.7 218.201 375.7 215.001 372.5Z" fill="#CEB899"/>
</g>
<path d="M221.301 355C221.301 360.6 220.001 366.3 218.801 371.8C217.701 377.4 216.501 383 214.701 388.4C214.601 388.9 215.301 389 215.401 388.6C217.201 383.1 218.401 377.3 219.601 371.6C220.701 366.2 222.001 360.5 222.001 354.9C222.101 354.5 221.301 354.5 221.301 355Z" fill="#CEB899"/>
<g opacity="0.5">
<path opacity="0.5" d="M202.501 369.6C201.601 368 200.301 366.6 198.601 365.9C193.501 363.9 172.501 355.7 165.301 356.9C157.101 358.2 185.201 380.2 194.901 379.8C202.401 379.6 204.901 374.2 202.501 369.6Z" fill="#CEB899"/>
</g>
<path d="M185.4 369.3C193.5 373.2 202.2 376 211.1 377.4C211.6 377.5 211.8 376.8 211.3 376.7C202.4 375.3 193.8 372.6 185.8 368.6C185.3 368.4 184.9 369.1 185.4 369.3Z" fill="#CEB899"/>
<g opacity="0.5">
<path opacity="0.5" d="M371.9 354.6C371.6 352.4 371.9 348.6 373.9 345.6C377.6 340.1 394.3 321.3 402.5 318C411.9 314.2 396.6 354.1 386.2 359.9C378.3 364.2 372.6 360 371.9 354.6Z" fill="#CEB899"/>
</g>
<path d="M363.901 398.8H363.201C366.401 381.4 372.901 364.7 382.301 349.8C385.301 345 388.701 340.4 392.301 336C392.601 335.6 393.101 336.2 392.801 336.5C380.101 352 370.901 370.2 366.001 389.6C365.201 392.6 364.501 395.7 363.901 398.8Z" fill="#CEB899"/>
<g opacity="0.5">
<path opacity="0.5" d="M366.002 372.5C368.302 370.2 368.002 363.8 367.802 362C367.202 356.5 363.902 339.6 359.502 333.8C354.402 327.2 348.702 361.9 353.602 370.3C357.402 376.7 362.802 375.7 366.002 372.5Z" fill="#CEB899"/>
</g>
<path d="M359.701 355C359.701 360.6 361.001 366.3 362.201 371.8C363.301 377.4 364.501 383 366.301 388.4C366.401 388.9 365.701 389 365.601 388.6C363.801 383.1 362.601 377.3 361.401 371.6C360.301 366.2 359.001 360.5 359.001 354.9C358.901 354.5 359.701 354.5 359.701 355Z" fill="#CEB899"/>
<g opacity="0.5">
<path opacity="0.5" d="M378.501 369.6C379.401 368 380.701 366.6 382.401 365.9C387.501 363.9 408.501 355.7 415.701 356.9C423.901 358.2 395.801 380.2 386.101 379.8C378.601 379.6 376.101 374.2 378.501 369.6Z" fill="#CEB899"/>
</g>
<path d="M395.602 369.3C387.502 373.2 378.802 376 369.902 377.4C369.402 377.5 369.202 376.8 369.702 376.7C378.602 375.3 387.202 372.6 395.202 368.6C395.702 368.4 396.002 369.1 395.602 369.3Z" fill="#CEB899"/>
<path d="M283.701 404.2C434.419 404.2 556.601 400.663 556.601 396.3C556.601 391.937 434.419 388.4 283.701 388.4C132.982 388.4 10.8008 391.937 10.8008 396.3C10.8008 400.663 132.982 404.2 283.701 404.2Z" fill="#CEB899"/>
<path d="M55.1014 392.4C55.1014 392.4 46.1014 390.2 47.5014 372.3C47.5014 372.3 57.6014 378.9 57.6014 387.9C57.6014 387.9 57.9014 382.9 65.8014 379.3C65.8014 379.3 68.1014 386.1 62.7014 392.4H55.1014Z" fill="#CEB899"/>
<path d="M515.5 393.9C515.5 393.9 506.5 391.7 507.9 373.8C507.9 373.8 518 380.4 518 389.4C518 389.4 518.3 384.4 526.2 380.8C526.2 380.8 528.5 387.6 523.1 393.9H515.5Z" fill="#CEB899"/>
<path d="M107.2 57.6H105.8L105.4 55.9L105 57.6H79.0001L76.7001 55.3L76.9001 57.6H73.0001C73.0001 57.6 60.9001 30.7 75.3001 20.1C73.2001 21.7 75.3001 20.1 75.3001 20.1C85.5001 12.4 100.2 18.2 103.7 26C108.2 35.8 107.2 57.6 107.2 57.6Z" fill="#2C2F37"/>
<path d="M102.4 53.5C102.2 53.5 102 53.3 102 53.1V43.7C102 43.5 102.2 43.3 102.4 43.3C102.6 43.3 102.8 43.5 102.8 43.7V53.1C102.8 53.3 102.6 53.5 102.4 53.5Z" fill="white"/>
<path d="M104.8 54.5L103.2 56.9C102.8 57.5 101.9 57.5 101.5 56.9L99.9 54.5C99.7 54.2 99.7 53.8 99.9 53.4L101.5 50.7C101.9 50 102.9 50 103.2 50.7L104.8 53.4C105.1 53.7 105.1 54.1 104.8 54.5Z" fill="white"/>
<path d="M22.199 99.7C22.199 99.7 20.399 99.1 23.699 94.6C26.999 90.1 34.299 83.3 34.299 83.3C34.299 83.3 37.899 95.2 22.199 99.7Z" fill="#2C2F37"/>
<path d="M35.8 89.1L24.7 72.5L18 75.5L27.7 96.5L35.8 89.1Z" fill="#9E4825"/>
<path d="M25.8996 72.3C25.8996 72.3 25.8996 68.6 23.7996 66.4C21.5996 64.2 20.4996 61.9 18.7996 60.4C16.9996 59 17.3996 62 17.9996 63.6C18.5996 65.2 19.1996 67 17.8996 67.2C16.5996 67.4 6.29961 63.8 4.59961 64.3C2.89961 64.8 4.39961 65.9 4.39961 65.9C4.39961 65.9 2.09961 65.1 1.29961 66C0.49961 66.9 1.79961 67.8 1.79961 67.8C1.79961 67.8 0.19961 67.4 -0.000390027 68.5C-0.20039 69.7 8.19961 73.9 7.79961 74.5C7.39961 75.1 3.79961 71.2 2.59961 72.2C1.39961 73.1 4.29961 74.8 6.49961 76.4C8.59961 78 11.3996 79 14.0996 78.8C16.7996 78.6 21.4996 79.8 23.2996 77.2C24.9996 74.6 25.8996 72.3 25.8996 72.3Z" fill="#9E4825"/>
<path d="M1.79957 67.5C4.49957 68.5 7.29957 69.5 9.89957 70.7C10.1996 70.8 9.89957 71.3 9.59957 71.2C6.99957 70.1 4.29957 69 1.59957 68.1C1.29957 67.9 1.49957 67.4 1.79957 67.5Z" fill="#612525"/>
<path d="M4.59973 65.9C6.79973 66.4 8.79973 67.2 10.7997 68.2C11.0997 68.4 10.7997 68.8 10.4997 68.7C8.59973 67.7 6.59973 66.9 4.49973 66.4C3.99973 66.3 4.19973 65.8 4.59973 65.9Z" fill="#612525"/>
<path d="M8.69922 73.2C9.19922 70.9 10.2992 68.8 11.7992 66.9C11.9992 66.6 12.4992 66.9 12.2992 67.2C10.7992 69.1 9.79922 71.1 9.29922 73.3C9.19922 73.6 8.69922 73.6 8.69922 73.2Z" fill="#612525"/>
<path d="M13.2 70.2C16.7 69.6 19.8 71 21.2 73.9C21.3 74.2 20.8 74.5 20.7 74.2C19.4 71.5 16.6 70.2 13.3 70.8C12.9 70.8 12.8 70.3 13.2 70.2Z" fill="#612525"/>
<path d="M22.1992 99.7C22.1992 99.7 28.4992 104.9 35.5992 116.6C36.8992 118.8 38.3992 120.8 39.8992 122.4C45.4992 128.7 51.8992 131 56.6992 127.6C57.3992 127.1 58.0992 126.4 58.6992 125.6C60.5992 123.3 62.6992 119 64.7992 114.2C69.1992 104 73.2992 91.5 73.2992 91.5L67.5992 78L59.2992 73L58.5992 74.9L55.5992 85L48.9992 104L34.3992 83.3C34.3992 83.4 34.3992 83.4 34.3992 83.5C33.6992 87 32.1992 90.2 30.1992 93C27.9992 95.7 25.3992 98 22.1992 99.7Z" fill="#467B6C"/>
<path d="M39.9004 122.4C45.5004 128.7 51.9004 131 56.7004 127.6C53.7004 124.9 47.1004 119.9 41.3004 121.8C40.8004 122 40.3004 122.2 39.9004 122.4Z" fill="#64653D"/>
<path d="M49.4 103.8C51.4 107.4 52.9 111.2 54.1 115.2C54.2 115.6 53.6 115.8 53.4 115.4C52.3 111.5 50.7 107.7 48.8 104.2C48.6 103.7 49.2 103.4 49.4 103.8Z" fill="#64653D"/>
<path d="M51.1999 107.5C52.3999 108.5 53.3999 109.6 54.5999 110.6C54.8999 110.9 54.4999 111.4 54.0999 111.1C52.8999 110.1 51.8999 109 50.6999 108C50.3999 107.7 50.8999 107.2 51.1999 107.5Z" fill="#64653D"/>
<path d="M157.599 101.6C157.599 101.6 159.599 101 155.999 96.2C152.399 91.4 144.599 84.1 144.599 84.1C144.599 84.1 140.899 96.8 157.599 101.6Z" fill="#2C2F37"/>
<path d="M143.1 90.2L154.9 72.4L162.1 75.7L151.8 98.2L143.1 90.2Z" fill="#9E4825"/>
<path d="M154.599 72.6C154.599 72.6 154.499 69.1 156.399 67C158.399 64.9 159.399 62.7 160.999 61.2C162.599 59.7 162.299 62.6 161.799 64.1C161.299 65.6 160.799 67.3 161.999 67.5C163.199 67.7 172.799 64 174.499 64.4C176.099 64.8 174.699 65.9 174.699 65.9C174.699 65.9 176.899 65.1 177.699 65.9C178.499 66.7 177.299 67.6 177.299 67.6C177.299 67.6 178.799 67.1 178.999 68.2C179.199 69.3 171.399 73.5 171.799 74.1C172.199 74.7 175.499 70.9 176.699 71.8C177.899 72.6 175.099 74.3 173.099 75.8C171.099 77.4 168.499 78.4 165.999 78.3C163.399 78.2 159.099 79.4 157.299 77C155.499 74.7 154.599 72.6 154.599 72.6Z" fill="#9E4825"/>
<path d="M177.298 67.5C174.698 68.5 172.198 69.6 169.698 70.7C169.398 70.8 169.798 71.3 169.998 71.1C172.398 70 174.898 68.9 177.398 67.9C177.798 67.9 177.598 67.4 177.298 67.5Z" fill="#612525"/>
<path d="M174.599 66C172.599 66.6 170.599 67.4 168.799 68.4C168.499 68.6 168.899 69 169.099 68.8C170.899 67.8 172.699 67 174.699 66.5C175.099 66.4 174.899 65.9 174.599 66Z" fill="#612525"/>
<path d="M170.898 73C170.298 70.9 169.298 68.9 167.798 67.1C167.598 66.8 167.098 67.1 167.398 67.4C168.798 69.1 169.798 71 170.398 73C170.398 73.4 170.898 73.3 170.898 73Z" fill="#612525"/>
<path d="M166.599 70.3C163.199 69.8 160.399 71.2 159.099 74C158.999 74.3 159.499 74.5 159.599 74.2C160.699 71.7 163.399 70.3 166.499 70.8C166.899 70.8 166.999 70.3 166.599 70.3Z" fill="#612525"/>
<path d="M157.599 101.6C157.599 101.6 150.799 107.2 143.199 119.7C141.799 122.1 140.199 124.2 138.599 125.9C132.599 132.6 125.699 135.1 120.599 131.4C119.799 130.8 119.099 130.2 118.399 129.3C116.399 126.8 114.099 122.2 111.899 117.1C107.099 106.1 102.799 92.8 102.799 92.8L108.899 78.3L113.399 67.7L115.099 72L120.599 85.8L128.699 106.1L144.399 84C144.399 84.1 144.399 84.1 144.399 84.2C145.199 87.9 146.699 91.4 148.899 94.3C151.399 97.4 154.199 99.9 157.599 101.6Z" fill="#467B6C"/>
<path d="M138.6 126C132.6 132.7 125.7 135.2 120.6 131.5C123.8 128.6 130.9 123.3 137.1 125.3C137.7 125.5 138.2 125.8 138.6 126Z" fill="#64653D"/>
<path d="M128.498 106C126.398 109.9 124.698 114 123.498 118.2C123.398 118.7 124.098 118.9 124.198 118.4C125.398 114.2 127.098 110.2 129.198 106.4C129.398 106 128.698 105.6 128.498 106Z" fill="#64653D"/>
<path d="M126.499 110C125.199 111.1 124.099 112.3 122.799 113.3C122.399 113.6 122.999 114.1 123.299 113.8C124.599 112.7 125.699 111.5 126.999 110.5C127.399 110.2 126.899 109.7 126.499 110Z" fill="#64653D"/>
<path d="M146.999 359L146.399 384.6L137.499 384.7L131.699 359H146.999Z" fill="#9E4825"/>
<path d="M131.299 359.5C131.299 359.5 130.299 361.9 130.899 364.6C131.699 368.1 133.799 369.3 133.799 369.3L146.699 368.5C146.699 368.5 150.999 364.5 147.599 358.3L131.299 359.5Z" fill="#2C2F37"/>
<path d="M146.398 382.3C146.398 382.3 150.198 385.9 152.698 387.1C155.198 388.3 160.698 388.5 161.798 388.8C162.898 389.1 166.698 388.1 167.998 390.1C169.498 392.4 167.798 393.2 167.798 393.2C167.798 393.2 150.998 393.8 146.998 394C142.098 394.2 139.998 394.1 137.998 393.2C135.998 392.3 136.998 382.9 136.998 382.9L146.398 382.3Z" fill="#9E4825"/>
<path d="M137.199 391.9C137.199 391.9 134.299 396.8 137.199 396.9C137.799 396.9 168.499 396.9 168.499 396.9C168.499 396.9 170.499 395.1 168.499 392.4L137.199 391.9Z" fill="#6059C9"/>
<path d="M161.8 388.9C161.8 388.9 156.9 389.5 153.7 393.2H150.6C150.6 393.2 152.4 389 155.9 388C155.8 388 160 387.4 161.8 388.9Z" fill="#6059C9"/>
<path d="M89.1988 359L89.3988 385.9L80.4988 386.3L73.7988 360.4L89.1988 359Z" fill="#9E4825"/>
<path d="M73.8984 360.7C73.8984 360.7 72.8984 363.1 73.4984 365.8C74.2984 369.3 76.3984 370.5 76.3984 370.5L89.2984 369.7C89.2984 369.7 93.5984 365.7 90.1984 359.5L73.8984 360.7Z" fill="#2C2F37"/>
<path d="M80.1984 385C80.1984 385 79.2984 390.1 78.2984 390.7C77.2984 391.3 74.9984 390.7 74.3984 395.3H94.6984C94.6984 395.3 93.1984 391.8 92.1984 390.9C91.1984 390 89.9984 389.7 89.9984 389.7L89.3984 384.9H80.1984V385Z" fill="#9E4825"/>
<path d="M82.2994 390.3C81.8994 391.1 80.5994 394 80.9994 396.1H83.6993C83.6993 396.1 84.2994 391.3 85.4994 390.3H82.2994Z" fill="#6059C9"/>
<path d="M76.8984 391.2C76.8984 391.2 78.2984 388.3 80.6984 388C82.9984 387.7 91.0984 385.9 92.2984 390.9C92.1984 391 84.5984 391.6 76.8984 391.2Z" fill="#6059C9"/>
<path d="M74.3987 395.3C74.3987 395.3 72.5987 396.1 72.7987 398.6H95.7987C95.7987 398.6 96.9987 397.4 94.6987 395.3H74.3987Z" fill="#6059C9"/>
<path d="M108.599 118.3L108.399 119.2L107.799 122.4L106.699 128.6C85.9992 136.6 68.6992 126.1 68.6992 126.1C69.0992 125.2 69.3992 123.9 69.4992 122.5C69.6992 120.5 69.6992 118.3 69.5992 117C69.5992 116.2 69.4992 115.7 69.4992 115.7L108.599 118.3Z" fill="#9E4825"/>
<path d="M108.4 119.3L107.8 122.5C97.4 124.1 84.5 123.9 69.5 122.5C69.7 120.5 69.7 118.3 69.6 117L108.4 119.3Z" fill="#612525"/>
<path d="M66.1003 131.7C66.1003 131.7 55.7003 142.5 55.2003 159.1C54.5003 181.6 60.6003 267.4 61.7003 283.8C62.7003 299.6 65.6003 336.6 66.9003 353.6C67.3003 358.5 71.5003 362.2 76.4003 361.9L90.1003 361.2C95.1003 360.9 98.9003 356.7 98.6003 351.7C96.7003 314.9 89.8003 176.8 90.2003 165.4C90.7003 152.2 89.7003 136.2 89.7003 136.2L66.1003 131.7Z" fill="#2C2F37"/>
<path d="M71.901 253.2C77.001 255.3 82.7009 255.1 87.6009 252.7C88.0009 252.5 87.7009 251.9 87.2009 252.1C82.4009 254.4 77.0009 254.5 72.1009 252.5C71.6009 252.3 71.401 253 71.901 253.2Z" fill="#63636C"/>
<path d="M129.6 189.7C126.3 177.2 125.9 171.1 123.4 161.9C121.3 161 116.5 148.4 114.4 147.2C111.6 145.6 108.8 143.9 105.9 142.3C103.8 141.1 101.6 139.9 99.6003 138.6C95.4003 136 91.1003 132.9 88.2003 128.7C86.0003 132 84.6003 138 84.7003 147.9L122.8 355.3C123.4 358.4 126.1 360.7 129.3 360.8C134.9 360.9 143.7 360.7 149.8 359.7C153.4 359.1 155.8 355.8 155.3 352.2C151.5 325.8 134.7 209.2 129.6 189.7Z" fill="#2C2F37"/>
<path d="M124.401 251.3C129.101 253 134.201 252.5 138.401 249.8C138.801 249.5 138.401 248.9 138.001 249.2C134.001 251.8 129.101 252.3 124.601 250.6C124.101 250.4 123.901 251.1 124.401 251.3Z" fill="#63636C"/>
<path d="M92.9319 174.275L92.2441 174.406L126.989 357.445L127.677 357.315L92.9319 174.275Z" fill="#63636C"/>
<path d="M62.4004 138.6C62.4004 138.6 66.3004 132.5 68.8004 124.2C68.8004 124.2 83.6004 131.1 107.6 127.2C107.6 127.2 116.1 141.1 123.4 161.8C123.4 161.8 67.8004 148.6 62.4004 138.6Z" fill="#2C2F37"/>
<path d="M102 134.6C102.9 146.3 111.9 156 122.5 160.1C122.9 160.3 123.1 159.6 122.7 159.4C112.3 155.5 103.5 146 102.7 134.7C102.7 134.2 102 134.2 102 134.6Z" fill="#63636C"/>
<path d="M77.3 134.4C77.1 140 74.8 145.4 70.7 149.3C66.6 153.1 61.1 155.2 55.5 155C55 155 55 155.7 55.5 155.7C61.3 155.9 67 153.8 71.2 149.8C75.4 145.8 77.8 140.2 78 134.4C78 134 77.3 134 77.3 134.4Z" fill="#63636C"/>
<path d="M87.3008 151.2C88.0008 160.1 89.0008 169.1 89.7008 178C89.7008 178.5 90.5008 178.5 90.4008 178C89.7008 169.1 88.7008 160.1 88.0008 151.2C88.0008 150.7 87.3008 150.7 87.3008 151.2Z" fill="#63636C"/>
<path d="M90.9001 151.9C91.3001 154.4 91.6001 157 91.8001 159.6C91.9001 160.7 92.0001 161.9 91.9001 163C91.8001 164.3 91.1001 166.7 89.3001 165.8C88.9001 165.6 88.5001 166.2 88.9001 166.4C91.3001 167.6 92.6001 164.7 92.6001 162.8C92.6001 159.1 92.2001 155.4 91.6001 151.8C91.5001 151.2 90.8001 151.4 90.9001 151.9Z" fill="#63636C"/>
<path d="M67.4998 131.2C69.7998 133.5 73.4998 133.8 76.4998 134.3C80.2998 135 84.1998 135.5 88.0998 135.8C95.4998 136.2 103.2 135.6 110.1 132.6C110.5 132.4 110.2 131.8 109.7 132C103.1 134.8 95.6998 135.5 88.4998 135.1C84.7998 134.9 80.9998 134.4 77.2998 133.8C74.2998 133.3 70.1998 133 67.8998 130.7C67.6998 130.4 67.0998 130.9 67.4998 131.2Z" fill="#63636C"/>
<path d="M116.2 81.7C116.2 82.7 116.2 83.8 116.2 84.8C116 93.1 115 101.3 114.1 106.1C113.5 109.4 112.6 114.2 112 117.3C111.6 119.2 111.4 120.6 111.4 120.6C106 122.5 85.9003 120.4 67.9003 119.6C67.9003 119.6 67.4003 109.7 65.6003 101.3C65.0003 98.4 64.2003 95.7 63.3003 93.7C61.2003 89 58.7003 82.9 58.5003 78C58.4003 76 58.6003 74.2 59.4003 72.8C60.2003 71.4 61.4003 70.4 63.3003 69.8C70.2003 67.7 78.0003 64.4 80.9003 63.1C81.7003 62.8 82.1003 62.6 82.1003 62.6C82.1003 62.6 92.2003 61 100.2 60.7C104.1 60.5 107.6 60.7 109.1 61.5C112 63.1 114.1 67.1 115.2 72.2C115.9 75.1 116.2 78.3 116.2 81.7Z" fill="#467B6C"/>
<path d="M74.5988 65.7C74.3988 70.9 70.0988 75.1 64.7988 75.1C62.6988 75.1 60.6988 74.4 59.0988 73.3C58.9988 73.5 58.8988 73.8 58.7988 74C60.4988 75.2 62.4988 75.8 64.6988 75.8C70.4988 75.8 75.1988 71.1 75.1988 65.3C75.0988 65.5 74.8988 65.6 74.5988 65.7Z" fill="#253F3D"/>
<path d="M116.2 74.5C116 74.6 115.9 74.6 115.7 74.7C114.7 75.1 113.6 75.2 112.5 75.2C111.8 75.2 111.1 75.1 110.5 75C106.1 74.1 102.8 70.1 102.8 65.4C102.8 63.6 103.3 61.9 104.1 60.5C103.8 60.5 103.5 60.5 103.3 60.5C102.5 62 102.1 63.6 102.1 65.4C102.1 70.4 105.6 74.6 110.3 75.7C111.1 75.9 111.8 76 112.6 76C113.8 76 114.9 75.8 115.9 75.5C116.1 75.4 116.3 75.3 116.6 75.3L116.2 74.5Z" fill="#253F3D"/>
<path d="M84.5996 73.6C78.7996 73.6 74.0996 78.3 74.0996 84.1C74.0996 89.9 78.7996 94.6 84.5996 94.6C90.3996 94.6 95.0996 89.9 95.0996 84.1C95.0996 78.3 90.3996 73.6 84.5996 73.6ZM84.5996 93.9C79.1996 93.9 74.7996 89.5 74.7996 84.1C74.7996 78.7 79.1996 74.3 84.5996 74.3C89.9996 74.3 94.3996 78.7 94.3996 84.1C94.2996 89.5 89.9996 93.9 84.5996 93.9Z" fill="#253F3D"/>
<path d="M119.498 92.1C118.898 94.6 117.298 96.7 115.198 98C113.698 98.9 111.898 99.5 109.998 99.5C107.898 99.5 105.998 98.9 104.398 97.8C101.798 96 100.198 93.1 100.198 89.7C100.198 84.9 103.698 80.9 108.298 80.1C108.898 80 109.398 79.9 109.998 79.9C111.898 79.9 113.698 80.5 115.198 81.4C115.398 81.5 115.698 81.4 115.798 81.2C115.798 81.1 115.798 80.9 115.598 80.8C113.998 79.8 111.998 79.2 109.998 79.2C109.498 79.2 109.098 79.2 108.598 79.3C103.398 80 99.3984 84.4 99.3984 89.7C99.3984 93.6 101.598 97.1 104.798 98.9C106.298 99.8 108.098 100.3 109.998 100.3C111.798 100.3 113.598 99.8 115.098 99C117.398 97.7 119.198 95.6 119.998 93.1C119.898 92.7 119.698 92.4 119.498 92.1Z" fill="#253F3D"/>
<path d="M69.5992 95.3C69.2992 95.3 68.9992 95.3 68.6992 95.3C68.7992 95.5 68.7992 95.8 68.8992 96C69.0992 96 69.3992 96 69.5992 96C74.9992 96 79.3992 100.4 79.3992 105.8C79.3992 110.7 75.7992 114.7 71.1992 115.5C71.1992 115.8 71.0992 116 71.0992 116.3C76.1992 115.6 80.1992 111.2 80.1992 105.9C80.0992 100 75.3992 95.3 69.5992 95.3Z" fill="#253F3D"/>
<path d="M106.9 113.9C106.9 115.6 106.5 117.1 105.7 118.5C106 118.5 106.3 118.4 106.6 118.4C107.3 117 107.6 115.5 107.6 113.9C107.6 108.1 102.9 103.4 97.0996 103.4C91.2996 103.4 86.5996 108.1 86.5996 113.9C86.5996 115.3 86.8996 116.5 87.2996 117.7C87.5996 117.7 87.7996 117.7 88.0996 117.7C87.5996 116.5 87.2996 115.2 87.2996 113.8C87.2996 108.4 91.6996 104 97.0996 104C102.5 104.1 106.9 108.5 106.9 113.9Z" fill="#253F3D"/>
<path d="M80.5996 63.6C80.5996 63.6 85.7996 72.4 93.4996 73.6C101.1 74.8 97.5996 64.1 97.5996 64.1C97.5996 64.1 82.7996 60.9 80.5996 63.6Z" fill="#9E4825"/>
<path d="M111.8 117.9C104.6 118.6 97.4996 118.3 90.2996 117.9C82.8996 117.5 75.4996 117.2 68.0996 116.7C67.5996 116.7 67.5996 117.4 68.0996 117.4C75.4996 117.9 82.8996 118.1 90.2996 118.6C97.4996 119 104.6 119.3 111.8 118.6C112.2 118.6 112.2 117.9 111.8 117.9Z" fill="#64653D"/>
<path d="M67.4004 92.8C69.5004 100.8 70.5004 109 70.3004 117.3C70.3004 117.8 71.0004 117.8 71.0004 117.3C71.2004 109 70.3004 100.7 68.1004 92.6C68.0004 92.1 67.3004 92.3 67.4004 92.8Z" fill="#64653D"/>
<path d="M117.1 85.6C117 85.4 116.8 85.1 116.7 84.9C116.3 84.8 116 84.7 115.6 84.6C117.7 88.2 120 91.8 119.9 96.2C119.8 100.8 117.3 104.1 114.5 107.5C113.4 108.8 112.4 110.1 111.9 111.8C111.4 113.6 111.4 115.4 111.5 117.3C111.5 117.8 112.3 117.8 112.2 117.3C112.1 115.4 112.1 113.3 112.8 111.5C113.6 109.5 115.2 107.9 116.5 106.3C118.8 103.4 120.5 100.2 120.6 96.3C120.7 92.2 119 88.8 117.1 85.6Z" fill="#64653D"/>
<path d="M80.5 63.5C80.5 63.5 89.5 71 97.5 64.1L96.4 59.1L95.2 53.6L94.4 49.8L82.4 43.5L80.5 63.5Z" fill="#9E4825"/>
<path d="M85.1992 49.8C90.4992 59.1 95.4992 62.3 96.9992 62L95.0992 53.6L85.1992 49.8Z" fill="#2C2F37"/>
<path d="M78.4004 41.1C79.9004 44.8 81.1004 45.9 84.3004 49.4C87.1004 52.4 91.6004 53.7 93.8004 53.6C101.9 53.4 105.2 49.8 103.2 39.1C101.9 32.4 103.4 28.5 101.4 26.1C101.3 26 101.1 25.9 101 25.8C97.9004 23.3 94.0004 22.2 90.1004 22.6C70.7004 24.3 76.3004 35.8 78.4004 41.1Z" fill="#9E4825"/>
<path d="M96.4 46.7C97.4493 46.7 98.3 45.8493 98.3 44.8C98.3 43.7507 97.4493 42.9 96.4 42.9C95.3507 42.9 94.5 43.7507 94.5 44.8C94.5 45.8493 95.3507 46.7 96.4 46.7Z" fill="white"/>
<path d="M76.7005 40C76.7005 40 81.2005 40.8 83.3005 39C85.4005 37.2 83.3005 34 85.3005 34.1C92.2005 34.3 85.0005 28.2 87.8005 28.5C90.6005 28.8 94.2005 30.4 96.8005 30C96.8005 30 94.4005 28.5 94.4005 26.8C94.4005 26.8 100.501 31.1 103.601 30.5C103.601 30.5 102.401 23.9 96.1005 22C89.8005 20 78.2005 22.2 75.3005 25.7C72.2005 29.2 76.7005 40 76.7005 40Z" fill="#2C2F37"/>
<path d="M98.4 48.2C97.6 48.6 96.8 48.7 96.1 48.2C95.7 47.9 96.2 47.4 96.5 47.7C97 48.1 97.6 47.9 98.1 47.7C98.6 47.4 98.8 48 98.4 48.2Z" fill="#612525"/>
<path d="M88.5006 41.2C88.6006 41.8 89.5006 42.1 90.6006 42C91.7006 41.9 92.5006 41.3 92.5006 40.7C92.4006 40.1 91.5006 39.8 90.4006 39.9C89.2006 40 88.4006 40.6 88.5006 41.2Z" fill="#612525"/>
<path d="M100.001 40.3C100.101 40.9 101.001 41.2 102.101 41.1C102.601 41 103.101 40.9 103.401 40.7C103.301 40.2 103.201 39.7 103.101 39.2C103.101 39.2 103.101 39.2 103.101 39.1C102.701 39 102.301 39 101.801 39C100.701 39.1 99.9006 39.7 100.001 40.3Z" fill="#612525"/>
<path d="M92.7012 37.2C92.8012 37.7 93.2012 38.1 93.6012 38.1C94.0012 38 94.3012 37.6 94.2012 37C94.1012 36.5 93.7012 36.1 93.3012 36.1C92.9012 36.2 92.7012 36.6 92.7012 37.2Z" fill="#2C2F37"/>
<path d="M99.4002 36.6C99.5002 37.1 99.9002 37.5 100.3 37.5C100.7 37.4 101 37 100.9 36.4C100.8 35.9 100.4 35.5 100 35.5C99.6002 35.6 99.3002 36.1 99.4002 36.6Z" fill="#2C2F37"/>
<path d="M92.5 33.6C91.7 33.4 90.7 33.7 90.4 34.6C90.2 35.5 88.8 35.3 89 34.4C89.4 32.8 91 31.8 92.6 32.2C93.6 32.5 93.4 33.8 92.5 33.6Z" fill="#2C2F37"/>
<path d="M100.9 34.2C100.3 33.6 99.4999 32.8 98.5999 33.1C97.7999 33.4 97.1999 32.1 98.0999 31.8C99.5999 31.2 100.8 32.1 101.8 33.1C102.4 33.8 101.6 34.9 100.9 34.2Z" fill="#2C2F37"/>
<path d="M97.4004 41.5C97.1004 41.6 96.7004 41.7 96.3004 41.7C96.1004 41.7 95.9004 41.6 95.9004 41.4C95.9004 41.2 96.0004 41 96.2004 41C96.9004 41 97.3004 40.7 97.6004 40.6C96.5004 39.7 96.0004 38.3 96.0004 38.3C95.9004 38.1 96.0004 37.9 96.2004 37.9C96.4004 37.8 96.6004 37.9 96.6004 38.1C96.6004 38.1 97.2004 39.6 98.3004 40.4C98.4004 40.5 98.4004 40.5 98.5004 40.6C98.5004 40.7 98.5004 40.8 98.4004 40.9C98.5004 40.9 98.1004 41.3 97.4004 41.5Z" fill="#2C2F37"/>
<path d="M86.401 43.2C86.701 41.7 86.201 40.2 85.301 39.1C84.101 37.6 81.801 35.4 80.001 35.9C77.301 36.6 77.301 39.1 77.901 41.5C78.501 43.9 80.501 47 83.801 46C85.401 45.6 86.101 44.4 86.401 43.2Z" fill="#9E4825"/>
<path d="M85.2012 34.1C85.2012 34.1 84.0012 35.3 85.5012 38.5C86.6012 40.9 86.8012 42.3 86.8012 42.3C86.8012 42.3 84.9012 41.5 82.3012 36.6C81.8012 36.1 82.8012 33.9 85.2012 34.1Z" fill="#2C2F37"/>
<path d="M82.6006 43.3C82.6006 42.3 82.6006 41.2 82.1006 40.3C81.7006 39.5 80.6006 38.3 79.5006 38.8C79.1006 39 78.8006 38.4 79.2006 38.3C80.2006 37.8 81.3006 38.4 82.0006 39.2C83.0006 40.4 83.2006 41.9 83.2006 43.4C83.2006 43.8 82.6006 43.7 82.6006 43.3Z" fill="#2C2F37"/>
<path d="M81.9992 53.3C81.7992 53.3 81.6992 53.2 81.6992 53V43.6C81.6992 43.4 81.7992 43.3 81.9992 43.3C82.1992 43.3 82.2992 43.4 82.2992 43.6V53C82.2992 53.2 82.0992 53.3 81.9992 53.3Z" fill="white"/>
<path d="M84.3996 54.4L82.7996 56.8C82.3996 57.4 81.4996 57.4 81.0996 56.8L79.4996 54.4C79.2996 54.1 79.2996 53.7 79.4996 53.3L81.0996 50.6C81.4996 49.9 82.4996 49.9 82.7996 50.6L84.3996 53.3C84.5996 53.6 84.5996 54.1 84.3996 54.4Z" fill="white"/>
<path d="M301.601 23.7C301.601 23.7 293.601 17 289.801 17.5C285.901 18 290.501 27.2 290.501 27.2L295.301 32.5L300.501 30.4L301.601 23.7Z" fill="#D06828"/>
<path d="M298.801 23.2C298.801 23.2 338.501 31.2 348.501 34.5C364.301 39.7 375.201 54.9 338.901 78.1L323.101 60.3L339.401 47.1C329.501 43.7 308.901 34.3 298.701 29.8V23.2H298.801Z" fill="#D06828"/>
<path d="M339.501 47.4C341.601 48.6 343.701 49.7 345.901 50.7C346.301 50.9 346.701 50.3 346.301 50.1C344.101 49.1 342.001 48 339.901 46.8C339.401 46.5 339.001 47.1 339.501 47.4Z" fill="#9E4825"/>
<path d="M341.302 48.5C342.002 49.7 342.702 51 343.402 52.2C343.602 52.6 344.302 52.2 344.002 51.8C343.302 50.6 342.602 49.3 341.902 48.1C341.702 47.7 341.102 48.1 341.302 48.5Z" fill="#9E4825"/>
<path d="M357.101 69.5C357.101 69.5 355.801 71.7 352.901 74.8C352.701 75 352.601 75.2 352.401 75.3C349.301 78.5 344.601 82.6 337.801 86.3C337.601 86.4 337.401 86.5 337.101 86.7C335.201 87.7 333.201 88.7 331.001 89.7L307.301 56.8C307.301 56.8 324.801 57.1 336.701 48.5L357.101 69.5Z" fill="#6059C9"/>
<path d="M352.901 74.8C352.701 75 352.601 75.2 352.401 75.3C350.501 72.8 347.901 70.8 345.001 69.8C342.001 68.8 337.501 68.1 335.001 70.5C332.001 73.3 333.101 78.7 334.701 81.9C335.501 83.6 336.601 85.1 337.901 86.4C337.701 86.5 337.501 86.6 337.201 86.8C335.901 85.4 334.801 83.8 334.001 82.1C332.601 79.3 332.001 75.9 332.901 72.8C333.701 70 336.101 68.6 338.901 68.4C344.201 67.7 349.601 70.5 352.901 74.8Z" fill="#8B8EFB"/>
<path d="M333.901 50.7C340.201 58.1 347.001 65 354.201 71.5C354.601 71.8 355.101 71.3 354.701 71C347.501 64.5 340.701 57.6 334.401 50.2C334.101 49.8 333.601 50.4 333.901 50.7Z" fill="#221D58"/>
<path d="M275.2 105.9C275.2 105.9 257.5 142.2 240.5 138.8C226.5 136 217 88.8 217 88.8L225.7 86.3L240.3 112.3L262.6 72.5C262.7 72.6 275.7 96.5 275.2 105.9Z" fill="#D06828"/>
<path d="M260.601 126.8V128C253.501 121.1 242.801 102 242.801 102L245.201 98.2L245.601 97.5L254.501 83.6L255.001 82.9L262.801 70.7C270.801 90.2 260.601 126.8 260.601 126.8Z" fill="#6059C9"/>
<path d="M255.601 95.3C253.101 98.6 249.101 98.9 245.301 98.2L245.701 97.5C249.101 98.1 252.501 97.8 254.801 95C257.601 91.6 256.301 87.2 254.501 83.5L255.001 82.8C257.001 86.9 258.501 91.5 255.601 95.3Z" fill="#8B8EFB"/>
<path d="M244.3 100.3C249.3 107.8 253.8 115.7 258.9 123.3C259.2 123.7 259.8 123.3 259.5 122.9C254.5 115.4 250 107.5 244.9 99.9C244.7 99.6 244.1 99.9 244.3 100.3Z" fill="#221D58"/>
<path d="M225.701 86.4L224.401 80.6C224.401 80.6 226.601 77.3 225.501 75.2C222.401 69.3 215.401 66.2 214.801 67.8C214.701 68.1 211.201 76.5 211.201 76.5L216.901 88.8L225.701 86.4Z" fill="#D06828"/>
<path d="M214 83.1L222.7 84.9C224.2 85.2 225.2 83.8 224.7 82.1L219.1 61.7C218.8 60.6 217.9 59.7 216.9 59.5L208.2 57.7C206.7 57.4 205.7 58.8 206.2 60.5L211.8 80.9C212.1 82 213 82.9 214 83.1Z" fill="#63636C"/>
<path d="M213.1 82.9L221.8 84.7C223.3 85 224.3 83.6 223.8 81.9L218.2 61.5C217.9 60.4 217 59.5 216 59.3L207.3 57.5C205.8 57.2 204.8 58.6 205.3 60.3L210.9 80.7C211.2 81.8 212.1 82.7 213.1 82.9Z" fill="#2C2F37"/>
<path d="M211.799 70.6C211.999 71.8 212.999 73 213.899 73.2C214.799 73.4 215.399 72.5 215.199 71.3C214.999 70.1 213.999 68.9 213.099 68.7C212.099 68.5 211.599 69.3 211.799 70.6Z" fill="#63636C"/>
<path d="M215.099 62.2C215.199 62.9 215.799 63.5 216.299 63.7C216.799 63.8 217.099 63.3 216.999 62.6C216.899 61.9 216.299 61.3 215.799 61.1C215.299 61 214.999 61.5 215.099 62.2Z" fill="#63636C"/>
<path d="M207.701 68.5C207.701 68.5 213.401 67.7 214.401 68.8C215.401 69.9 209.801 71.5 209.801 71.5C209.801 71.5 213.201 71.1 214.101 71.8C215.001 72.5 210.901 74.2 210.901 74.2C210.901 74.2 213.201 74 213.401 75.3C213.601 76.5 212.801 77.1 211.501 77.5C210.301 77.9 209.001 77.5 208.401 77.1C207.901 76.6 208.201 75.3 208.201 75.3C208.201 75.3 205.901 74.4 205.801 73.6C205.601 72.8 206.201 72.2 206.201 72.2C206.201 72.2 205.201 72.1 204.701 71.2C204.201 70.2 204.701 69.6 204.701 69.6C204.701 69.6 203.701 67.8 203.301 66.8C202.901 65.8 204.801 64.7 205.801 64C206.901 63.2 209.201 65.4 211.101 65.7C211.101 65.7 212.101 66.2 211.101 67C210.101 67.8 207.801 66.9 207.301 67C207.001 67 207.701 68.5 207.701 68.5Z" fill="#D06828"/>
<path d="M240.5 112.7C240.5 115.8 240.7 118.9 241.1 122C241.1 122.4 240.6 122.4 240.5 122C240.1 118.9 239.9 115.8 239.9 112.7C239.9 112.3 240.5 112.3 240.5 112.7Z" fill="#9E4825"/>
<path d="M240.501 115.8C241.301 116.9 242.101 118.1 242.801 119.2C243.001 119.5 242.501 119.8 242.301 119.5C241.501 118.4 240.701 117.2 240.001 116.1C239.801 115.8 240.301 115.5 240.501 115.8Z" fill="#9E4825"/>
<path d="M314.5 355.7L318.5 383.6L329.8 384.5L331.6 358.4L314.5 355.7Z" fill="#D06828"/>
<path d="M340.9 397H316.2C316.2 397 315.5 385 316.6 381.9C317.7 378.8 320.7 384.1 320.7 384.1C320.7 384.1 323.4 376.3 327.3 377.3C329.1 377.7 330.2 379.3 330.9 380.9C331.2 380.3 331.6 379.7 332.1 379.8C333 380.1 333.4 386.2 333.4 386.4C334.5 387.5 335.9 388.8 337.2 389C340.1 389.3 342.4 392.4 340.9 397Z" fill="#D03F23"/>
<path d="M325.101 385.1C326.701 383.1 329.301 382.6 331.401 384C331.701 384.2 332.001 383.7 331.701 383.5C329.301 381.9 326.401 382.5 324.601 384.7C324.401 384.9 324.801 385.4 325.101 385.1Z" fill="white"/>
<path d="M325.5 387C327.1 385 329.7 384.5 331.8 385.9C332.1 386.1 332.4 385.6 332.1 385.4C329.7 383.8 326.8 384.4 325 386.6C324.9 386.9 325.3 387.3 325.5 387Z" fill="white"/>
<path d="M326.702 389.2C328.002 387.3 330.302 386.8 332.202 388.2C332.502 388.4 332.802 387.9 332.502 387.7C330.302 386.1 327.702 386.8 326.202 388.9C325.902 389.2 326.502 389.5 326.702 389.2Z" fill="white"/>
<path d="M316.001 385.4C318.001 387.7 318.901 390.7 318.601 393.7C318.601 394.1 319.201 394.1 319.201 393.7C319.501 390.5 318.501 387.4 316.401 384.9C316.101 384.6 315.701 385.1 316.001 385.4Z" fill="#2C2F37"/>
<path d="M316.3 394.2C324.3 394.3 332.3 394.4 340.3 394.5C340.7 394.5 340.7 393.9 340.3 393.9C332.3 393.8 324.3 393.7 316.3 393.6C315.9 393.6 315.9 394.2 316.3 394.2Z" fill="#2C2F37"/>
<path d="M334.601 370.2C339.801 352.6 338.901 301.2 337.701 285.3C336.201 266.2 337.001 180.5 337.001 180.5C337.001 180.5 298.601 184.5 291.901 194.7C285.201 204.9 298.101 269.9 298.701 289.5C299.201 304.7 308.301 351.8 313.001 369.3L334.601 370.2Z" fill="#2C2F37"/>
<path d="M319.701 185.2C320.201 195.1 326.801 203.6 336.301 206.4C336.801 206.5 337.001 205.8 336.501 205.7C327.401 203 320.901 194.7 320.501 185.2C320.401 184.8 319.701 184.7 319.701 185.2Z" fill="#63636C"/>
<path d="M324.301 282C321.201 282 319.301 281.7 319.201 281.7C318.901 281.7 318.801 281.4 318.801 281.1C318.801 280.8 319.101 280.7 319.401 280.7C319.401 280.7 323.801 281.4 329.801 280.7C330.101 280.7 330.301 280.9 330.301 281.1C330.301 281.4 330.101 281.6 329.901 281.6C327.801 281.9 325.901 282 324.301 282Z" fill="#63636C"/>
<path d="M315.401 362.3C315.201 362.3 315.001 362.2 314.901 361.9C310.601 346.5 303.501 291.9 303.701 285.4C303.901 278.6 295.401 218.4 295.301 217.8C295.301 217.5 295.401 217.3 295.701 217.2C296.001 217.2 296.201 217.3 296.301 217.6C296.701 220.1 304.901 278.5 304.701 285.4C304.501 291.9 311.601 346.2 315.901 361.6C316.001 361.9 315.801 362.1 315.601 362.2C315.401 362.3 315.401 362.3 315.401 362.3Z" fill="#63636C"/>
<path d="M335.6 363.2L311.9 362.3C311.6 362.3 311.4 362.1 311.4 361.8C311.4 361.5 311.6 361.3 311.9 361.3L335.5 362.2C335.8 362.2 336 362.4 336 362.7C336.1 363 335.8 363.2 335.6 363.2Z" fill="#63636C"/>
<path d="M269.702 355.9V383.6L258.502 384.5L253.002 358.5L269.702 355.9Z" fill="#D06828"/>
<path d="M261.801 381.9C261.801 381.9 258.301 375.1 256.201 375.9C254.101 376.6 253.301 384.8 253.301 384.8C253.301 384.8 242.001 388.6 238.801 388.8C235.601 389 233.101 390.8 232.701 397H271.301C271.301 397 271.001 383.1 271.001 380.7C270.901 378.3 267.501 381.3 267.501 381.3L261.801 381.9Z" fill="#D03F23"/>
<path d="M270.802 385.9C268.102 387.5 266.802 390.8 268.702 394C268.902 394.4 268.402 394.7 268.202 394.3C266.202 390.8 267.402 387.1 270.402 385.3C270.802 385.2 271.102 385.7 270.802 385.9Z" fill="#2C2F37"/>
<path d="M270.901 394.7C260.801 394.8 250.701 394.9 240.601 395C238.301 395 235.901 395 233.601 395.1C233.201 395.1 233.101 394.5 233.501 394.5C243.601 394.4 253.701 394.3 263.801 394.2C266.101 394.2 268.501 394.2 270.801 394.1C271.201 394.1 271.301 394.7 270.901 394.7Z" fill="#2C2F37"/>
<path d="M254.901 387.2C253.301 385.3 251.001 384.8 249.301 386.2C249.001 386.4 248.601 385.9 248.901 385.7C250.901 384.1 253.601 384.8 255.401 386.9C255.601 387.3 255.201 387.6 254.901 387.2Z" fill="white"/>
<path d="M251.702 388.2C250.102 386.3 247.802 385.8 246.102 387.2C245.802 387.4 245.402 386.9 245.702 386.7C247.702 385.1 250.402 385.8 252.202 387.9C252.402 388.3 252.002 388.6 251.702 388.2Z" fill="white"/>
<path d="M248.401 389.2C246.801 387.3 244.501 386.8 242.801 388.2C242.501 388.4 242.101 387.9 242.401 387.7C244.401 386.1 247.101 386.8 248.901 388.9C249.101 389.3 248.601 389.6 248.401 389.2Z" fill="white"/>
<path d="M273.8 370.5C276.5 346.6 276.5 281.5 278.9 276C290.4 248.8 298.8 184.2 298.8 184.2C298.8 184.2 263.7 166.5 258.8 172.1C254 177.7 242.8 253.8 241.7 270.7C240.8 284.1 249.4 348.7 252 369.2L273.8 370.5Z" fill="#2C2F37"/>
<path d="M268.602 186.6C268.202 191.4 266.602 196.2 263.202 199.8C260.002 203.2 255.702 205.1 251.102 205.7C250.602 205.8 250.602 206.5 251.102 206.4C255.902 205.8 260.402 203.9 263.702 200.3C267.202 196.6 268.902 191.6 269.302 186.5C269.302 186.1 268.602 186.1 268.602 186.6Z" fill="#63636C"/>
<path d="M294.602 214.4C294.302 214.4 294.102 214.2 294.102 213.9V191.7C294.102 191.4 294.302 191.2 294.602 191.2C294.902 191.2 295.102 191.4 295.102 191.7V213.9C295.102 214.1 294.802 214.4 294.602 214.4Z" fill="#63636C"/>
<path d="M291.801 204C291.001 204 290.201 203.8 289.601 203.1C288.101 201.3 288.901 191.8 289.001 190.7C289.001 190.4 289.301 190.2 289.501 190.3C289.801 190.3 290.001 190.6 289.901 190.8C289.601 194.7 289.401 201.4 290.301 202.5C291.401 203.9 294.201 202.4 294.201 202.4C294.401 202.3 294.701 202.4 294.901 202.6C295.001 202.8 294.901 203.1 294.701 203.3C294.701 203.3 293.301 204 291.801 204Z" fill="#63636C"/>
<path d="M254.401 178.2C254.401 178.2 251.501 187.1 252.001 188.2C252.401 189.3 254.201 186.5 261.401 190.7C270.101 195.6 290.801 201.2 304.601 197.1C318.401 193 333.001 186.3 337.801 187.2C342.601 188.1 337.101 179.2 337.101 179.2C337.101 179.2 290.201 194.3 254.401 178.2Z" fill="white"/>
<path d="M252.9 180.5C262.9 186.3 284.3 196.9 304.6 189.9C337 178.6 340.4 183.3 340.4 183.3C340.4 183.3 337.1 151.7 333.8 121.4C332.5 109.9 330.4 71.9 328.2 69.3C324.7 65.2 314.6 59.8 305.8 56.1C305.5 56 305.3 55.9 305 55.8C304.9 55.7 304.7 55.7 304.6 55.6C303.1 55 301.6 54.4 300.3 53.9L285.9 57.5C285.9 57.5 285.1 57.9 283.8 58.6C283.7 58.7 283.6 58.7 283.4 58.8C283.2 58.9 283.1 59 282.9 59.1C277.3 62.1 265.5 68.4 262.9 70.7C259.4 73.7 259.2 86.9 261 97.2C262.7 107.6 252.9 180.5 252.9 180.5Z" fill="#6059C9"/>
<path d="M334.2 126C320.6 135.7 303.5 136.5 287.4 136.7C278.8 136.8 269.9 137.2 261.9 140.8C260.4 141.5 258.9 142.3 257.5 143.2C257.5 142.9 257.6 142.6 257.6 142.3C259 141.4 260.5 140.6 262.1 140C269.7 136.7 278.1 136.2 286.3 136C295.2 135.8 304.2 135.8 312.9 134C320.4 132.5 327.9 129.6 334.1 125.1C334.2 125.4 334.2 125.7 334.2 126Z" fill="#8B8EFB"/>
<path d="M339.401 174.4C335.701 175.6 332.001 176.6 328.201 177.2C321.501 178.3 312.501 179.3 307.601 173.5C302.301 167.3 305.401 158.4 309.301 152.4C315.101 143.3 324.801 137.1 335.201 134.6C335.201 134.8 335.301 135.1 335.301 135.3C331.201 136.3 327.301 137.9 323.601 140C317.701 143.4 312.601 148.2 309.201 154C307.201 157.4 305.501 161.3 305.501 165.3C305.501 169.3 307.301 173.1 310.701 175.2C313.801 177 317.601 177.4 321.101 177.3C325.001 177.2 329.001 176.5 332.801 175.6C335.001 175.1 337.301 174.4 339.401 173.7C339.401 173.9 339.401 174.1 339.401 174.4Z" fill="#8B8EFB"/>
<path d="M300.401 191.1C300.201 191.2 299.901 191.2 299.701 191.3C298.001 186.6 297.801 181.4 297.001 176.5C296.401 172.7 295.201 168.9 293.001 165.7C291.001 162.9 288.301 160.5 285.301 158.8C275.901 153.3 265.301 154.2 255.801 158.1C255.801 157.8 255.901 157.5 255.901 157.1C259.201 155.8 262.601 154.8 266.101 154.4C272.901 153.5 279.801 154.7 285.701 158.1C291.701 161.6 295.701 167.1 297.201 173.9C298.401 179.5 298.401 185.7 300.401 191.1Z" fill="#8B8EFB"/>
<path d="M282.401 191.6C282.101 191.6 281.901 191.5 281.601 191.5C279.701 184.2 274.701 178 267.601 175C263.301 173.2 258.401 172.6 253.801 173.2C253.801 173 253.901 172.7 253.901 172.4C255.101 172.2 256.301 172.2 257.401 172.2C265.701 172.2 273.601 176 278.401 182.9C280.301 185.6 281.601 188.5 282.401 191.6Z" fill="#8B8EFB"/>
<path d="M332.501 106.7C330.001 108.1 327.301 109.1 324.401 109.4C320.601 109.7 316.601 108.5 314.101 105.5C311.601 102.5 310.901 98.4 311.401 94.5C312.001 90.2 313.901 86 316.101 82.3C318.301 78.6 321.101 75.3 324.401 72.5C324.801 72.2 325.301 72.7 324.901 73C321.601 75.9 318.701 79.3 316.401 83.2C312.601 89.6 309.101 99.6 315.401 105.7C320.301 110.5 327.001 108.7 332.501 105.7C332.401 106.1 332.401 106.4 332.501 106.7Z" fill="#8B8EFB"/>
<path d="M320 63.2C318.8 65.3 317.3 67.2 315.7 69C311.6 73.6 306.5 77.2 301.2 80.3C295.8 83.4 290.1 86.3 284.1 88.2C276.3 90.6 267.3 91 259.9 87.5C259.9 87.2 259.9 86.9 259.9 86.6C263 88.1 266.4 89 269.8 89.3C281.6 90.2 293.3 84.4 303 78.4C309.4 74.4 315.4 69.3 319.3 62.9C319.5 63 319.8 63.1 320 63.2Z" fill="#8B8EFB"/>
<path d="M275.501 68.1C275.001 71.5 273.001 74.4 269.801 75.8C266.701 77.2 263.301 76.8 260.701 75.1C260.801 74.8 260.801 74.6 260.901 74.3C263.601 76.1 267.201 76.5 270.401 74.6C273.501 72.8 274.901 69.6 274.901 66.1C274.901 65.2 274.801 64.3 274.701 63.5C274.901 63.4 275.101 63.3 275.401 63.1C275.601 64.8 275.701 66.5 275.501 68.1Z" fill="#8B8EFB"/>
<path d="M333.201 115.6C330.101 116.9 326.801 117.5 323.501 117.5C309.201 117.7 297.401 107.9 285.101 102C278.901 99 272.001 96.7 265.001 97.1C263.701 97.2 262.301 97.4 261.001 97.7C261.001 97.6 261.001 97.4 260.901 97.3C260.901 97.2 260.901 97.1 260.801 96.9C261.901 96.7 263.001 96.5 264.201 96.4C278.601 95 290.901 104.7 303.001 110.9C309.301 114.2 316.201 116.8 323.401 116.7C326.701 116.7 330.001 116 333.101 114.8C333.101 115.1 333.201 115.3 333.201 115.6Z" fill="#8B8EFB"/>
<path d="M282.801 125.1C279.201 128.8 273.701 130 268.901 131C265.501 131.7 262.101 132.2 258.701 132.5C258.701 132.2 258.801 132 258.801 131.8C262.401 131.5 265.901 130.9 269.401 130.2C273.901 129.3 278.901 128.1 282.201 124.8C285.701 121.3 285.801 116 283.401 111.8C280.901 107.5 276.101 105.3 271.301 104.8C267.801 104.5 264.301 105.1 260.901 106.2C260.901 105.9 260.901 105.7 260.901 105.4C264.901 104.1 269.201 103.5 273.401 104.4C278.101 105.4 282.601 108.2 284.601 112.7C286.501 116.9 286.101 121.8 282.801 125.1Z" fill="#8B8EFB"/>
<path d="M302.701 117C299.201 116.6 295.401 117.3 293.201 120.3C291.301 122.9 291.501 126.3 293.801 128.7C296.501 131.4 300.501 131.6 304.001 130.6C307.101 129.7 310.201 127.8 310.101 124.2C310.201 120 306.601 117.5 302.701 117C302.301 116.9 302.101 117.7 302.601 117.7C306.401 118.3 310.401 121.2 309.201 125.5C308.101 129.4 302.501 130.7 299.001 130.3C295.201 129.9 291.501 126.5 292.801 122.5C294.201 118.4 298.801 117.3 302.701 117.8C303.201 117.8 303.201 117 302.701 117Z" fill="#8B8EFB"/>
<path d="M280.101 68C281.801 71.4 285.501 73.2 289.201 73.3C293.701 73.3 297.901 70.8 301.301 68.1C301.701 67.8 301.101 67.3 300.801 67.6C297.601 70.2 293.801 72.5 289.601 72.6C286.001 72.7 282.401 71 280.801 67.7C280.501 67.2 279.901 67.6 280.101 68Z" fill="#221D58"/>
<path d="M330.902 89C326.502 90.3 322.102 91.5 317.602 92.5C317.102 92.6 317.302 93.3 317.802 93.2C322.302 92.2 326.702 91 331.102 89.7C331.602 89.6 331.402 88.9 330.902 89Z" fill="#221D58"/>
<path d="M292.701 66.2C300.801 63.9 303.001 58.4 304.501 55.7C303.001 55.1 301.501 54.5 300.201 54L285.801 57.6C285.801 57.6 285.001 58 283.701 58.7C283.601 58.8 283.501 58.8 283.301 58.9C283.101 59 283.001 59.1 282.801 59.2C281.901 62.9 284.901 68.4 292.701 66.2Z" fill="white"/>
<path d="M260.6 96.7C260.8 106.5 260.1 116.2 258.4 125.8C258.3 126.3 259 126.5 259.1 126C260.8 116.3 261.6 106.5 261.3 96.7C261.3 96.3 260.6 96.3 260.6 96.7Z" fill="#221D58"/>
<path d="M295 31C295 31 297.9 32 300.3 33.4C302.7 34.9 301.7 38.1 299.5 38.1C299.5 38.1 302.7 41.9 301.5 43.4C300.2 44.9 298.8 43.5 298.8 43.5C298.8 43.5 300.3 47.2 297.1 48C293.9 48.8 291 42.3 291 42.3L295 31Z" fill="#2C2F37"/>
<path d="M278.2 38.5C278.2 38.5 275.6 40.1 273.7 42.1C271.8 44.1 273.5 47 275.6 46.5C275.6 46.5 273.4 51 275 52.1C276.6 53.3 277.7 51.6 277.7 51.6C277.7 51.6 277.1 55.5 280.4 55.6C283.7 55.6 285 48.6 285 48.6L278.2 38.5Z" fill="#2C2F37"/>
<path d="M302.299 55C302.299 55 297.099 65 287.899 63.7C285.799 63.4 284.099 61.6 283.999 59.4L283.799 54.8L283.499 49.6L283.299 46L295.799 39.1C297.199 45.5 299.399 50.7 302.299 55Z" fill="#D06828"/>
<path d="M294.3 45.2C290.8 54.3 285.8 56.9 283.8 56.8L283.4 49.7L294.3 45.2Z" fill="#2C2F37"/>
<path d="M270.199 30.7C270.199 30.7 270.199 33.1 270.899 34.8C271.499 36.5 273.799 38.3 273.799 38.3C273.799 38.3 273.899 31.8 270.199 30.7Z" fill="#2C2F37"/>
<path d="M295.9 35.1C296 35.7 296.1 36.2 296.2 36.7C296.3 37.9 296.3 38.9 296.1 40C295.8 41.5 295.2 43.1 294.3 45.3C292.9 48.7 289.8 50.7 286.4 51.6C277.5 54 275 48.2 273.3 38.8C272.2 33 269.8 30.2 270.6 27.6C270.7 27.5 270.7 27.3 270.8 27.2C272.5 24.2 275.4 22.1 278.6 21.1C279.2 20.9 279.8 20.8 280.4 20.6C280.5 20.6 280.7 20.5 280.8 20.5C280.9 20.5 280.9 20.5 281 20.5C281.2 20.5 281.3 20.4 281.4 20.4C281.5 20.4 281.6 20.4 281.7 20.3C281.9 20.3 282.2 20.2 282.4 20.2C289.8 19.3 292.8 23.1 294.2 27.3C295.2 30.3 295.5 33.3 295.9 35.1Z" fill="#D06828"/>
<path d="M282.3 43.3C282.3 44.3 281.5 45.2 280.4 45.2C279.4 45.2 278.5 44.4 278.5 43.3C278.5 42.3 279.3 41.4 280.4 41.4C281.5 41.4 282.3 42.3 282.3 43.3Z" fill="white"/>
<path d="M280.7 35.5C280.9 36 281.3 36.2 281.7 36.1C282.1 36 282.2 35.5 282 35C281.8 34.5 281.4 34.3 281 34.4C280.7 34.5 280.6 35 280.7 35.5Z" fill="#2C2F37"/>
<path d="M274.899 37.1C275.099 37.6 275.499 37.8 275.899 37.7C276.299 37.6 276.399 37.1 276.199 36.6C275.999 36.1 275.599 35.9 275.199 36C274.899 36.2 274.699 36.7 274.899 37.1Z" fill="#2C2F37"/>
<path d="M286.299 36.8C286.399 37.3 285.799 37.9 284.799 38.1C283.899 38.3 282.999 38.1 282.899 37.6C282.799 37.1 283.399 36.5 284.399 36.3C285.299 36.1 286.199 36.3 286.299 36.8Z" fill="#9E4825"/>
<path d="M273.8 41.1C274.2 41.2 274.7 41.2 275.2 41.1C276.1 40.9 276.8 40.3 276.7 39.8C276.6 39.3 275.7 39.1 274.8 39.3C274.3 39.4 273.8 39.7 273.6 39.9L273.8 41.1Z" fill="#9E4825"/>
<path d="M280.899 32C281.399 31.7 282.299 31.7 282.599 32.3C282.799 32.7 283.199 32.9 283.699 32.7C284.099 32.5 284.399 32 284.099 31.6C283.399 30.2 281.699 29.7 280.299 30.4C279.899 30.6 279.699 31 279.899 31.5C279.999 32 280.499 32.2 280.899 32Z" fill="#2C2F37"/>
<path d="M274.3 35C274.5 34.3 274.8 33.9 275.5 33.7C276.5 33.5 276.2 31.9 275.2 32.1C273.9 32.4 273 33.2 272.7 34.5C272.6 35.5 274.1 36 274.3 35Z" fill="#2C2F37"/>
<path d="M279.9 39.4C280 39.3 280.1 39.2 280.1 39C280.1 38.8 279.9 38.8 279.7 38.8C279.2 39 278.7 39 278.4 38.9C278.9 37.8 278.7 36.2 278.7 36.1C278.7 35.9 278.5 35.8 278.4 35.9C278.2 35.9 278.1 36.1 278.2 36.2C278.2 36.2 278.5 38 277.8 38.9C277.7 39 277.7 39.1 277.8 39.2C277.8 39.3 277.9 39.4 278 39.4C277.8 39.4 278.7 39.8 279.9 39.4Z" fill="#2C2F37"/>
<path d="M293.299 38.4C294.599 38.1 295.499 37.5 296.199 36.6C296.299 37.8 296.299 38.8 296.099 39.9C295.099 39.8 294.099 39.3 293.299 38.4Z" fill="#2C2F37"/>
<path d="M292.2 27.8C288.9 29.7 290.1 35.9 288 35.3C285.9 34.7 286.8 23.9 282.2 25.4C277.6 26.8 278.4 27.6 276.2 28.3C272.6 29.5 272.1 27.7 270.6 27.6C270.7 27.5 270.7 27.3 270.8 27.2C272.5 24.2 275.4 22.1 278.6 21.1C279.2 20.9 279.8 20.8 280.4 20.6C280.5 20.6 280.7 20.5 280.8 20.5C280.9 20.5 280.9 20.5 281 20.5C281.2 20.5 281.3 20.4 281.4 20.4C281.5 20.4 281.6 20.4 281.7 20.3C281.9 20.3 282.2 20.2 282.4 20.2C289.8 19.3 292.8 23.1 294.2 27.3C293.7 27.3 293 27.4 292.2 27.8Z" fill="#2C2F37"/>
<path d="M287.999 35.3C290.099 35.9 288.899 29.7 292.199 27.8C292.899 27.4 293.599 27.3 294.199 27.4C295.199 30.3 295.399 33.3 295.899 35.1C295.999 35.6 296.099 36.1 296.199 36.6C296.599 32.5 297.099 27.8 296.899 25.8C296.899 25.4 296.799 25.1 296.699 24.7C296.599 24.6 296.499 24.6 296.399 24.5C295.899 24.2 295.399 24 294.899 23.9C294.099 23.7 293.199 23.6 292.299 23.6C289.399 23.6 286.299 24.7 284.199 25.7C286.599 27.5 286.299 34.8 287.999 35.3Z" fill="#2C2F37"/>
<path d="M269.099 26.1L296.599 23.6C296.299 19.8 293.499 16.8 289.599 15.3C289.199 15.2 288.899 15 288.499 14.9C287.399 14.5 286.099 14.3 284.899 14.1C284.699 14.1 284.399 14.1 284.199 14C283.099 13.9 281.899 13.9 280.799 14C280.599 14 280.399 14 280.199 14.1C278.999 14.3 277.699 14.6 276.499 15C276.199 15.1 275.899 15.2 275.599 15.4C275.299 15.5 274.899 15.7 274.599 15.9C268.299 19.3 269.099 26.1 269.099 26.1Z" fill="#E2809B"/>
<path d="M288.398 14.9C290.498 17.3 291.898 20.4 292.298 23.5C292.298 23.9 292.998 23.8 292.898 23.5C292.498 20.6 291.298 17.7 289.498 15.3C289.198 15.1 288.798 15 288.398 14.9Z" fill="#AC4477"/>
<path d="M285.899 22.9C285.899 23.3 286.499 23.4 286.499 23C286.799 20 286.199 16.8 284.899 14.1C284.699 14.1 284.399 14.1 284.199 14C285.499 16.7 286.199 19.9 285.899 22.9Z" fill="#AC4477"/>
<path d="M280.099 23.2C280.099 23.6 280.699 23.5 280.699 23.2C280.899 20.2 280.399 17.1 280.699 14.1C280.499 14.1 280.299 14.1 280.099 14.2C279.799 17.2 280.299 20.2 280.099 23.2Z" fill="#AC4477"/>
<path d="M273.2 25C273.3 25.4 273.9 25.2 273.8 24.8C273.1 21.7 273.7 18.1 275.5 15.3C275.2 15.4 274.8 15.6 274.5 15.8C273 18.7 272.5 22 273.2 25Z" fill="#AC4477"/>
<path d="M296.5 23.4C297.2 23.7 298.5 28.6 297.1 29.2C297.1 29.2 286.5 26.2 279.8 27.3C273.1 28.4 270.6 31.8 269.6 31.3C267.7 30.3 268.1 25.5 268.8 24.7C268.8 24.7 284.2 17.9 296.5 23.4Z" fill="#AC4477"/>
<path d="M280.699 47.7C281.399 47.8 282.199 47.6 282.599 46.9C282.799 46.6 282.299 46.3 282.099 46.6C281.799 47.1 281.299 47.1 280.799 47.1C280.299 47.1 280.299 47.7 280.699 47.7Z" fill="#9E4825"/>
<path d="M289.9 36.9C289.1 35.6 288.9 33.9 289.4 32.4C290.1 30.5 291.4 27.4 293.4 27.2C296.3 26.9 297.3 29.3 297.6 31.9C298 34.5 297.1 38.3 293.5 38.6C291.8 38.9 290.6 38 289.9 36.9Z" fill="#D06828"/>
<path d="M296.699 37.8C296.699 38.5 296.199 39 295.499 39C294.799 39 294.299 38.5 294.299 37.8C294.299 37.1 294.799 36.6 295.499 36.6C296.199 36.6 296.699 37.1 296.699 37.8Z" fill="white"/>
<path d="M293.199 35.6C292.799 34.6 292.399 33.5 292.599 32.3C292.699 31.3 293.399 29.7 294.699 29.8C295.099 29.8 295.199 29.2 294.799 29.1C293.599 29 292.699 29.9 292.199 31C291.599 32.6 291.999 34.2 292.599 35.7C292.699 36.3 293.299 36 293.199 35.6Z" fill="#2C2F37"/>
<path d="M273.302 42.8C271.002 42.8 269.102 40.9 269.102 38.6C269.102 36.3 271.002 34.4 273.302 34.4C275.602 34.4 277.502 36.3 277.502 38.6C277.502 40.9 275.702 42.8 273.302 42.8ZM273.302 35.1C271.302 35.1 269.702 36.7 269.702 38.7C269.702 40.7 271.302 42.3 273.302 42.3C275.302 42.3 276.902 40.7 276.902 38.7C276.902 36.7 275.302 35.1 273.302 35.1Z" fill="white"/>
<path d="M282.901 40C280.601 40 278.701 38.1 278.701 35.8C278.701 33.5 280.601 31.6 282.901 31.6C285.201 31.6 287.101 33.5 287.101 35.8C287.101 38.1 285.201 40 282.901 40ZM282.901 32.2C280.901 32.2 279.301 33.8 279.301 35.8C279.301 37.8 280.901 39.4 282.901 39.4C284.901 39.4 286.501 37.8 286.501 35.8C286.501 33.8 284.901 32.2 282.901 32.2Z" fill="white"/>
<path d="M277.102 37C277.402 36.4 278.002 36.2 278.702 36.4C279.002 36.5 279.202 36 278.802 35.9C277.902 35.6 277.002 35.9 276.602 36.7C276.502 37 276.902 37.3 277.102 37Z" fill="white"/>
<path d="M286.701 33.7C287.301 32.2 288.501 31.1 290.101 30.6C290.401 30.5 290.301 30 290.001 30.1C288.301 30.6 287.001 31.8 286.301 33.4C286.101 33.7 286.601 34 286.701 33.7Z" fill="white"/>
<path d="M270.102 365.2C269.802 365.2 269.602 365 269.602 364.7C269.602 363.9 271.002 280.3 270.702 275.4C270.402 270.4 288.002 216.6 288.702 214.3C288.802 214 289.102 213.9 289.302 214C289.602 214.1 289.702 214.4 289.602 214.6C283.302 233.9 271.402 271.5 271.602 275.3C271.902 280.2 270.602 361.2 270.502 364.6C270.602 365 270.402 365.2 270.102 365.2Z" fill="#63636C"/>
<path d="M274.3 365.9L251.9 364.1C251.6 364.1 251.4 363.8 251.4 363.6C251.4 363.3 251.7 363.1 251.9 363.1L274.2 364.9C274.5 364.9 274.7 365.2 274.7 365.4C274.7 365.7 274.5 365.9 274.3 365.9Z" fill="#63636C"/>
<path d="M248.102 274.4C245.002 274.4 243.102 274.1 243.002 274.1C242.702 274.1 242.602 273.8 242.602 273.5C242.602 273.2 242.902 273.1 243.202 273.1C243.202 273.1 247.602 273.8 253.602 273.1C253.902 273.1 254.102 273.3 254.102 273.5C254.102 273.8 253.902 274 253.702 274C251.502 274.4 249.602 274.4 248.102 274.4Z" fill="#63636C"/>
<path d="M18.0004 172.6C13.0004 172.6 8.90039 168.5 8.90039 163.5C8.90039 158.5 13.0004 154.4 18.0004 154.4C23.0004 154.4 27.1004 158.5 27.1004 163.5C27.1004 168.5 23.0004 172.6 18.0004 172.6ZM18.0004 155.9C13.8004 155.9 10.4004 159.3 10.4004 163.5C10.4004 167.7 13.8004 171.1 18.0004 171.1C22.2004 171.1 25.6004 167.7 25.6004 163.5C25.6004 159.3 22.2004 155.9 18.0004 155.9Z" fill="#CEB899"/>
<path d="M339.301 18.2C334.301 18.2 330.201 14.1 330.201 9.1C330.201 4.1 334.301 0 339.301 0C344.301 0 348.401 4.1 348.401 9.1C348.401 14.1 344.301 18.2 339.301 18.2ZM339.301 1.5C335.101 1.5 331.701 4.9 331.701 9.1C331.701 13.3 335.101 16.7 339.301 16.7C343.501 16.7 346.901 13.3 346.901 9.1C346.901 4.9 343.501 1.5 339.301 1.5Z" fill="#CEB899"/>
<path d="M526.301 171.9C521.301 171.9 517.201 167.8 517.201 162.8C517.201 157.8 521.301 153.7 526.301 153.7C531.301 153.7 535.401 157.8 535.401 162.8C535.401 167.8 531.301 171.9 526.301 171.9ZM526.301 155.2C522.101 155.2 518.701 158.6 518.701 162.8C518.701 167 522.101 170.4 526.301 170.4C530.501 170.4 533.901 167 533.901 162.8C533.901 158.6 530.501 155.2 526.301 155.2Z" fill="#CEB899"/>
<path d="M421.201 46.1C417.501 46.1 414.701 44.2 414.701 40.4C414.701 37.3 417.001 35.3 420.401 35.2L420.601 33.3H425.801L426.001 38.9H423.801C421.801 38.9 420.501 39.3 420.601 40.4C420.601 41 421.001 41.4 421.501 41.4C422.301 41.4 422.501 40.8 422.501 40.2H428.001C428.001 43.3 425.901 46.1 421.201 46.1ZM423.101 25.5C425.201 25.5 426.501 26.8 426.501 28.4C426.501 30 425.201 31.3 423.101 31.3C421.001 31.3 419.801 30 419.801 28.4C419.701 26.8 421.001 25.5 423.101 25.5Z" fill="#CEB899"/>
<path d="M490.8 62.5H496.3C496.3 63.1 496.6 63.7 497.3 63.7C497.8 63.7 498.2 63.4 498.2 62.7C498.3 61.6 497 61.2 495 61.2H492.8L493 55.6H498.2L498.4 57.5C501.7 57.6 504.1 59.6 504.1 62.7C504.1 66.6 501.4 68.4 497.6 68.4C492.8 68.4 490.7 65.6 490.8 62.5ZM499 50.7C499 52.3 497.7 53.6 495.7 53.6C493.6 53.6 492.3 52.3 492.3 50.7C492.3 49.1 493.6 47.8 495.7 47.8C497.7 47.8 499 49.1 499 50.7Z" fill="#CEB899"/>
<path d="M146.801 14C150.301 14 152.901 15.7 152.901 19.4C152.901 22.3 150.701 24.2 147.601 24.3L147.501 26H142.701L142.601 20.8H144.701C146.601 20.8 147.801 20.4 147.701 19.4C147.701 18.8 147.301 18.5 146.801 18.5C146.101 18.5 145.801 19 145.801 19.6H140.701C140.401 16.6 142.401 14 146.801 14ZM145.101 33.2C143.201 33.2 141.901 32 141.901 30.5C141.901 29 143.101 27.8 145.101 27.8C147.001 27.8 148.201 29 148.201 30.5C148.201 32 147.001 33.2 145.101 33.2Z" fill="#2C2F37"/>
<path d="M132.5 33.2C129 33.2 126.4 31.5 126.4 27.8C126.4 24.9 128.6 23 131.7 22.9L131.8 21.2H136.6L136.7 26.4H134.6C132.7 26.4 131.5 26.8 131.6 27.8C131.6 28.4 132 28.7 132.5 28.7C133.2 28.7 133.5 28.2 133.5 27.6H138.6C138.9 30.6 136.9 33.2 132.5 33.2ZM134.2 14C136.1 14 137.4 15.2 137.4 16.7C137.4 18.2 136.2 19.4 134.2 19.4C132.3 19.4 131.1 18.2 131.1 16.7C131.1 15.1 132.3 14 134.2 14Z" fill="#2C2F37"/>
<path d="M206.5 17.1H232.1C233.8 17.1 235.1 18.5 235.1 20.1V38.8C235.1 40.5 233.7 41.8 232.1 41.8H206.5C204.8 41.8 203.5 40.4 203.5 38.8V20.2C203.5 18.5 204.8 17.1 206.5 17.1Z" fill="#467B6C"/>
<path d="M219.899 21.3C223.099 21.3 225.399 22.9 225.399 26.2C225.399 28.9 223.399 30.6 220.599 30.6L220.499 32.2H216.099L215.999 27.4H217.899C219.599 27.4 220.699 27.1 220.599 26.1C220.599 25.6 220.199 25.3 219.799 25.3C219.099 25.3 218.899 25.8 218.899 26.3H214.199C214.099 23.7 215.899 21.3 219.899 21.3ZM218.399 38.9C216.599 38.9 215.499 37.8 215.499 36.5C215.499 35.1 216.599 34 218.399 34C220.199 34 221.299 35.1 221.299 36.5C221.199 37.8 220.099 38.9 218.399 38.9Z" fill="white"/>
<path d="M209.199 41.9L212.299 50.5L216.599 41.9H209.199Z" fill="#467B6C"/>
<path d="M537.2 77.8C545.374 77.8 552 71.1738 552 63C552 54.8262 545.374 48.2 537.2 48.2C529.027 48.2 522.4 54.8262 522.4 63C522.4 71.1738 529.027 77.8 537.2 77.8Z" fill="#D03F23"/>
<path d="M533.701 74.1L539.101 84.4L543.301 73.6L533.701 74.1Z" fill="#D03F23"/>
<path d="M532.7 63C532.7 64.3 531.6 65.3 530.4 65.3C529.1 65.3 528.1 64.2 528.1 63C528.1 61.8 529.2 60.7 530.4 60.7C531.7 60.6 532.7 61.7 532.7 63Z" fill="white"/>
<path d="M546.399 63C546.399 64.3 545.299 65.3 544.099 65.3C542.899 65.3 541.799 64.2 541.799 63C541.799 61.8 542.899 60.7 544.099 60.7C545.299 60.7 546.399 61.7 546.399 63Z" fill="white"/>
<path d="M539.6 63C539.6 64.3 538.5 65.3 537.3 65.3C536 65.3 535 64.2 535 63C535 61.8 536.1 60.7 537.3 60.7C538.5 60.6 539.6 61.7 539.6 63Z" fill="white"/>
<path d="M487.2 83.1C487.2 83.1 500 111.5 505.5 118.6C505.5 118.6 518.3 113.7 525.7 108.5C533 103.3 533.4 105 533.4 105C533.4 105 537.5 107.9 538.6 112.1C539.7 116.2 514.4 141 501.7 141C492.3 141 479.5 118.4 479.5 118.4L487.2 83.1Z" fill="#467B6C"/>
<path d="M531.599 119.1C532.096 119.1 532.499 118.697 532.499 118.2C532.499 117.703 532.096 117.3 531.599 117.3C531.102 117.3 530.699 117.703 530.699 118.2C530.699 118.697 531.102 119.1 531.599 119.1Z" fill="#253F3D"/>
<path d="M524.001 109.7C523.301 114.9 526.101 120.2 531.001 122.3C531.401 122.5 531.601 121.8 531.201 121.6C526.601 119.7 524.101 114.6 524.701 109.8C524.801 109.2 524.001 109.2 524.001 109.7Z" fill="#253F3D"/>
<path d="M532.001 112.6C529.801 114 527.801 115.7 526.001 117.7C525.701 118 526.201 118.6 526.501 118.2C528.201 116.3 530.201 114.7 532.301 113.3C532.801 113 532.401 112.4 532.001 112.6Z" fill="#253F3D"/>
<path d="M505.101 118.4C503.401 119.7 501.901 121.2 500.701 123.1C500.401 123.5 501.101 123.9 501.301 123.5C502.401 121.8 503.801 120.3 505.401 119.1C505.801 118.7 505.501 118.1 505.101 118.4Z" fill="#64653D"/>
<path d="M504.099 119.2C503.099 119.1 502.199 119.1 501.199 119.2C500.699 119.2 500.699 120 501.199 119.9C502.199 119.8 503.099 119.8 504.099 119.9C504.499 120 504.499 119.3 504.099 119.2Z" fill="#64653D"/>
<path d="M498.701 139.7C501.501 135.6 507.001 134.8 510.801 137.9C511.201 138.2 511.701 137.7 511.301 137.4C507.101 134 501.001 134.9 498.001 139.3C497.801 139.7 498.401 140.1 498.701 139.7Z" fill="#253F3D"/>
<path d="M532.399 114.3L530.199 111.5C530.199 111.5 528.599 107.5 530.199 105.6C534.699 100.1 542.699 98.3 542.999 100.1C542.999 100.4 544.899 110.1 544.899 110.1L540.899 115.5L532.399 114.3Z" fill="#FE8C68"/>
<path d="M540.699 116.3H531.199C529.599 116.3 528.799 114.6 529.599 113L539.799 92.7C540.399 91.6 541.499 90.8 542.599 90.8H552.099C553.699 90.8 554.499 92.5 553.699 94.1L543.499 114.4C542.899 115.6 541.699 116.3 540.699 116.3Z" fill="#2C2F37"/>
<path d="M541.599 116.3H532.099C530.499 116.3 529.699 114.6 530.499 113L540.699 92.7C541.299 91.6 542.399 90.8 543.499 90.8H552.999C554.599 90.8 555.399 92.5 554.599 94.1L544.399 114.4C543.799 115.6 542.699 116.3 541.599 116.3Z" fill="white"/>
<path d="M545.598 103.6C545.098 104.9 543.898 105.9 542.898 105.9C541.898 105.9 541.498 104.9 541.998 103.6C542.498 102.3 543.698 101.3 544.698 101.3C545.698 101.3 546.098 102.4 545.598 103.6Z" fill="#2C2F37"/>
<path d="M543.9 94.1C543.6 94.8 542.9 95.4 542.4 95.4C541.8 95.4 541.6 94.8 541.9 94.1C542.2 93.4 542.9 92.8 543.4 92.8C543.9 92.8 544.2 93.4 543.9 94.1Z" fill="#2C2F37"/>
<path d="M550.299 102.3C550.299 102.3 544.499 100.2 543.199 101.2C541.899 102.1 547.499 105.1 547.499 105.1C547.499 105.1 543.999 104 542.899 104.5C541.799 105.1 545.699 107.7 545.699 107.7C545.699 107.7 543.299 107 542.899 108.3C542.399 109.6 543.199 110.3 544.399 111C545.599 111.7 546.999 111.6 547.699 111.2C548.399 110.8 548.299 109.4 548.299 109.4C548.299 109.4 550.899 109 551.199 108.1C551.499 107.2 551.099 106.5 551.099 106.5C551.099 106.5 552.199 106.6 552.899 105.7C553.599 104.8 553.299 104 553.299 104C553.299 104 554.799 102.4 555.399 101.3C555.999 100.3 554.299 98.8 553.299 97.8C552.299 96.8 549.499 98.6 547.399 98.4C547.399 98.4 546.199 98.7 547.099 99.8C547.899 100.9 550.599 100.4 551.099 100.6C551.399 100.9 550.299 102.3 550.299 102.3Z" fill="#FE8C68"/>
<path d="M444.899 39.3C444.899 39.3 445.099 49.9 435.899 56.8C426.699 63.7 413.999 61.8 409.699 77.3C406.699 88.2 415.299 95.7 429.399 97C443.499 98.3 448.599 79 462.999 89.2C477.299 99.3 483.899 94.9 484.099 86.5C484.299 78.1 476.199 71.5 475.799 60.8C475.399 50 479.299 40 479.299 40L444.899 39.3Z" fill="#D03F23"/>
<path d="M442.799 49C443.899 45.9 444.699 42.6 444.999 39.3C445.199 36.9 445.599 34.1 446.399 31.2C447.199 28.3 448.599 25.9 450.299 24.1C455.799 18.1 464.899 17.1 471.899 21.4C475.299 23.5 479.699 25.3 480.899 32.8C481.699 37.6 475.699 48.1 472.399 58.2L442.799 49Z" fill="#D03F23"/>
<path d="M463.699 19.8C463.699 19.8 468.599 12.3 462.499 9.19998C456.399 6.09998 454.299 11.1 454.299 11.1C454.299 11.1 449.599 10.1 447.899 15C446.199 19.9 450.799 21.9 452.199 22.4C453.699 22.8 463.699 19.8 463.699 19.8Z" fill="#D03F23"/>
<path d="M463.6 19.4C459.9 18.9 456.2 19.9 453.4 22.3C452.8 22.8 452.1 21.9 452.6 21.5C455.6 18.9 459.7 17.8 463.6 18.3C464.3 18.4 464.3 19.5 463.6 19.4Z" fill="#2C2F37"/>
<path d="M472.8 50.8C473.5 51.3 473.9 52.5 473.8 53.8C473.6 55.5 472.5 56.7 471.3 56.6C470.1 56.4 469.4 55 469.6 53.3C469.7 52.2 470.3 51.3 470.9 50.8C470.8 50.7 470.8 50.6 470.7 50.4C470.7 50.4 470.7 50.3 470.6 50.3C469.8 50.8 469.1 51.9 469 53.2C468.7 55.2 469.701 56.9 471.201 57.1C472.701 57.3 474.1 55.8 474.3 53.9C474.5 52.2 473.8 50.6 472.6 50.1C472.6 50.1 472.4 50.4 472.8 50.8Z" fill="white"/>
<path d="M476.4 99.4C476.3 99.7 476.2 99.9 476.1 100.2C475.2 102.9 474.3 105.8 473.6 109.1C473.5 109.4 473.5 109.7 473.4 110C473 111.9 472.7 114 472.5 116.2C472.5 116.5 472.4 116.8 472.4 117.1C472.1 120.3 472.1 123.8 472.4 127.5C472.5 128.5 471 129.3 468.7 129.9C468.4 130 468.1 130.1 467.7 130.1C464.5 130.8 460 131.3 455.4 131.4C455 131.4 454.7 131.4 454.3 131.4C444.7 131.5 434.6 129.9 433.7 126.1C433.4 124.9 432.8 122.7 431.9 120C427.4 105.6 417.3 74.8 422.4 71.7C428.5 68 448.2 60.8 448.2 60.8L462.2 64.1C462.2 64.1 464.8 65.5 468.1 67.6C468.3 67.7 468.5 67.9 468.8 68C474.2 71.4 481 76.4 481.9 80.1C483.1 85.1 479.5 90.8 476.4 99.4Z" fill="white"/>
<path d="M476.7 141.7C446.9 158.8 428.9 143.3 428.9 143.3C433.4 129.2 431.7 119.9 431.7 119.9H431.9L457.5 124.6L458.3 124.8L464.2 125.9L465.2 126.1L472.3 127.4L473.7 132.2L474 133.1L476.7 141.7Z" fill="white"/>
<path d="M439.4 67.3C447.9 66.2 456.8 70.9 460.2 78.9C463.2 85.9 460.3 95.2 452.6 97.6C452.1 97.8 452.3 98.5 452.8 98.4C458.6 96.6 462.4 90.7 462.3 84.7C462.2 78 457.6 71.9 451.8 68.8C448 66.8 443.7 66 439.4 66.5C438.9 66.5 438.9 67.3 439.4 67.3Z" fill="#2C2F37"/>
<path d="M476.4 99.4C476.3 99.7 476.2 99.9 476.1 100.2C472 96.8 468.8 92.2 467.2 87C465.8 82.8 465.5 78.3 466.1 73.9C466.4 71.9 466.9 69.2 468.3 67.5C469 66.7 469.9 66.1 471.1 65.9C471.6 65.8 471.6 66.7 471.1 66.7C470.2 66.8 469.5 67.2 468.9 67.9C467 70 466.7 74.5 466.6 76.7C466.4 80.7 467.1 84.7 468.6 88.5C470.2 92.8 473 96.5 476.4 99.4Z" fill="#2C2F37"/>
<path d="M473.601 109.1C473.501 109.4 473.501 109.7 473.401 110C471.501 108.6 469.601 107.4 467.501 106.4C463.801 104.7 459.601 103.8 455.601 104.8C451.901 105.8 448.601 108.2 447.301 111.9C447.101 112.4 446.301 112.2 446.501 111.7C449.101 104.1 458.401 102.2 465.201 104.6C468.401 105.6 471.101 107.2 473.601 109.1Z" fill="#2C2F37"/>
<path d="M443.701 117.8C445.501 114.8 449.201 114 452.201 115.3C455.201 116.6 457.301 119.4 457.601 122.7C458.201 129.7 452.201 134.7 445.901 136.1C445.401 136.2 445.601 137 446.101 136.9C453.301 135.4 460.201 129 458.101 121C457.301 117.8 454.601 115.1 451.401 114.2C448.201 113.3 444.701 114.5 442.901 117.4C442.701 117.8 443.401 118.2 443.701 117.8Z" fill="#2C2F37"/>
<path d="M474.801 118.4C474.101 118 473.301 117.5 472.501 117C470.201 115.8 467.501 115 465.401 116.8C463.001 118.9 463.801 122.8 465.101 125.3C465.201 125.6 465.401 125.8 465.501 126.1C466.401 127.6 467.501 128.9 468.801 129.8C470.301 131 472.101 131.7 474.001 132.1L474.301 133C471.901 132.6 469.701 131.6 467.901 130C466.501 128.9 465.401 127.5 464.501 125.8C464.201 125.2 463.901 124.6 463.701 124C462.701 121.2 462.701 117.2 465.601 115.5C467.901 114.2 470.401 114.8 472.601 115.9C473.501 116.4 474.401 116.9 475.201 117.4C475.601 118 475.201 118.7 474.801 118.4Z" fill="#2C2F37"/>
<path d="M477.101 86.5C477.101 86.5 476.901 90.4 481.101 97.6C486.201 106.2 473.601 114.5 471.101 116.5C468.601 118.5 477.101 86.5 477.101 86.5Z" fill="white"/>
<path d="M430.499 95.6C437.299 106.1 439.899 118.9 437.799 131.2C437.699 131.6 438.399 131.7 438.499 131.3C440.699 118.8 437.999 105.8 431.099 95.2C430.799 94.9 430.299 95.3 430.499 95.6Z" fill="#2C2F37"/>
<path d="M447.799 63.2C447.799 63.2 455.499 71.3 464.599 66L464.399 60.9L464.199 55.3L464.099 51.4L453.499 43.1L447.799 63.2Z" fill="#FE8C68"/>
<path d="M455.199 49.7C458.699 59.8 462.999 63.8 464.599 63.8L464.299 55.3L455.199 49.7Z" fill="#2C2F37"/>
<path d="M451.399 39.3C451.599 43.3 452.399 44.7 454.299 48.9C455.999 52.7 459.799 55.2 461.999 55.9C469.599 58.3 473.999 55.9 475.399 45.2C476.299 38.5 478.899 35.3 477.799 32.3C477.699 32.2 477.599 32 477.499 31.9C475.399 28.6 471.999 26.3 468.199 25.4C449.399 21 450.999 33.7 451.399 39.3Z" fill="#FE8C68"/>
<path d="M465.199 47.9C466.799 48 468.199 48.7 469.099 50C469.399 50.4 469.999 50 469.699 49.6C468.599 48.1 466.999 47.3 465.199 47.2C464.699 47.2 464.699 47.9 465.199 47.9Z" fill="#2C2F37"/>
<path d="M477.199 40.2C477.199 40.2 480.799 35.3 479.899 31.1C478.999 26.9 474.199 23.2 474.199 23.2C474.199 23.2 471.799 22.9 471.699 27.8C471.699 27.9 478.199 32.3 477.199 40.2Z" fill="#D03F23"/>
<path d="M473.799 28.6C473.799 28.6 473.099 33.6 468.199 33.9C468.199 33.9 470.999 31.1 470.499 28.5C470.499 28.5 466.699 36 459.599 34C459.599 34 458.299 40.1 455.899 40.4C453.599 40.7 449.699 37.3 449.999 32.4C450.299 27.6 455.899 21.2 464.599 22.4C473.399 23.5 473.799 28.6 473.799 28.6Z" fill="#D03F23"/>
<path d="M467.999 52.3C467.199 52.4 466.299 52.2 465.799 51.5C465.499 51.1 466.099 50.8 466.399 51.1C466.799 51.6 467.399 51.6 467.899 51.6C468.399 51.6 468.499 52.3 467.999 52.3Z" fill="#B4572A"/>
<path d="M460.799 42.5C460.699 43.1 461.499 43.7 462.599 43.9C463.699 44.1 464.699 43.8 464.799 43.3C464.899 42.7 464.099 42.1 462.999 41.9C461.899 41.7 460.999 42 460.799 42.5Z" fill="#B4572A"/>
<path d="M471.999 45.3C471.899 45.9 472.699 46.5 473.799 46.7C474.299 46.8 474.799 46.8 475.199 46.7C475.299 46.2 475.399 45.7 475.399 45.2C475.399 45.2 475.399 45.2 475.399 45.1C475.099 44.9 474.699 44.7 474.199 44.6C473.099 44.5 472.099 44.8 471.999 45.3Z" fill="#B4572A"/>
<path d="M465.899 40.3C465.799 40.8 465.999 41.3 466.399 41.4C466.799 41.5 467.199 41.1 467.299 40.6C467.399 40.1 467.199 39.6 466.799 39.5C466.399 39.4 465.999 39.8 465.899 40.3Z" fill="#2C2F37"/>
<path d="M472.299 41.9C472.199 42.4 472.399 42.9 472.799 43C473.199 43.1 473.599 42.7 473.699 42.2C473.799 41.7 473.599 41.2 473.199 41.1C472.799 41 472.399 41.4 472.299 41.9Z" fill="#2C2F37"/>
<path d="M469.199 45.7C468.899 45.7 468.499 45.7 468.099 45.6C467.899 45.6 467.799 45.4 467.899 45.2C467.899 45 468.099 44.9 468.299 45C468.899 45.2 469.399 45.1 469.799 45C469.099 43.8 468.999 42.4 468.999 42.3C468.999 42.1 469.099 42 469.299 42C469.499 42 469.599 42.1 469.599 42.3C469.599 42.3 469.699 43.9 470.499 45C470.599 45.1 470.599 45.2 470.599 45.3C470.599 45.4 470.499 45.5 470.399 45.5C470.399 45.4 469.999 45.7 469.199 45.7Z" fill="#2C2F37"/>
<path d="M458.199 43.8C458.899 42.5 458.998 41 458.398 39.6C457.698 37.8 456.298 35 454.398 34.9C451.598 34.7 450.899 37.1 450.599 39.5C450.399 42 451.298 45.5 454.798 45.6C456.598 45.8 457.599 44.9 458.199 43.8Z" fill="#FE8C68"/>
<path d="M453.299 43.5C453.999 44 454.399 45.2 454.299 46.5C454.099 48.2 452.999 49.4 451.799 49.3C450.599 49.2 449.899 47.7 450.099 46C450.199 44.9 450.799 44 451.399 43.5C451.299 43.4 451.299 43.3 451.199 43.1C451.199 43.1 451.199 43 451.099 43C450.299 43.5 449.599 44.6 449.499 45.9C449.199 47.9 450.199 49.6 451.699 49.8C453.199 50 454.599 48.5 454.799 46.6C454.999 44.9 454.299 43.3 453.099 42.8C453.199 42.8 452.899 43.1 453.299 43.5Z" fill="white"/>
<path d="M454.599 42.7C454.899 41.7 455.199 40.7 455.099 39.7C454.999 38.8 454.299 37.3 453.099 37.5C452.699 37.5 452.599 36.9 452.999 36.9C454.099 36.8 454.999 37.6 455.399 38.6C455.999 40 455.699 41.6 455.199 42.9C455.099 43.3 454.499 43.1 454.599 42.7Z" fill="#2C2F37"/>
<path d="M483.3 350.2L482.9 382.1L493 382.3L497.3 351.6L483.3 350.2Z" fill="#FE8C68"/>
<path d="M489.7 382.1C489.7 382.1 492.7 376.8 494.8 377.6C496.9 378.4 499.3 383.8 499.3 383.8C499.3 383.8 510.3 387.7 513.4 387.9C516.5 388.1 519.2 390.1 520.4 397H483C483 397 481.5 381.4 481.3 378.8C481.1 376.1 484.4 381 484.4 381L489.7 382.1Z" fill="#E2809B"/>
<path d="M482.699 388.3C486.399 389.2 490.199 389.6 493.999 389.5C495.899 389.4 497.799 389.1 499.599 389.5C501.499 389.9 503.299 391.4 503.099 393.5C503.099 394 503.899 394 503.899 393.5C504.199 389.9 500.299 388.5 497.299 388.5C494.999 388.5 492.799 388.7 490.499 388.6C487.899 388.5 485.299 388.1 482.799 387.5C482.399 387.4 482.199 388.2 482.699 388.3Z" fill="#AC4477"/>
<path d="M514.4 388.4C511.5 388.7 509.3 391.2 509.1 394.2C509.1 394.7 509.8 394.7 509.8 394.2C509.9 391.7 511.8 389.5 514.3 389.2C514.9 389.1 514.9 388.4 514.4 388.4Z" fill="#AC4477"/>
<path d="M483.001 397C483.001 397 480.701 393.7 482.501 391.7C484.301 389.7 490.101 390.3 494.001 392C496.201 393 502.001 393.9 504.101 393.5C506.301 393.2 515.201 392.6 519.301 393.4C519.301 393.4 521.901 394.5 520.501 397H483.001Z" fill="white"/>
<path d="M487.9 157C487.9 157 498.5 195.7 506.2 261.5C501.2 349.1 498.3 356.5 498.3 356.5H482.3C482.3 356.5 476.2 272.3 473 260.6C469.2 247.1 444 171.1 444 171.1L487.9 157Z" fill="#6059C9"/>
<path d="M484.8 353.6V352.9C484.8 352.7 485 352.5 485.2 352.5C485.4 352.5 485.6 352.7 485.6 352.9C485.6 353.6 485.6 353.6 485.6 353.6C485.6 353.8 485.4 354 485.2 354C485 353.9 484.9 353.8 484.8 353.6ZM484.6 349.3L484.4 345.8C484.4 345.6 484.6 345.4 484.8 345.4C485 345.4 485.2 345.6 485.2 345.8L485.4 349.3C485.4 349.5 485.2 349.7 485 349.7C484.8 349.7 484.6 349.5 484.6 349.3ZM484.2 342.2L484 338.7C484 338.5 484.2 338.3 484.4 338.3C484.6 338.3 484.8 338.5 484.8 338.7L485 342.2C485 342.4 484.8 342.6 484.6 342.6C484.4 342.6 484.3 342.4 484.2 342.2ZM483.9 335.2L483.7 331.7C483.7 331.5 483.9 331.3 484.1 331.3C484.3 331.3 484.5 331.5 484.5 331.7L484.7 335.2C484.7 335.4 484.5 335.6 484.3 335.6C484.1 335.5 483.9 335.4 483.9 335.2ZM483.5 328.1L483.3 324.6C483.3 324.4 483.5 324.2 483.7 324.2C483.9 324.2 484.1 324.4 484.1 324.6L484.3 328.1C484.3 328.3 484.1 328.5 483.9 328.5C483.7 328.5 483.5 328.3 483.5 328.1ZM483.1 321L482.9 317.5C482.9 317.3 483.1 317.1 483.3 317.1C483.5 317.1 483.7 317.3 483.7 317.5L483.9 321C483.9 321.2 483.7 321.4 483.5 321.4C483.3 321.4 483.1 321.2 483.1 321ZM482.7 314C482.6 312.8 482.6 311.6 482.5 310.5C482.5 310.3 482.7 310.1 482.9 310.1C483.1 310.1 483.3 310.3 483.3 310.5C483.4 311.7 483.4 312.9 483.5 314C483.5 314.2 483.3 314.4 483.1 314.4C482.9 314.4 482.7 314.2 482.7 314ZM482.3 306.9C482.2 305.7 482.2 304.5 482.1 303.4C482.1 303.2 482.3 303 482.5 303C482.7 303 482.9 303.2 482.9 303.4C483 304.6 483 305.7 483.1 306.9C483.1 307.1 482.9 307.3 482.7 307.3C482.5 307.3 482.3 307.1 482.3 306.9ZM481.8 299.8C481.7 298.6 481.7 297.4 481.6 296.3C481.6 296.1 481.8 295.9 482 295.9C482.2 295.9 482.4 296.1 482.4 296.3C482.5 297.5 482.5 298.6 482.6 299.8C482.6 300 482.4 300.2 482.2 300.2C482 300.2 481.9 300.1 481.8 299.8ZM481.4 292.8C481.3 291.6 481.2 290.4 481.2 289.3C481.2 289.1 481.4 288.9 481.6 288.9C481.8 288.9 482 289.1 482 289.3C482.1 290.5 482.2 291.6 482.2 292.8C482.2 293 482 293.2 481.8 293.2C481.6 293.2 481.4 293 481.4 292.8ZM480.9 285.7C480.8 284.5 480.7 283.3 480.7 282.2C480.7 282 480.9 281.8 481.1 281.8C481.3 281.8 481.5 282 481.5 282.2C481.6 283.3 481.7 284.5 481.7 285.7C481.7 285.9 481.5 286.1 481.3 286.1C481.1 286.1 481 285.9 480.9 285.7ZM480.5 278.7C480.4 277.5 480.3 276.3 480.2 275.2C480.2 275 480.4 274.8 480.6 274.8C480.8 274.8 481 274.9 481 275.2C481.1 276.3 481.2 277.5 481.3 278.7C481.3 278.9 481.1 279.1 480.9 279.1C480.6 279 480.5 278.9 480.5 278.7ZM479.9 271.6C479.8 270.3 479.7 269.1 479.6 268.1C479.6 267.9 479.7 267.7 480 267.7C480.2 267.7 480.4 267.8 480.4 268.1C480.5 269.1 480.6 270.3 480.7 271.6C480.7 271.8 480.6 272 480.3 272C480.1 272 479.9 271.8 479.9 271.6ZM479.2 264.6C479.1 264.2 479.1 263.8 479 263.6C478.9 263.1 478.7 262.3 478.4 261.2C478.3 261 478.5 260.8 478.7 260.7C478.9 260.6 479.1 260.8 479.2 261C479.5 262 479.7 262.9 479.8 263.4C479.9 263.7 479.9 264 480 264.5C480 264.7 479.9 264.9 479.7 265C479.7 265 479.7 265 479.6 265C479.4 264.9 479.2 264.8 479.2 264.6ZM477.4 257.8C477.1 256.8 476.7 255.6 476.3 254.4C476.2 254.2 476.4 254 476.6 253.9C476.8 253.8 477 254 477.1 254.2C477.5 255.4 477.8 256.5 478.2 257.6C478.3 257.8 478.1 258 477.9 258.1H477.8C477.6 258.1 477.4 258 477.4 257.8ZM475.2 251C474.9 249.9 474.5 248.8 474.1 247.6C474 247.4 474.1 247.2 474.4 247.1C474.6 247 474.8 247.1 474.9 247.4C475.3 248.6 475.6 249.7 476 250.8C476.1 251 476 251.2 475.7 251.3H475.6C475.5 251.3 475.3 251.2 475.2 251ZM473.1 244.3C472.7 243.2 472.4 242.1 472 240.9C471.9 240.7 472 240.5 472.3 240.4C472.5 240.3 472.7 240.4 472.8 240.7C473.2 241.8 473.5 243 473.9 244.1C474 244.3 473.9 244.5 473.6 244.6H473.5C473.3 244.6 473.1 244.5 473.1 244.3ZM470.9 237.6C470.5 236.5 470.2 235.4 469.8 234.2C469.7 234 469.8 233.8 470.1 233.7C470.3 233.6 470.5 233.7 470.6 234C471 235.1 471.3 236.2 471.7 237.4C471.8 237.6 471.7 237.8 471.4 237.9H471.3C471.1 237.9 470.9 237.8 470.9 237.6ZM468.6 230.9C468.2 229.8 467.8 228.6 467.5 227.5C467.4 227.3 467.5 227.1 467.8 227C468 226.9 468.2 227 468.3 227.3C468.7 228.4 469 229.5 469.4 230.7C469.5 230.9 469.4 231.1 469.1 231.2H469C468.8 231.2 468.7 231.1 468.6 230.9ZM466.4 224.2C466 223 465.6 221.9 465.3 220.8C465.2 220.6 465.3 220.4 465.6 220.3C465.8 220.2 466 220.3 466.1 220.6C466.5 221.7 466.8 222.8 467.2 224C467.3 224.2 467.2 224.4 466.9 224.5H466.8C466.6 224.5 466.4 224.3 466.4 224.2ZM464.1 217.5C463.7 216.3 463.3 215.2 463 214.1C462.9 213.9 463 213.7 463.3 213.6C463.5 213.5 463.7 213.6 463.8 213.9C464.1 214.9 464.5 216.1 464.9 217.3C465 217.5 464.9 217.7 464.6 217.8H464.5C464.3 217.7 464.2 217.6 464.1 217.5ZM461.8 210.8C461.1 208.7 460.7 207.4 460.7 207.4C460.6 207.2 460.7 207 461 206.9C461.2 206.8 461.4 206.9 461.5 207.2C461.5 207.2 461.9 208.4 462.6 210.6C462.7 210.8 462.6 211 462.3 211.1H462.2C462 211 461.9 210.9 461.8 210.8Z" fill="#221D58"/>
<path d="M505.9 266.3C506 264.7 506.1 263.1 506.2 261.5C506 259.8 505.8 258.1 505.6 256.5C499.6 256.4 493.8 256.7 489.8 259.4C484.9 262.6 496 267.7 505.9 266.3Z" fill="#FE8C68"/>
<path d="M499.399 355.3L480.199 353.6V362.9L498.999 364.6L499.399 355.3Z" fill="#221D58"/>
<path d="M473.4 130.4C473.4 130.4 454.1 142.5 431.1 135.3C431.1 135.3 423.6 155.3 424.7 167.9C425.8 180.4 480.6 172.6 487.4 161.8C491.6 155.4 473.4 130.4 473.4 130.4Z" fill="#6059C9"/>
<path d="M439.199 145.8C437.999 153.9 432.699 161 425.399 164.6C424.899 164.8 424.499 164.1 424.999 163.9C432.199 160.4 437.299 153.5 438.499 145.6C438.499 145 439.299 145.2 439.199 145.8Z" fill="#221D58"/>
<path d="M470.499 145.3C472.899 152.6 479.799 157.9 487.499 158.3C487.999 158.3 487.999 159.1 487.499 159.1C479.499 158.6 472.299 153.1 469.699 145.5C469.599 145 470.299 144.8 470.499 145.3Z" fill="#221D58"/>
<path d="M475.3 135.1C462.1 144 445 146.5 429.8 141.8C429.4 141.7 429.1 142.3 429.6 142.4C441.6 146.1 454.7 145.4 466.3 140.6C469.6 139.2 472.8 137.5 475.7 135.6C476.1 135.4 475.7 134.9 475.3 135.1Z" fill="#221D58"/>
<path d="M469.8 132.9C470.7 134.2 471.4 135.7 471.7 137.3C471.8 137.7 472.5 137.6 472.4 137.2C472 135.5 471.4 133.9 470.4 132.5C470.1 132.1 469.6 132.6 469.8 132.9Z" fill="#221D58"/>
<path d="M437.4 137.2C436.8 139.2 436.6 141.3 436.6 143.4C436.6 143.8 437.3 143.7 437.3 143.3C437.2 141.3 437.5 139.4 438 137.4C438.2 137 437.5 136.8 437.4 137.2Z" fill="#221D58"/>
<path d="M449.901 138C449.501 139.9 449.601 141.8 449.901 143.7C450.001 144.1 450.701 144 450.601 143.6C450.201 141.7 450.201 139.9 450.601 138C450.701 137.6 450.001 137.5 449.901 138Z" fill="#221D58"/>
<path d="M456.999 139.5C457.099 140.4 457.999 141 458.899 140.9C459.799 140.8 460.399 139.9 460.299 139C460.199 138.1 459.299 137.5 458.399 137.6C457.399 137.7 456.799 138.6 456.999 139.5Z" fill="#221D58"/>
<path d="M448.699 353.5L449.099 383.2L439.799 383.4L435.799 354.8L448.699 353.5Z" fill="#FE8C68"/>
<path d="M425.601 394.3C425.601 394.5 425.601 394.8 425.701 395.1C425.801 395.7 425.901 396.4 426.101 397H453.101C453.101 397 453.001 396.4 453.001 395.4C453.001 395.2 453.001 394.9 452.901 394.6C452.601 391.1 451.801 384.7 451.001 382.4C449.701 379.1 448.101 383 448.101 383C448.101 383 446.201 379.7 441.801 379.4C440.101 379.3 437.901 380.5 437.201 382.2C436.901 381.5 437.101 380.4 436.601 380.6C435.601 381 434.301 385.3 434.301 385.5C433.101 386.7 431.501 388.1 430.201 388.3C427.601 388.5 425.501 390.8 425.601 394.3Z" fill="#E2809B"/>
<path d="M447.401 394.1C447.701 391.1 449.201 388.3 451.701 386.5C452.001 386.3 451.701 385.7 451.401 386C448.701 387.9 447.101 390.9 446.801 394.1C446.801 394.5 447.401 394.5 447.401 394.1Z" fill="#AC4477"/>
<path d="M431.201 388.5C435.701 387.7 440.101 390.2 441.701 394.5C441.801 394.9 442.401 394.7 442.301 394.3C440.601 389.7 435.901 387 431.001 387.9C430.701 388 430.801 388.6 431.201 388.5Z" fill="#AC4477"/>
<path d="M426.1 397C426.1 397 424.9 396.1 425.6 394.3C426.3 392.5 435 393.2 438.9 393.9C442.8 394.6 443.5 395.7 446.2 393.6C448.4 392 449.1 390.4 452.6 391.5C454.1 393 454.2 395.2 453.9 397H426.1Z" fill="white"/>
<path d="M424.699 167.2C422.599 231 427.499 300.3 434.499 364.7H450.999L454.899 285.1L467.199 170.3L424.699 167.2Z" fill="#6059C9"/>
<path d="M425.9 260.9C426.1 264.2 426.3 267.5 426.5 270.8C436.4 271.7 446.5 266.1 440.1 262.8C435.8 260.6 431.9 260.8 425.9 260.9Z" fill="#FE8C68"/>
<path d="M458.199 152.2C458.599 160.9 458.899 169.6 459.299 178.3C459.699 188.8 460.099 199.2 460.499 209.7C460.699 214 460.899 218.3 461.099 222.6C461.099 223 461.699 222.9 461.699 222.5C461.299 213.8 460.999 205.1 460.599 196.4C460.199 185.9 459.799 175.5 459.399 165C459.199 160.7 458.999 156.4 458.799 152.1C458.799 151.8 458.199 151.8 458.199 152.2Z" fill="#221D58"/>
<path d="M462.1 150.9C462.7 153.9 463.1 156.9 463.4 160C463.5 161.4 463.8 163.1 462.9 164.3C462.1 165.5 460.5 165.7 459.2 165.8C458.8 165.8 458.9 166.5 459.3 166.4C460.6 166.3 462 166.1 463 165.2C463.9 164.4 464.2 163.2 464.2 162.1C464.3 158.4 463.6 154.5 462.8 150.9C462.7 150.5 462 150.5 462.1 150.9Z" fill="#221D58"/>
<path d="M452.4 357.7L432 358.5L432.9 366.2L452.8 365.6L452.4 357.7Z" fill="#221D58"/>
<path d="M479.3 93.4C478 90 477.6 86.4 478.2 82.8C478.3 82.4 477.6 82.3 477.5 82.7C476.9 86.4 477.3 90.2 478.7 93.7C478.9 94.1 479.5 93.8 479.3 93.4Z" fill="#2C2F37"/>
<path d="M451.2 134.5C451.3 138.5 451.6 144.5 451.9 151.5C452 153.6 450.3 155.4 448.2 155.4H422.8C421.1 155.4 419.9 153.8 420.3 152.2C421.2 148.9 422 146 422.6 143.7C427 126.4 425.7 102.4 424.8 93.9C423.9 85.4 417 76.8 422.8 71C430.8 63 449.8 61.5 449.8 61.5C453 75.8 460.9 92.1 458.2 104.2C455.3 116.3 450.9 115.6 451.2 134.5Z" fill="#467B6C"/>
<path d="M443.2 123.4C441.3 130.9 435.6 136.7 428.1 138.7C427.6 138.8 427.8 139.6 428.3 139.5C436 137.4 442 131.4 444 123.6C444.1 123.2 443.4 122.9 443.2 123.4Z" fill="#253F3D"/>
<path d="M421.699 150.4C429.799 150.9 437.799 150.8 445.899 150.2C446.399 150.2 446.399 149.4 445.899 149.4C437.899 150 429.799 150.1 421.699 149.6C421.199 149.5 421.199 150.3 421.699 150.4Z" fill="#253F3D"/>
<path d="M450.1 55.4C450.1 55.4 444.9 56.7 443.5 62.6C443.5 62.6 446.2 77.7 449.5 81.1C452.8 84.4 455.9 83.4 455.9 83.4C455.9 83.4 449.2 60.3 450.1 55.4Z" fill="#253F3D"/>
<path d="M449.099 114.8C447.799 119.7 447.199 124.6 446.899 129.6C446.399 138.1 446.899 146.7 446.999 155.3H446.199C446.099 148.1 445.799 140.9 445.899 133.7C445.999 129.2 446.299 124.6 446.999 120.1C447.799 115.3 449.399 110.7 450.499 106C452.899 95.9 452.399 84.2 446.599 75.3C446.299 74.9 446.999 74.5 447.299 74.9C452.199 82.3 453.499 92.1 452.299 100.8C451.799 105.6 450.299 110.2 449.099 114.8Z" fill="#253F3D"/>
<path d="M497.601 152.5C498.101 153.5 498.701 154.5 499.201 155.5H486.801C483.701 149.8 478.101 144.2 473.601 134.3C467.801 121.7 474.301 106.4 473.401 91.2C472.501 76 464.701 65.5 464.701 65.5C464.701 65.5 489.101 76.6 487.201 84.7C485.301 92.8 491.301 99.9 491.201 106.7C491.101 113.9 482.701 118.1 486.101 128.6C487.501 133.1 492.201 142.5 497.601 152.5Z" fill="#467B6C"/>
<path d="M485.1 85.2C484.9 88.8 484.6 92.4 486.4 95.7C488.2 99.1 491.6 101.8 491.6 106C491.6 110.4 488.6 113.8 486.7 117.5C484.5 121.8 484.3 126.6 486 131.1C486.2 131.6 485.4 131.8 485.2 131.3C483.7 127.3 483.6 122.9 485.1 118.9C486.7 114.7 490.5 111.2 490.7 106.5C490.9 102 486.8 99 485.2 95.2C483.8 92 484.1 88.6 484.3 85.2C484.4 84.7 485.2 84.7 485.1 85.2Z" fill="#64653D"/>
<path d="M499.2 155.4C498.5 154.6 497.9 153.8 497.2 153C492.4 147 487.6 140.9 483.9 134.3C482.1 131.1 480.6 127.7 479.5 124.2C478.4 120.5 477.9 116.6 477.6 112.7C476.6 98.3 479.5 81.5 469.5 69.4C469.2 69.1 469.7 68.6 469.9 69C474.8 74.9 476.8 82.5 477.5 90C478.2 97.8 477.7 105.6 478.2 113.3C478.5 117.4 479.2 121.5 480.5 125.4C481.7 129 483.4 132.5 485.4 135.7C488.9 141.6 493.2 147.1 497.5 152.4C498.1 153.4 498.7 154.4 499.2 155.4Z" fill="#253F3D"/>
<path d="M464.4 58.1C464.4 58.1 474.2 61.4 475.4 71.3C475.4 71.3 476.3 78.3 471.7 81.1C471.5 81.2 468.2 71 464.6 65.5C464.5 63.4 464.3 60.7 464.4 58.1Z" fill="#253F3D"/>
<path d="M460.7 182.8L422.7 188.7C421.4 188.9 420 188.1 419.5 186.7L407 156.5C406.2 154.5 407.3 152.3 409.2 152L447.7 146C449.4 145.7 451.2 146.8 451.9 148.5L463.6 176.8C464.7 179.5 463.2 182.4 460.7 182.8Z" fill="white"/>
<path d="M457.601 183.3L419.601 189.2C418.301 189.4 416.901 188.6 416.401 187.2L403.901 157C403.101 155 404.201 152.8 406.101 152.5L444.601 146.5C446.301 146.2 448.101 147.3 448.801 149L460.501 177.3C461.601 180 460.101 182.9 457.601 183.3Z" fill="white"/>
<path d="M436.8 169.5C437.6 172 436.4 174.3 434.2 174.6C432 174.9 429.5 173.2 428.7 170.7C427.9 168.2 429.1 165.9 431.3 165.6C433.5 165.3 436 167 436.8 169.5Z" fill="#221D58"/>
<path d="M449.002 148.8C453.102 158.9 457.202 169 461.402 179.1C461.602 179.5 461.002 179.8 460.802 179.4C456.702 169.3 452.602 159.2 448.402 149.1C448.202 148.7 448.802 148.4 449.002 148.8Z" fill="#221D58"/>
<path d="M421.2 73.3C421.2 73.3 408.7 98.3 403.5 122.4C402.7 125.9 403.1 155.1 415.3 172.9C418.9 178.1 425 181.8 428.9 174.2C432.2 167.8 420.6 130.8 423.6 126.8C426.6 122.8 434.1 106.8 437.1 99.6C440.2 92.4 431.1 78.9 421.2 73.3Z" fill="#467B6C"/>
<path d="M423.9 136.2C424.6 140.5 425.2 144.8 425.9 149.1C426 149.6 426.8 149.4 426.7 148.9C426 144.6 425.4 140.3 424.7 136C424.5 135.4 423.8 135.7 423.9 136.2Z" fill="#64653D"/>
<path d="M427.299 71.9C433.699 72.7 438.299 79.6 439.599 85.4C439.699 85.9 440.499 85.7 440.399 85.2C438.999 79 434.099 72 427.299 71.2C426.799 71 426.799 71.8 427.299 71.9Z" fill="#253F3D"/>
<path d="M404 121.3C406.4 122 406.7 126.1 406.6 128.2C406.5 130.7 405.6 133.2 404 135.2C403.7 135.6 404.3 136.2 404.6 135.8C406.5 133.4 407.5 130.5 407.5 127.4C407.5 125.1 406.9 121.3 404.3 120.5C403.7 120.3 403.5 121.1 404 121.3Z" fill="#253F3D"/>
<path d="M419 167.9C419 168.6 418.4 169.2 417.7 169.2C417 169.2 416.4 168.6 416.4 167.9C416.4 167.2 417 166.6 417.7 166.6C418.4 166.5 419 167.1 419 167.9Z" fill="#253F3D"/>
<path d="M412.499 166.8C416.599 162.7 422.6 161.1 428.2 162.5C428.7 162.6 428.899 161.8 428.399 161.7C422.499 160.2 416.199 161.9 411.899 166.2C411.499 166.6 412.099 167.2 412.499 166.8Z" fill="#253F3D"/>
<path d="M424.1 161.6C424.4 165.1 425.2 168.4 426.7 171.6C426.9 172.1 427.6 171.7 427.4 171.2C426 168.2 425.2 164.9 424.9 161.6C424.9 161.1 424.1 161.1 424.1 161.6Z" fill="#253F3D"/>
<path d="M426.5 123.4C431.4 113.8 436.3 104.2 441.2 94.5C441.4 94 440.7 93.6 440.5 94.1C435.6 103.7 430.7 113.3 425.8 123C425.5 123.4 426.2 123.9 426.5 123.4Z" fill="#64653D"/>
<path d="M442 96.3C441 96.5 440.1 96.9 439.1 97.1C438.6 97.2 438.8 98 439.3 97.9C440.3 97.7 441.2 97.3 442.2 97.1C442.7 96.9 442.5 96.2 442 96.3Z" fill="#64653D"/>
<path d="M426.699 168.5C426.699 168.5 428.399 172.5 431.999 174C435.099 175.2 437.099 179.1 437.999 181.1C438.899 183.1 440.199 184.8 439.599 185.8C438.399 187.8 436.999 186.5 436.999 186.5C437.399 186.8 437.299 188.2 435.699 188.2C434.699 188.2 433.499 187.5 433.499 187.5C433.499 187.5 433.999 189.6 432.699 189.8C431.399 190 429.999 188.6 429.999 188.6C429.999 188.6 429.699 190.1 428.499 190.4C427.299 190.6 425.999 189.5 425.999 189.5C425.999 189.5 426.999 192.4 424.599 191.1C421.099 189.2 416.799 172.6 416.799 172.6C417.299 171 421.499 167.7 426.699 168.5Z" fill="#FE8C68"/>
<path d="M433.299 178.8C434.399 181.5 435.499 184.1 436.899 186.6C437.099 187.1 437.799 186.6 437.599 186.2C436.299 183.7 435.099 181.2 434.099 178.6C433.899 178.1 433.099 178.3 433.299 178.8Z" fill="#B4572A"/>
<path d="M472.5 39.8C473.2 39 474.3 38.8 475.1 39.6C475.6 40.1 476.5 39.4 475.9 38.9C474.6 37.7 472.6 37.8 471.5 39.2C471.1 39.7 472 40.4 472.5 39.8Z" fill="#2C2F37"/>
<path d="M464.9 37.5C466.1 38.6 467.8 38.8 469.2 37.9C469.8 37.5 469.2 36.6 468.6 36.9C467.6 37.5 466.5 37.5 465.6 36.7C465.1 36.2 464.3 37 464.9 37.5Z" fill="#2C2F37"/>
</g>
<defs>
<clipPath id="clip0_205_864">
<rect width="556.6" height="404.1" fill="white"/>
</clipPath>
</defs>
</svg>
