<svg width="501" height="305" viewBox="0 0 501 305" fill="none" xmlns="http://www.w3.org/2000/svg">
<g clip-path="url(#clip0_206_4833)">
<path d="M65.816 68.8597C65.5353 66.548 63.5706 64.6567 61.1849 64.6567C60.6937 64.6567 60.2727 64.7267 59.7815 64.8668C59.5008 60.3836 55.7819 56.881 51.221 56.881C49.3265 56.881 47.6424 57.5115 46.2391 58.4922C44.4147 55.6902 41.2571 53.7988 37.6786 53.7988C33.1878 53.7988 29.3286 56.741 28.0655 60.8039C26.8727 59.9633 25.3991 59.4029 23.7853 59.4029C20.2067 59.4029 17.2596 61.9247 16.6281 65.3572C15.9265 64.9369 15.0844 64.6567 14.2424 64.6567C11.8567 64.6567 9.82183 66.478 9.61133 68.8597H65.816Z" fill="#DBBFAF"/>
<path d="M308.387 33.6943C307.124 31.8029 304.949 30.542 302.493 30.542C301.581 30.542 300.669 30.7522 299.897 31.0324C299.195 24.938 294.003 20.1045 287.688 20.1045C283.548 20.1045 279.829 22.206 277.654 25.3583C276.11 24.4476 274.356 23.9573 272.461 23.9573C271.198 23.9573 269.935 24.2375 268.812 24.6578C267.058 17.6527 260.743 12.539 253.235 12.539C250.499 12.539 247.902 13.2395 245.657 14.4304C242.429 6.02435 234.29 0 224.747 0C212.397 0 202.433 9.94717 202.433 22.2761C200.469 20.9451 198.083 20.1746 195.487 20.1746C192.891 20.1746 190.435 21.0152 188.47 22.3461C185.944 17.4426 180.822 14.0802 174.857 14.0802C167.349 14.0802 161.175 19.404 159.841 26.5492C158.578 25.9887 157.245 25.6385 155.772 25.6385C151 25.6385 147.001 29.141 146.369 33.7644H308.387V33.6943Z" fill="#DBBFAF"/>
<path d="M338.91 95.1987C340.173 93.3073 342.348 92.0464 344.804 92.0464C345.716 92.0464 346.629 92.2566 347.4 92.5368C348.102 86.4424 353.295 81.6089 359.61 81.6089C363.75 81.6089 367.469 83.7104 369.644 86.8627C371.187 85.952 372.942 85.4617 374.836 85.4617C376.099 85.4617 377.362 85.7419 378.485 86.1622C380.239 79.1571 386.554 74.0434 394.062 74.0434C396.799 74.0434 399.395 74.7439 401.64 75.9348C404.798 67.5287 413.008 61.5044 422.55 61.5044C434.9 61.5044 444.864 71.4516 444.864 83.7805C446.829 82.4495 449.214 81.6789 451.811 81.6789C454.407 81.6789 456.863 82.5196 458.827 83.8505C461.353 78.947 466.476 75.5845 472.44 75.5845C479.948 75.5845 486.123 80.9084 487.456 88.0535C488.719 87.4931 490.052 87.1429 491.526 87.1429C496.297 87.1429 500.297 90.6454 500.928 95.2687H338.91V95.1987Z" fill="#DBBFAF"/>
<path d="M485.351 183.112C469.563 178.068 447.39 203.006 435.953 238.872C427.252 266.122 427.182 291.76 434.55 304.72H434.62H465.915C476.37 294.983 486.614 277.89 493.28 257.155C504.647 221.29 501.139 188.156 485.351 183.112Z" fill="#F4DED3"/>
<path d="M446.688 304.72L483.386 190.467L482.684 190.257L445.986 304.72H446.688Z" fill="#DBBFAF"/>
<path d="M493.446 211.959L473.863 218.208L474.077 218.876L493.66 212.626L493.446 211.959Z" fill="#DBBFAF"/>
<path d="M475.081 269.3L455.498 275.552L455.712 276.219L475.295 269.967L475.081 269.3Z" fill="#DBBFAF"/>
<path d="M446.067 230.751L445.504 231.169L462.487 253.917L463.049 253.498L446.067 230.751Z" fill="#DBBFAF"/>
<path d="M438.389 287.433L437.826 287.852L447.429 300.714L447.991 300.296L438.389 287.433Z" fill="#DBBFAF"/>
<path d="M48.9765 304.58H78.5874C78.6576 304.58 78.6576 304.58 78.6576 304.58C87.7093 292.111 85.8147 261.709 77.6051 229.555C67.571 190.117 45.8891 161.887 29.2593 166.51C12.5593 171.133 7.15635 206.789 17.1904 246.157C24.0669 273.267 36.4866 295.123 48.9765 304.58Z" fill="#F4DED3"/>
<path d="M31.7064 174.418L30.8223 174.643L63.9353 304.725L64.8194 304.501L31.7064 174.418Z" fill="#DBBFAF"/>
<path d="M19.3051 197.193L18.9707 198.04L38.9477 205.898L39.2821 205.051L19.3051 197.193Z" fill="#DBBFAF"/>
<path d="M35.391 260.288L35.0566 261.135L55.0337 268.993L55.3681 268.146L35.391 260.288Z" fill="#DBBFAF"/>
<path d="M67.4442 220.257L48.6152 243.885L49.3291 244.452L68.1581 220.824L67.4442 220.257Z" fill="#DBBFAF"/>
<path d="M72.3705 281.959L61.7109 295.334L62.4247 295.901L73.0843 282.526L72.3705 281.959Z" fill="#DBBFAF"/>
<path d="M136.336 147.877L145.809 149.908C151.983 147.386 152.194 133.726 149.036 118.876C145.668 103.254 137.389 91.8362 130.512 93.3073C123.636 94.7783 120.759 108.578 124.127 124.2C126.442 135.197 131.284 144.094 136.336 147.877Z" fill="#F4DED3"/>
<path d="M131.526 96.3529L130.84 96.4993L142.103 149.109L142.789 148.963L131.526 96.3529Z" fill="#DBBFAF"/>
<path d="M125.948 104.924L125.668 105.567L133.648 109.028L133.928 108.385L125.948 104.924Z" fill="#DBBFAF"/>
<path d="M131.274 129.884L130.994 130.527L138.975 133.987L139.254 133.345L131.274 129.884Z" fill="#DBBFAF"/>
<path d="M144.934 114.907L136.846 123.755L137.364 124.227L145.452 115.38L144.934 114.907Z" fill="#DBBFAF"/>
<path d="M145.781 139.096L141.193 144.114L141.712 144.586L146.3 139.568L145.781 139.096Z" fill="#DBBFAF"/>
<path d="M307.897 127.142C311.686 114.532 308.388 102.344 300.459 99.8919C292.53 97.4402 283.058 105.636 279.198 118.245C276.532 127.142 277.374 135.828 280.882 141.012L289.864 147.176C297.582 148.577 304.319 139.12 307.897 127.142Z" fill="#F4DED3"/>
<path d="M299.448 102.445L286.398 144.831L287.069 145.037L300.119 102.65L299.448 102.445Z" fill="#DBBFAF"/>
<path d="M292.681 106.524L292.123 106.949L296.47 112.626L297.027 112.201L292.681 106.524Z" fill="#DBBFAF"/>
<path d="M286.499 126.624L285.941 127.05L290.288 132.727L290.845 132.301L286.499 126.624Z" fill="#DBBFAF"/>
<path d="M302.271 121.246L292.885 124.369L293.107 125.034L302.493 121.911L302.271 121.246Z" fill="#DBBFAF"/>
<path d="M293.166 139.016L287.844 140.797L288.067 141.462L293.389 139.681L293.166 139.016Z" fill="#DBBFAF"/>
<path d="M141.178 186.404C136.196 178.839 135.424 163.218 139.915 146.405C145.739 124.41 158.369 108.578 168.052 111.17C177.735 113.762 180.893 133.656 175.069 155.722C172.262 166.3 167.912 175.406 163.07 181.781L141.178 186.404Z" fill="#DBBFAF"/>
<path d="M166.553 115.519L148.123 184.562L148.801 184.743L167.231 115.699L166.553 115.519Z" fill="#CCA693"/>
<path d="M173.772 128.257L162.154 132.64L162.402 133.295L174.02 128.912L173.772 128.257Z" fill="#CCA693"/>
<path d="M164.367 163.504L152.75 167.887L152.998 168.542L164.615 164.159L164.367 163.504Z" fill="#CCA693"/>
<path d="M145.826 141.075L145.285 141.522L156.246 154.742L156.787 154.296L145.826 141.075Z" fill="#CCA693"/>
<path d="M142.982 175.6L142.441 176.047L148.66 183.548L149.201 183.102L142.982 175.6Z" fill="#CCA693"/>
<path d="M439.182 220.029C434.2 212.463 433.428 196.842 437.919 180.03C443.743 158.034 456.373 142.203 466.056 144.795C475.739 147.386 478.897 167.281 473.073 189.347C470.266 199.924 465.916 209.031 461.074 215.405L439.182 220.029Z" fill="#DBBFAF"/>
<path d="M464.506 149.126L446.076 218.17L446.754 218.35L465.184 149.307L464.506 149.126Z" fill="#CCA693"/>
<path d="M471.798 161.921L460.18 166.303L460.428 166.958L472.046 162.576L471.798 161.921Z" fill="#CCA693"/>
<path d="M462.455 197.144L450.836 201.526L451.084 202.181L462.703 197.799L462.455 197.144Z" fill="#CCA693"/>
<path d="M443.824 174.715L443.283 175.162L454.244 188.382L454.785 187.935L443.824 174.715Z" fill="#CCA693"/>
<path d="M441 209.229L440.459 209.675L446.678 217.177L447.218 216.73L441 209.229Z" fill="#CCA693"/>
<path d="M52.2043 304.72C55.7127 295.543 53.0463 278.801 44.4858 261.989C33.2589 239.923 16.2782 226.053 6.59501 230.957C-3.15836 235.86 -1.9655 257.786 9.26139 279.852C14.6643 290.43 21.3303 299.116 27.9261 304.79H52.2043V304.72Z" fill="#DBBFAF"/>
<path d="M9.26988 235.193L8.45703 235.606L43.7142 304.707L44.527 304.294L9.26988 235.193Z" fill="#CCA693"/>
<path d="M4.37566 250.253L4.23828 251.153L17.6263 253.189L17.7637 252.289L4.37566 250.253Z" fill="#CCA693"/>
<path d="M22.2974 285.539L22.1602 286.439L35.5482 288.474L35.6855 287.574L22.2974 285.539Z" fill="#CCA693"/>
<path d="M36.89 257.609L28.252 274.128L29.0606 274.549L37.6986 258.031L36.89 257.609Z" fill="#CCA693"/>
<path d="M47.7754 293.663L42.9043 302.978L43.7129 303.399L48.584 294.085L47.7754 293.663Z" fill="#CCA693"/>
<path d="M144.195 304.65C144.405 304.65 144.616 304.65 144.756 304.72C148.124 293.372 147.493 276.209 142.3 258.066C133.88 228.575 116.478 207.7 103.497 211.412C90.5162 215.125 86.7973 242.025 95.2175 271.446C99.0066 284.755 104.69 296.314 110.865 304.65H144.195Z" fill="#DBBFAF"/>
<path d="M131.003 304.65L105.812 217.227L104.76 217.577L129.88 304.65H131.003Z" fill="#CCA693"/>
<path d="M96.3691 234.403L95.9922 235.458L111.79 241.079L112.167 240.023L96.3691 234.403Z" fill="#CCA693"/>
<path d="M109.826 281.596L109.449 282.652L125.247 288.272L125.624 287.216L109.826 281.596Z" fill="#CCA693"/>
<path d="M134.141 251.062L119.764 269.091L120.642 269.789L135.019 251.76L134.141 251.062Z" fill="#CCA693"/>
<path d="M134.442 304.65L139.775 298.065L138.863 297.364L133.039 304.65H134.442Z" fill="#CCA693"/>
<path d="M332.455 114.813H318.07V79.3672H332.455V114.813ZM318.561 114.322H331.893V79.9276H318.561V114.322Z" fill="#512944"/>
<path d="M449.846 304.72H331.754C325.439 304.72 320.246 299.536 320.246 293.232V61.5745C320.246 55.2699 325.439 50.0862 331.754 50.0862H449.846C456.162 50.0862 461.354 55.2699 461.354 61.5745V293.232C461.424 299.536 456.232 304.72 449.846 304.72Z" fill="#6059C9"/>
<path d="M452.442 74.3938H329.227V273.127H452.442V74.3938Z" fill="white"/>
<path d="M399.395 62.8354H382.204C381.362 62.8354 380.66 62.1349 380.66 61.2943C380.66 60.4537 381.362 59.7532 382.204 59.7532H399.395C400.237 59.7532 400.939 60.4537 400.939 61.2943C401.009 62.1349 400.307 62.8354 399.395 62.8354ZM382.204 60.3136C381.643 60.3136 381.151 60.8039 381.151 61.3643C381.151 61.9247 381.643 62.4151 382.204 62.4151H399.395C399.956 62.4151 400.448 61.9247 400.448 61.3643C400.448 60.8039 399.956 60.3136 399.395 60.3136H382.204Z" fill="#512944"/>
<path d="M394.203 297.575H387.397C384.8 297.575 382.766 295.473 382.766 292.951V286.157C382.766 283.565 384.871 281.533 387.397 281.533H394.203C396.799 281.533 398.834 283.635 398.834 286.157V292.951C398.834 295.473 396.729 297.575 394.203 297.575ZM387.397 282.024C385.151 282.024 383.257 283.845 383.257 286.157V292.951C383.257 295.193 385.081 297.084 387.397 297.084H394.203C396.448 297.084 398.343 295.263 398.343 292.951V286.157C398.343 283.915 396.519 282.024 394.203 282.024H387.397Z" fill="#512944"/>
<path d="M393.149 294.282H388.378C387.045 294.282 385.992 293.231 385.992 291.901V287.137C385.992 285.806 387.045 284.755 388.378 284.755H393.149C394.483 284.755 395.535 285.806 395.535 287.137V291.901C395.605 293.231 394.483 294.282 393.149 294.282ZM388.378 285.246C387.325 285.246 386.483 286.086 386.483 287.137V291.901C386.483 292.951 387.325 293.792 388.378 293.792H393.149C394.202 293.792 395.044 292.951 395.044 291.901V287.137C395.044 286.086 394.202 285.246 393.149 285.246H388.378Z" fill="#512944"/>
<path d="M452.442 74.1135H329.227V74.6739H452.442V74.1135Z" fill="#512944"/>
<path d="M370.288 191.32H410.775V139.623H370.288V191.32Z" fill="#F69571"/>
<path d="M452.442 273.127V173.865C434.409 164.268 412.516 162.657 412.516 162.657L390.905 179.119L368.732 162.657C368.732 162.657 336.244 165.109 318 181.711V273.197H452.442V273.127Z" fill="#D03F23"/>
<path d="M365.645 128.823V133.446C365.645 141.782 372.03 148.577 379.818 148.577H400.939C408.938 148.577 415.464 141.642 415.464 133.096V128.823H365.645Z" fill="#512944"/>
<path d="M417.708 128.192V110.119C417.708 95.4789 405.499 83.5703 390.553 83.5703C375.608 83.5703 363.398 95.5489 363.398 110.119V128.192H417.708Z" fill="#512944"/>
<path d="M370.346 153.551C384.099 167.071 404.237 158.875 410.833 145.845V134.357H370.346V153.551Z" fill="#E57553"/>
<path d="M413.99 133.516C419.183 133.516 423.393 129.314 423.393 124.129C423.393 118.945 419.183 114.743 413.99 114.743C408.798 114.743 404.588 118.945 404.588 124.129C404.588 129.314 408.798 133.516 413.99 133.516Z" fill="#F69571"/>
<path d="M366.977 133.516C372.17 133.516 376.379 129.314 376.379 124.129C376.379 118.945 372.17 114.743 366.977 114.743C361.784 114.743 357.574 118.945 357.574 124.129C357.574 129.314 361.784 133.516 366.977 133.516Z" fill="#F69571"/>
<path d="M413.85 107.808V133.516C413.85 146.266 403.395 156.703 390.624 156.703C377.854 156.703 367.398 146.266 367.398 133.516V107.808C367.398 101.013 372.942 95.479 379.748 95.479H401.57C408.306 95.479 413.85 101.013 413.85 107.808Z" fill="#F69571"/>
<path d="M413.85 133.516V127.142L415.534 133.376C414.902 133.516 414.341 133.516 413.85 133.516Z" fill="#E57553"/>
<path d="M367.329 133.516V127.142L365.645 133.376C366.206 133.516 366.767 133.516 367.329 133.516Z" fill="#E57553"/>
<path d="M359.68 118.525H361.153V111.38C361.153 95.6189 374.345 82.7997 390.554 82.7997C406.762 82.7997 419.954 95.6189 419.954 111.38V118.525H421.428V111.38C421.428 94.8484 407.604 81.3987 390.554 81.3987C373.503 81.3987 359.68 94.8484 359.68 111.38V118.525Z" fill="#80C7A7"/>
<path d="M407.252 88.8241L409.006 86.5124C403.603 82.7297 397.218 80.6982 390.552 80.6982C383.886 80.6982 377.501 82.7297 372.098 86.5124L373.852 88.8241C378.764 85.3916 384.517 83.5703 390.552 83.5703C396.586 83.5703 402.34 85.3916 407.252 88.8241Z" fill="#80C7A7"/>
<path d="M426.128 132.325H426.9C428.794 132.325 430.338 130.784 430.338 128.893V119.226C430.338 117.335 428.794 115.793 426.9 115.793H426.128C424.233 115.793 422.689 117.335 422.689 119.226V128.893C422.689 130.854 424.233 132.325 426.128 132.325Z" fill="#467B6C"/>
<path d="M417.147 135.478H422.76C424.515 135.478 425.918 134.077 425.918 132.326V115.864C425.918 114.112 424.515 112.711 422.76 112.711H417.147C416.235 112.711 415.463 113.482 415.463 114.393V133.797C415.463 134.707 416.235 135.478 417.147 135.478Z" fill="#80C7A7"/>
<path d="M354.978 115.864H354.206C352.311 115.864 350.768 117.405 350.768 119.296V128.963C350.768 130.855 352.311 132.396 354.206 132.396H354.978C356.872 132.396 358.416 130.855 358.416 128.963V119.296C358.416 117.405 356.872 115.864 354.978 115.864Z" fill="#467B6C"/>
<path d="M363.959 112.711H358.345C356.591 112.711 355.188 114.112 355.188 115.864V132.326C355.188 134.077 356.591 135.478 358.345 135.478H363.818C364.801 135.478 365.643 134.637 365.643 133.657V114.393C365.643 113.482 364.871 112.711 363.959 112.711Z" fill="#80C7A7"/>
<path d="M423.04 112.711H422.479V135.478H423.04V112.711Z" fill="#512944"/>
<path d="M358.696 112.711H358.135V135.478H358.696V112.711Z" fill="#512944"/>
<path d="M416.516 141.922H396.658V141.362H416.516C418.27 141.362 419.673 140.031 419.673 138.35V135.478H420.235V138.35C420.235 140.311 418.551 141.922 416.516 141.922Z" fill="#512944"/>
<path d="M393.922 143.604H400.518C401.64 143.604 402.482 142.693 402.482 141.642C402.482 140.521 401.57 139.681 400.518 139.681H393.922C392.799 139.681 391.957 140.591 391.957 141.642C391.957 142.763 392.869 143.604 393.922 143.604Z" fill="#467B6C"/>
<path d="M400.517 143.884H393.921C392.658 143.884 391.676 142.903 391.676 141.642H392.237C392.237 142.623 393.009 143.393 393.991 143.393H400.587C401.569 143.393 402.341 142.623 402.341 141.642H402.903C402.833 142.903 401.78 143.884 400.517 143.884Z" fill="#512944"/>
<path d="M410.621 157.614L416.937 163.218L403.605 190.187L390.834 178.559L410.621 157.614Z" fill="white"/>
<path d="M370.276 157.614L362.768 163.428L377.363 190.187L390.835 178.559L370.276 157.614Z" fill="white"/>
<path d="M366.486 111.941C366.486 111.941 374.766 108.298 376.38 102.554C378.415 107.948 383.467 111.1 392.168 112.081C391.536 110.61 389.01 108.228 389.01 106.757C393.852 113.132 402.833 113.482 402.833 113.482C402.833 113.482 400.378 111.871 399.886 109.699C404.026 113.061 409.289 113.972 414.622 113.272L414.341 104.655L408.306 95.1986L399.255 90.8555L385.923 92.1164L371.679 95.9692L366.978 104.515L366.486 108.228V111.941Z" fill="#512944"/>
<path d="M452.442 217.086C407.114 216.946 363.118 216.946 318.07 217.086V216.526C363.188 216.386 407.114 216.386 452.512 216.526L452.442 217.086Z" fill="#512944"/>
<path d="M385.081 250.01C362.838 250.01 340.594 250.01 318.07 249.94V249.38C363.118 249.45 406.973 249.45 452.232 249.38V249.94C429.638 249.94 407.324 250.01 385.081 250.01Z" fill="#512944"/>
<path d="M400.586 122.098C400.586 123.009 401.288 123.709 402.2 123.709C403.112 123.709 403.814 123.009 403.814 122.098C403.814 121.187 403.112 120.487 402.2 120.487C401.288 120.487 400.586 121.187 400.586 122.098Z" fill="#512944"/>
<path d="M377.291 122.098C377.291 123.009 377.993 123.709 378.905 123.709C379.817 123.709 380.519 123.009 380.519 122.098C380.519 121.187 379.817 120.487 378.905 120.487C377.993 120.487 377.291 121.187 377.291 122.098Z" fill="#512944"/>
<path d="M392.167 129.243C389.711 129.243 387.676 127.212 387.676 124.76V118.456H388.237V124.76C388.237 126.932 389.991 128.683 392.167 128.683V129.243Z" fill="#512944"/>
<path d="M398.902 115.653C398.902 116.214 400.376 116.704 402.2 116.704C404.025 116.704 405.498 116.214 405.498 115.653C405.498 115.093 404.025 114.603 402.2 114.603C400.376 114.673 398.902 115.093 398.902 115.653Z" fill="#512944"/>
<path d="M375.607 115.653C375.607 116.214 377.081 116.704 378.905 116.704C380.73 116.704 382.203 116.214 382.203 115.653C382.203 115.093 380.73 114.603 378.905 114.603C377.081 114.673 375.607 115.093 375.607 115.653Z" fill="#512944"/>
<path d="M392.657 137.929H388.307V138.49H392.657V137.929Z" fill="#512944"/>
<path d="M392.587 135.547H385.5V134.987H392.587C394.411 134.987 395.464 134.427 395.745 133.236L396.236 133.376C395.955 134.777 394.692 135.547 392.587 135.547Z" fill="#512944"/>
<path d="M405.428 127.071C405.428 127.842 406.48 128.472 407.813 128.472C409.147 128.472 410.199 127.842 410.199 127.071C410.199 126.301 409.147 125.67 407.813 125.67C406.48 125.67 405.428 126.301 405.428 127.071Z" fill="#E57553"/>
<path d="M370.695 127.071C370.695 127.842 371.748 128.472 373.081 128.472C374.414 128.472 375.467 127.842 375.467 127.071C375.467 126.301 374.414 125.67 373.081 125.67C371.748 125.67 370.695 126.301 370.695 127.071Z" fill="#E57553"/>
<path d="M406.48 131.975C400.165 131.975 394.973 126.791 394.973 120.487C394.973 114.182 400.165 108.999 406.48 108.999C412.795 108.999 417.988 114.182 417.988 120.487C417.988 126.791 412.795 131.975 406.48 131.975ZM406.48 109.489C400.446 109.489 395.464 114.392 395.464 120.487C395.464 126.511 400.376 131.485 406.48 131.485C412.515 131.485 417.497 126.581 417.497 120.487C417.426 114.392 412.515 109.489 406.48 109.489Z" fill="white"/>
<path d="M374.625 131.975C368.31 131.975 363.117 126.791 363.117 120.487C363.117 114.182 368.31 108.999 374.625 108.999C380.94 108.999 386.132 114.182 386.132 120.487C386.132 126.791 381.01 131.975 374.625 131.975ZM374.625 109.489C368.59 109.489 363.608 114.392 363.608 120.487C363.608 126.511 368.52 131.485 374.625 131.485C380.659 131.485 385.641 126.581 385.641 120.487C385.641 114.392 380.729 109.489 374.625 109.489Z" fill="white"/>
<path d="M385.712 117.685L385.361 117.334C387.186 115.513 389.291 114.602 391.326 114.743C393.08 114.883 394.623 115.793 395.816 117.334L395.395 117.615C394.273 116.144 392.869 115.303 391.255 115.233C389.361 115.093 387.396 116.003 385.712 117.685Z" fill="white"/>
<path d="M452.232 272.847H343.752V273.407H452.232V272.847Z" fill="#512944"/>
<path d="M379.679 295.403C377.153 300.867 371.61 304.72 365.225 304.72H93.1128C86.7275 304.72 81.1843 300.867 78.6582 295.403H379.679Z" fill="white"/>
<path d="M213.311 295.543H221.872H255.061C253.868 298.065 251.342 299.816 248.395 299.816H221.872H212.469H209.803C206.856 299.816 204.259 298.065 203.137 295.543H213.311Z" fill="#D3B7A2"/>
<path d="M116.269 295.403H342.069C345.929 295.403 349.156 292.251 349.156 288.328V137.229C349.156 133.376 345.999 130.154 342.069 130.154H116.269C112.409 130.154 109.182 133.306 109.182 137.229V288.328C109.182 292.251 112.339 295.403 116.269 295.403Z" fill="white"/>
<path d="M342.068 295.123H116.268V295.683H342.068V295.123Z" fill="#512944"/>
<path d="M122.729 282.379H335.549V143.749L122.729 143.749L122.729 282.379Z" fill="#D3B7A2"/>
<path d="M335.544 143.673H122.725V144.234H335.544V143.673Z" fill="#512944"/>
<path d="M233.169 138.49H225.03C224.118 138.49 223.346 137.719 223.346 136.809C223.346 135.898 224.118 135.127 225.03 135.127H233.169C234.081 135.127 234.853 135.898 234.853 136.809C234.923 137.719 234.152 138.49 233.169 138.49ZM225.1 135.688C224.468 135.688 223.907 136.178 223.907 136.879C223.907 137.509 224.398 138.07 225.1 138.07H233.239C233.871 138.07 234.432 137.579 234.432 136.879C234.432 136.248 233.941 135.688 233.239 135.688H225.1Z" fill="#512944"/>
<path d="M202.646 133.236V108.718C202.646 93.3774 214.435 80.7683 228.819 80.7683C243.204 80.7683 254.992 93.3774 254.992 108.718V132.886C254.992 141.852 248.186 149.138 239.765 149.138H217.522C209.312 149.208 202.646 142.063 202.646 133.236Z" fill="#512944"/>
<path d="M207.566 191.399H250.158V137.04H207.566V191.399Z" fill="#F69571"/>
<path d="M207.559 154.811C222.013 169.032 243.274 160.416 250.151 146.686V134.567H207.559V154.811Z" fill="#E57553"/>
<path d="M147.563 198.593C165.035 180.1 205.873 161.256 205.873 161.256L229.169 177.998L251.833 161.256C251.833 161.256 293.232 180.1 310.704 198.593C328.176 217.087 334 282.514 334 282.514H231.274H226.923H124.268C124.268 282.444 130.092 217.087 147.563 198.593Z" fill="white"/>
<path d="M253.519 133.306C258.983 133.306 263.412 128.884 263.412 123.429C263.412 117.974 258.983 113.552 253.519 113.552C248.055 113.552 243.625 117.974 243.625 123.429C243.625 128.884 248.055 133.306 253.519 133.306Z" fill="#F69571"/>
<path d="M204.05 133.306C209.514 133.306 213.944 128.884 213.944 123.429C213.944 117.974 209.514 113.552 204.05 113.552C198.586 113.552 194.156 117.974 194.156 123.429C194.156 128.884 198.586 133.306 204.05 133.306Z" fill="#F69571"/>
<path d="M253.307 106.267V133.306C253.307 146.756 242.291 157.754 228.819 157.754C215.346 157.754 204.33 146.756 204.33 133.306V106.267C204.33 99.1216 210.154 93.3074 217.311 93.3074H240.326C247.483 93.3074 253.307 99.1216 253.307 106.267Z" fill="#F69571"/>
<path d="M232.327 179.75H231.766V282.514H232.327V179.75Z" fill="#512944"/>
<path d="M225.731 180.871H225.17V282.444H225.731V180.871Z" fill="#512944"/>
<path d="M227.346 183.392C227.346 184.163 227.977 184.793 228.749 184.793C229.521 184.793 230.152 184.163 230.152 183.392C230.152 182.622 229.521 181.991 228.749 181.991C227.977 181.991 227.346 182.622 227.346 183.392Z" fill="#467B6C"/>
<path d="M227.346 229.556C227.346 230.326 227.977 230.957 228.749 230.957C229.521 230.957 230.152 230.326 230.152 229.556C230.152 228.785 229.521 228.155 228.749 228.155C227.977 228.155 227.346 228.785 227.346 229.556Z" fill="#467B6C"/>
<path d="M227.346 275.719C227.346 276.489 227.977 277.12 228.749 277.12C229.521 277.12 230.152 276.489 230.152 275.719C230.152 274.948 229.521 274.318 228.749 274.318C227.977 274.318 227.346 274.948 227.346 275.719Z" fill="#467B6C"/>
<path d="M253.307 133.306V126.651L255.061 133.236C254.5 133.306 253.868 133.376 253.307 133.306Z" fill="#E57553"/>
<path d="M204.401 133.306V126.651L202.646 133.236C203.208 133.306 203.839 133.376 204.401 133.306Z" fill="#E57553"/>
<path d="M228.749 100.242C237.972 100.242 245.449 97.3256 245.449 93.7276C245.449 90.1296 237.972 87.2129 228.749 87.2129C219.526 87.2129 212.049 90.1296 212.049 93.7276C212.049 97.3256 219.526 100.242 228.749 100.242Z" fill="#512944"/>
<path d="M253.308 108.508V121.118C250.922 121.118 249.449 119.927 249.378 116.774V108.368C249.238 102.344 248.115 97.3704 245.379 94.148C248.466 93.7978 249.659 96.3196 252.396 100.453C253.238 102.624 253.589 105.076 253.448 107.668L253.308 108.508Z" fill="#512944"/>
<path d="M204.33 113.552V121.117C206.715 121.117 208.189 119.926 208.259 116.774V108.368C208.399 102.344 209.522 97.3702 212.259 94.1478C209.171 93.7976 206.785 96.5296 204.049 100.663L203.137 109.629L204.33 113.552Z" fill="#512944"/>
<path d="M196.33 117.615H197.874V110.049C197.874 93.5174 211.767 79.9977 228.818 79.9977C245.869 79.9977 259.762 93.4474 259.762 110.049V117.615H261.306V110.049C261.306 92.6768 246.711 78.5266 228.818 78.5266C210.925 78.5266 196.33 92.6768 196.33 110.049V117.615Z" fill="#D03F23"/>
<path d="M246.43 86.3023L248.254 83.8505C242.57 79.8576 235.834 77.7561 228.817 77.7561C221.801 77.7561 215.135 79.8576 209.381 83.8505L211.205 86.3023C216.398 82.6596 222.432 80.7683 228.817 80.7683C235.203 80.7683 241.307 82.6596 246.43 86.3023Z" fill="#D03F23"/>
<path d="M266.288 132.115H267.13C269.094 132.115 270.708 130.504 270.708 128.543V118.315C270.708 116.354 269.094 114.743 267.13 114.743H266.288C264.323 114.743 262.709 116.354 262.709 118.315V128.543C262.709 130.504 264.323 132.115 266.288 132.115Z" fill="#D03F23"/>
<path d="M256.885 135.408H262.779C264.603 135.408 266.077 133.937 266.077 132.115V114.813C266.077 112.992 264.603 111.521 262.779 111.521H256.815C255.832 111.521 255.061 112.291 255.061 113.272V133.656C255.061 134.637 255.832 135.408 256.885 135.408Z" fill="#6059C9"/>
<path d="M191.419 114.743H190.577C188.612 114.743 186.998 116.354 186.998 118.315V128.543C186.998 130.504 188.612 132.115 190.577 132.115H191.419C193.383 132.115 194.997 130.504 194.997 128.543V118.315C194.997 116.354 193.383 114.743 191.419 114.743Z" fill="#D03F23"/>
<path d="M200.891 111.45H194.927C193.102 111.45 191.629 112.921 191.629 114.743V132.045C191.629 133.866 193.102 135.337 194.927 135.337H200.681C201.733 135.337 202.575 134.497 202.575 133.446V113.131C202.645 112.221 201.873 111.45 200.891 111.45Z" fill="#6059C9"/>
<path d="M262.991 111.45H262.43V135.407H262.991V111.45Z" fill="#512944"/>
<path d="M195.278 111.45H194.717V135.407H195.278V111.45Z" fill="#512944"/>
<path d="M256.184 142.133H235.273V141.572H256.184C258.008 141.572 259.552 140.171 259.552 138.42V135.408H260.113V138.42C260.043 140.521 258.289 142.133 256.184 142.133Z" fill="#512944"/>
<path d="M232.396 143.954H239.343C240.465 143.954 241.448 143.043 241.448 141.853C241.448 140.732 240.536 139.751 239.343 139.751H232.396C231.273 139.751 230.291 140.662 230.291 141.853C230.291 143.043 231.273 143.954 232.396 143.954Z" fill="#467B6C"/>
<path d="M239.344 144.234H232.397C231.134 144.234 230.012 143.184 230.012 141.853H230.573C230.573 142.833 231.415 143.674 232.397 143.674H239.344C240.326 143.674 241.168 142.833 241.168 141.853H241.73C241.73 143.184 240.677 144.234 239.344 144.234Z" fill="#512944"/>
<path d="M244.467 126.581C244.467 127.352 245.589 128.052 246.993 128.052C248.396 128.052 249.519 127.422 249.519 126.581C249.519 125.811 248.396 125.11 246.993 125.11C245.589 125.11 244.467 125.741 244.467 126.581Z" fill="#E57553"/>
<path d="M207.979 126.581C207.979 127.352 209.101 128.052 210.505 128.052C211.908 128.052 213.031 127.422 213.031 126.581C213.031 125.811 211.908 125.11 210.505 125.11C209.101 125.11 207.979 125.741 207.979 126.581Z" fill="#E57553"/>
<path d="M339.333 282.094H118.936V282.654H339.333V282.094Z" fill="#512944"/>
<path d="M297.479 219.83L291.906 282.35L292.396 282.394L297.969 219.873L297.479 219.83Z" fill="#512944"/>
<path d="M160.083 219.853L159.523 219.902L165.092 282.423L165.651 282.373L160.083 219.853Z" fill="#512944"/>
<path d="M247.619 248.239H282.844V241.164H247.619V248.239Z" fill="#467B6C"/>
<path d="M295.829 243.566L295.408 243.286C302.215 231.727 303.548 217.717 303.548 217.577L304.039 217.647C304.039 217.717 302.706 231.867 295.829 243.566Z" fill="#512944"/>
<path d="M161.317 243.566C154.441 231.937 153.107 217.717 153.107 217.577L153.599 217.507C153.599 217.647 154.932 231.727 161.738 243.215L161.317 243.566Z" fill="#512944"/>
<path d="M249.94 155.933L256.606 163.568L242.572 190.117L229.17 177.999L249.94 155.933Z" fill="#467B6C"/>
<path d="M207.557 155.933L201.031 163.498L214.925 190.117L229.169 177.999L207.557 155.933Z" fill="#467B6C"/>
<path d="M239.203 121.327C240.172 121.327 240.958 120.543 240.958 119.576C240.958 118.609 240.172 117.825 239.203 117.825C238.235 117.825 237.449 118.609 237.449 119.576C237.449 120.543 238.235 121.327 239.203 121.327Z" fill="#512944"/>
<path d="M214.715 121.327C215.684 121.327 216.469 120.543 216.469 119.576C216.469 118.609 215.684 117.825 214.715 117.825C213.746 117.825 212.961 118.609 212.961 119.576C212.961 120.543 213.746 121.327 214.715 121.327Z" fill="#512944"/>
<path d="M231.346 130.854C228.75 130.854 226.645 128.753 226.645 126.161V119.576H227.206V126.161C227.206 128.473 229.1 130.294 231.346 130.294V130.854Z" fill="#512944"/>
<path d="M235.695 114.603C235.695 115.163 237.239 115.653 239.134 115.653C241.028 115.653 242.572 115.163 242.572 114.603C242.572 114.042 241.028 113.552 239.134 113.552C237.239 113.552 235.695 113.972 235.695 114.603Z" fill="#512944"/>
<path d="M211.207 114.603C211.207 115.163 212.751 115.654 214.645 115.654C216.54 115.654 218.083 115.163 218.083 114.603C218.083 114.042 216.54 113.552 214.645 113.552C212.751 113.482 211.207 113.972 211.207 114.603Z" fill="#512944"/>
<path d="M228.749 140.101C227.977 140.101 227.135 139.961 226.363 139.61L226.574 139.12C228.047 139.681 229.451 139.681 230.924 139.12L231.135 139.61C230.363 139.961 229.521 140.101 228.749 140.101Z" fill="#512944"/>
<path d="M219.838 134.357C225.732 139.26 231.626 139.26 237.59 134.357H219.838Z" fill="white"/>
<path d="M242.292 130.434C236.889 130.434 232.539 126.091 232.539 120.697C232.539 115.303 236.889 110.96 242.292 110.96C247.695 110.96 252.046 115.303 252.046 120.697C252.046 126.091 247.625 130.434 242.292 130.434ZM242.292 111.52C237.24 111.52 233.1 115.653 233.1 120.697C233.1 125.741 237.24 129.874 242.292 129.874C247.345 129.874 251.484 125.741 251.484 120.697C251.484 115.653 247.345 111.52 242.292 111.52Z" fill="white"/>
<path d="M215.417 130.434C210.014 130.434 205.664 126.091 205.664 120.697C205.664 115.303 210.014 110.96 215.417 110.96C220.82 110.96 225.171 115.303 225.171 120.697C225.171 126.091 220.82 130.434 215.417 130.434ZM215.417 111.52C210.365 111.52 206.225 115.653 206.225 120.697C206.225 125.741 210.365 129.874 215.417 129.874C220.47 129.874 224.609 125.741 224.609 120.697C224.68 115.653 220.54 111.52 215.417 111.52Z" fill="white"/>
<path d="M224.749 118.456L224.398 118.105C225.942 116.564 227.767 115.794 229.451 115.934C230.924 116.074 232.257 116.844 233.24 118.175L232.819 118.456C231.906 117.265 230.714 116.564 229.38 116.424C227.837 116.284 226.223 116.984 224.749 118.456Z" fill="white"/>
<path d="M241.099 135.267C239.836 132.325 237.1 130.224 233.942 130.224H222.575C219.418 130.224 216.751 132.325 215.418 135.267H241.099Z" fill="#512944"/>
<path d="M349.366 279.361H348.805V137.229C348.805 133.516 345.787 130.434 341.998 130.434H284.25V129.874H341.998C346.068 129.874 349.296 133.166 349.296 137.159V279.361H349.366Z" fill="#512944"/>
<path d="M63.2205 6.72485H103.918C109.672 6.72485 114.443 11.4182 114.443 17.2324C114.443 22.9766 109.742 27.74 103.918 27.74H78.447L68.4831 36.8466C67.3604 37.8273 65.6062 37.0567 65.6062 35.5857V27.67H63.2205C57.4667 27.67 52.6953 22.9766 52.6953 17.1624C52.7655 11.4182 57.4667 6.72485 63.2205 6.72485Z" fill="white"/>
<path d="M72.763 16.8121C72.763 18.2131 71.6404 19.3339 70.237 19.3339C68.8336 19.3339 67.7109 18.2131 67.7109 16.8121C67.7109 15.4111 68.8336 14.2903 70.237 14.2903C71.6404 14.2903 72.763 15.4111 72.763 16.8121Z" fill="#512944"/>
<path d="M84.8314 16.8121C84.8314 18.2131 83.7087 19.3339 82.3054 19.3339C80.902 19.3339 79.7793 18.2131 79.7793 16.8121C79.7793 15.4111 80.902 14.2903 82.3054 14.2903C83.7087 14.2903 84.8314 15.4111 84.8314 16.8121Z" fill="#512944"/>
<path d="M96.9701 16.8121C96.9701 18.2131 95.8474 19.3339 94.444 19.3339C93.0407 19.3339 91.918 18.2131 91.918 16.8121C91.918 15.4111 93.0407 14.2903 94.444 14.2903C95.7772 14.2903 96.9701 15.4111 96.9701 16.8121Z" fill="#512944"/>
<path d="M232.818 26.6892H177.525C169.667 26.6892 163.281 33.1339 163.281 40.9095C163.281 48.7551 169.737 55.1297 177.525 55.1297H212.118L225.731 67.5287C227.204 68.9297 229.66 67.8089 229.66 65.7774V55.1998H232.888C240.747 55.1998 247.132 48.7551 247.132 40.9795C247.132 33.0638 240.677 26.6892 232.818 26.6892Z" fill="white"/>
<path d="M188.753 44.2019C190.652 44.2019 192.191 42.6651 192.191 40.7694C192.191 38.8737 190.652 37.3369 188.753 37.3369C186.854 37.3369 185.314 38.8737 185.314 40.7694C185.314 42.6651 186.854 44.2019 188.753 44.2019Z" fill="#512944"/>
<path d="M205.173 44.2019C207.072 44.2019 208.611 42.6651 208.611 40.7694C208.611 38.8737 207.072 37.3369 205.173 37.3369C203.274 37.3369 201.734 38.8737 201.734 40.7694C201.734 42.6651 203.274 44.2019 205.173 44.2019Z" fill="#512944"/>
<path d="M225.029 40.7694C225.029 42.6608 223.485 44.2019 221.591 44.2019C219.696 44.2019 218.152 42.6608 218.152 40.7694C218.152 38.878 219.696 37.3369 221.591 37.3369C223.485 37.3369 225.029 38.878 225.029 40.7694Z" fill="#512944"/>
<path d="M394.624 9.38672H349.646C343.261 9.38672 337.998 14.5705 337.998 21.0151C337.998 27.3897 343.19 32.6435 349.646 32.6435H377.783L388.8 42.7308C389.993 43.8516 391.957 43.011 391.957 41.3298V32.5734H394.553C400.939 32.5734 406.201 27.3897 406.201 20.9451C406.201 14.5705 401.009 9.38672 394.624 9.38672Z" fill="white"/>
<path d="M361.574 20.805C361.574 22.3461 360.311 23.607 358.768 23.607C357.224 23.607 355.961 22.3461 355.961 20.805C355.961 19.2638 357.224 18.0029 358.768 18.0029C360.311 18.0029 361.574 19.2638 361.574 20.805Z" fill="#512944"/>
<path d="M374.906 20.805C374.906 22.3461 373.643 23.607 372.1 23.607C370.556 23.607 369.293 22.3461 369.293 20.805C369.293 19.2638 370.556 18.0029 372.1 18.0029C373.643 18.0029 374.906 19.2638 374.906 20.805Z" fill="#512944"/>
<path d="M388.309 20.805C388.309 22.3461 387.046 23.607 385.502 23.607C383.958 23.607 382.695 22.3461 382.695 20.805C382.695 19.2638 383.958 18.0029 385.502 18.0029C387.046 18.0029 388.309 19.2638 388.309 20.805Z" fill="#512944"/>
<path d="M76.5527 77.1956C77.6053 78.8768 79.9208 80.558 82.0258 81.3986C83.9204 82.1692 87.2183 81.889 87.9901 78.5966C87.4288 68.1591 84.9027 62.555 80.412 61.9246L76.5527 77.1956Z" fill="#F69571"/>
<path d="M84.2703 75.0241L75.9203 77.3357C74.8678 77.6159 73.8153 76.9855 73.5346 76.0048L69.1842 60.1733C68.9035 59.1226 69.535 58.0718 70.5174 57.7916L78.8674 55.4799C79.9199 55.1997 80.9724 55.8302 81.2531 56.8109L85.6035 72.6423C85.8842 73.6931 85.3228 74.7438 84.2703 75.0241Z" fill="#69B792"/>
<path d="M80.4196 58.1068L70.6074 60.7944L74.4507 74.7787L84.2628 72.091L80.4196 58.1068Z" fill="white"/>
<path d="M76.0993 57.5206L73.9336 58.1128L74.0819 58.6533L76.2476 58.0611L76.0993 57.5206Z" fill="#512944"/>
<path d="M80.4813 74.6039C80.6216 75.0242 80.3409 75.4445 79.9901 75.5145C79.5691 75.6546 79.1481 75.3744 79.0779 75.0242C78.9376 74.6039 79.2183 74.1836 79.5691 74.1135C79.9199 73.9734 80.3409 74.2536 80.4813 74.6039Z" fill="#512944"/>
<path d="M117.671 101.223L89.8138 73.1326L79.0781 81.9589L102.093 112.851C110.513 124.059 126.722 112.781 117.671 101.223Z" fill="white"/>
<path d="M83.5695 84.7609C82.8678 84.4807 82.1662 84.3406 81.3241 84.2706C76.1317 83.9203 70.9393 88.6838 69.7464 94.8482C68.8342 99.5416 70.5183 103.745 73.746 105.566H73.8162C74.4477 105.916 105.883 117.054 105.883 117.054C105.883 117.054 116.057 120.487 119.496 112.431C122.443 104.585 113.461 100.032 113.461 100.032L85.1132 85.5315C84.6922 85.2513 84.201 84.9711 83.6397 84.7609H83.5695Z" fill="white"/>
<path d="M69.6048 59.7529H55.9922V93.9376H69.6048V59.7529Z" fill="#F69571"/>
<path d="M69.6054 80.3478C67.5004 80.0676 65.6058 79.5072 63.8516 78.6666L61.0449 59.7529H69.6054V80.3478Z" fill="#E57553"/>
<path d="M48.9056 290.78H37.1875L39.2224 267.733H50.9404L48.9056 290.78Z" fill="#F69571"/>
<path d="M90.5159 290.78H78.7978L78.3066 267.733H90.0247L90.5159 290.78Z" fill="#F69571"/>
<path d="M37.1879 283.004L36.416 290.78H49.5374L50.3795 283.004H37.1879Z" fill="white"/>
<path d="M77.9551 283.004L78.0954 290.78H91.2168L91.0063 283.004H77.9551Z" fill="white"/>
<path d="M90.6549 153.34H43.9932C41.3268 195.861 34.6608 237.121 32.1348 277.4H55.7112L70.657 218.207L72.6217 277.4H96.4087C100.899 234.039 99.6364 192.429 90.6549 153.34Z" fill="#6059C9"/>
<path d="M70.9384 218.278L70.4473 218.208L80.2006 169.452L80.341 169.382C82.867 168.822 85.0422 167.841 86.9368 166.37L87.2876 166.79C85.3229 168.261 83.1477 169.312 80.6216 169.873L70.9384 218.278Z" fill="#512944"/>
<path d="M34.8713 288.258C32.4154 293.372 30.8016 298.835 30.2402 304.72H71.5692C72.5516 299.396 65.3944 295.403 52.3432 292.251L52.4133 288.328H34.8713V288.258Z" fill="#D03F23"/>
<path d="M36.8373 304.79L36.3461 304.72C37.3284 298.485 31.8553 296.804 31.7852 296.804L31.9255 296.313C31.9957 296.243 37.9599 298.065 36.8373 304.79Z" fill="#512944"/>
<path d="M77.3948 288.258C74.2372 297.224 75.3599 304.72 75.3599 304.72H116.689C117.671 299.396 110.514 295.403 97.4628 292.251L94.9368 288.328H77.3948V288.258Z" fill="#D03F23"/>
<path d="M76.2019 83.5002C82.8679 83.6403 87.9902 87.7733 88.6919 97.1601L94.7965 155.512L39.9251 159.505L38.241 99.7519C37.6095 90.2251 43.8545 83.4302 54.3797 83.4302H55.9935C62.7297 87.7733 66.9398 87.0728 69.6061 83.4302H76.2019V83.5002Z" fill="white"/>
<path d="M89.9547 111.59L88.4811 97.23C88.0601 91.4858 85.8849 87.3529 82.166 85.2513L82.4467 84.761C86.3059 86.9326 88.6215 91.2056 89.0425 97.0899L90.516 111.45L89.9547 111.59Z" fill="#512944"/>
<path d="M60.6943 156.353L64.2027 161.396C61.2557 164.759 57.5368 166.44 53.046 166.65L50.7305 163.218L60.6943 156.353Z" fill="#F69571"/>
<path d="M96.9009 272.637H72.4824V273.197H96.9009V272.637Z" fill="#512944"/>
<path d="M56.9048 272.637H32.4863V273.197H56.9048V272.637Z" fill="#512944"/>
<path d="M72.3431 59.8231C72.2027 57.0211 72.5536 54.6394 73.9569 53.0282C73.9569 53.0282 76.8338 51.8373 80.4124 53.4485V61.084C80.4124 61.084 80.2019 65.287 76.9742 65.287V63.0454C76.9742 60.5937 73.6763 59.5429 72.3431 59.8231Z" fill="#512944"/>
<path d="M67.6401 78.6667C61.2548 78.6667 55.9922 78.6667 55.9922 78.6667V57.7916C55.9922 51.6972 61.2548 46.7937 67.6401 46.7937C74.0254 46.7937 79.288 51.7673 79.288 57.7916V67.6688C79.2178 73.6931 74.0254 78.6667 67.6401 78.6667Z" fill="#F69571"/>
<path d="M59.1506 64.4463C59.1506 67.0382 57.0455 69.1397 54.4493 69.1397C51.8531 69.1397 49.748 67.0382 49.748 64.4463C49.748 61.8544 51.8531 59.7529 54.4493 59.7529C57.0455 59.7529 59.1506 61.8544 59.1506 64.4463Z" fill="#F69571"/>
<path d="M53.677 59.8231C53.5367 57.0211 53.8876 54.6394 55.2909 53.0282C55.2909 53.0282 58.1678 51.8373 61.7464 53.4485V61.084C61.7464 61.084 61.5359 65.287 58.3081 65.287V63.0454C58.3081 60.5937 55.0102 59.5429 53.677 59.8231Z" fill="#512944"/>
<path d="M75.5708 57.4413H60.4847C57.3973 57.4413 54.9414 54.9195 54.9414 51.9073C54.9414 48.8251 57.4675 46.3733 60.4847 46.3733H75.5006C78.588 46.3733 81.0439 48.8951 81.0439 51.9073C81.1141 54.9195 78.588 57.4413 75.5708 57.4413Z" fill="#512944"/>
<path d="M75.9205 57.3713C79.9508 57.3713 83.218 54.1096 83.218 50.086C83.218 46.0625 79.9508 42.8008 75.9205 42.8008C71.8902 42.8008 68.623 46.0625 68.623 50.086C68.623 54.1096 71.8902 57.3713 75.9205 57.3713Z" fill="#512944"/>
<path d="M54.3794 67.1082C52.9761 67.1082 51.7832 65.9874 51.7832 64.5163C51.7832 63.7458 52.134 62.9752 52.7656 62.4849L53.1164 62.9052C52.6252 63.3255 52.3445 63.8859 52.3445 64.5163C52.3445 65.6371 53.2567 66.5478 54.3794 66.5478C54.8004 66.5478 55.2214 66.4077 55.5723 66.1975L55.853 66.6179C55.4319 66.8981 54.8706 67.1082 54.3794 67.1082Z" fill="#512944"/>
<path d="M53.327 66.4776H52.7656C52.7656 65.9873 53.1165 65.0066 54.5198 64.9365V65.4269C53.3971 65.4969 53.327 66.3375 53.327 66.4776Z" fill="#512944"/>
<path d="M70.1667 65.2169C70.1667 65.6372 69.8159 65.9874 69.3949 65.9874C68.9739 65.9874 68.623 65.6372 68.623 65.2169C68.623 64.7965 68.9739 64.4463 69.3949 64.4463C69.8159 64.4463 70.1667 64.7965 70.1667 65.2169Z" fill="#512944"/>
<path d="M78.2351 65.2169C78.2351 65.6372 77.8843 65.9874 77.4632 65.9874C77.0422 65.9874 76.6914 65.6372 76.6914 65.2169C76.6914 64.7965 77.0422 64.4463 77.4632 64.4463C77.8843 64.4463 78.2351 64.7965 78.2351 65.2169Z" fill="#512944"/>
<path d="M72.3418 67.8088V67.2484C73.3943 67.2484 74.2363 66.5479 74.2363 65.6372V62.7651H74.7275V65.6372C74.7977 66.8981 73.675 67.8088 72.3418 67.8088Z" fill="#512944"/>
<path d="M70.1661 62.1346C70.1661 62.4849 69.5346 62.695 68.7627 62.695C67.9909 62.695 67.3594 62.4148 67.3594 62.1346C67.3594 61.7844 67.9909 61.5742 68.7627 61.5742C69.5346 61.5742 70.1661 61.7844 70.1661 62.1346Z" fill="#512944"/>
<path d="M78.1661 62.1346C78.1661 62.4849 77.5346 62.695 76.7627 62.695C75.9909 62.695 75.3594 62.4148 75.3594 62.1346C75.3594 61.7844 75.9909 61.5742 76.7627 61.5742C77.5346 61.5742 78.1661 61.7844 78.1661 62.1346Z" fill="#512944"/>
<path d="M75.1479 71.2412H71.9904C71.008 71.2412 70.166 70.4006 70.166 69.4199H70.7274C70.7274 70.1204 71.2887 70.7509 72.0606 70.7509H75.2181V71.2412H75.1479Z" fill="#512944"/>
<path d="M52.1328 166.86V166.3C52.203 166.3 62.5879 166.09 65.6752 158.314L66.1664 158.524C62.9387 166.65 52.2731 166.86 52.1328 166.86Z" fill="#512944"/>
<path d="M80.4818 304.79L79.9906 304.72C80.973 298.485 75.4999 296.804 75.4297 296.804L75.57 296.313C75.57 296.243 81.5343 298.065 80.4818 304.79Z" fill="#512944"/>
<path d="M88.5375 94.3999L88.1445 94.6941L100.143 110.666L100.536 110.371L88.5375 94.3999Z" fill="#512944"/>
<path d="M51.9236 117.825L90.516 114.112L92.8316 136.388L49.6782 140.451L42.3105 126.791L51.9236 117.825Z" fill="#467B6C"/>
<path d="M51.7828 85.1112C47.0113 84.2706 42.8012 86.162 40.9067 89.5244L39.363 92.2563L27.2239 121.537C25.0487 125.741 23.3647 131.134 27.7853 137.719L48.4147 164.899L61.887 155.512L45.7483 128.893L60.9748 100.803C61.2555 100.312 61.5361 99.8218 61.7466 99.2614L61.8168 99.1914C62.0975 98.4909 62.308 97.7203 62.308 96.8797C62.729 91.4157 58.0277 86.162 51.7828 85.1112Z" fill="white"/>
<path d="M61.6756 155.652L45.4668 128.893L56.2025 109.068L56.6937 109.279L46.0281 128.893L62.1668 155.372L61.6756 155.652Z" fill="#512944"/>
<path d="M37.3274 130.574L36.9766 130.154C40.8358 126.791 45.8177 128.613 45.8177 128.613L45.6072 129.103C45.6072 129.103 40.9761 127.422 37.3274 130.574Z" fill="#512944"/>
<path d="M481.774 304.439H17.8926V305H481.774V304.439Z" fill="#512944"/>
<path d="M480.684 234.17C485.028 216.193 473.951 198.104 455.944 193.768C437.937 189.431 419.818 200.489 415.475 218.466C411.131 236.443 422.207 254.531 440.214 258.868C458.221 263.204 476.34 252.147 480.684 234.17Z" fill="white"/>
<path d="M448.092 260.097C429.428 260.097 414.271 244.966 414.271 226.333C414.271 210.712 425.358 196.842 440.655 193.409L440.795 193.9C425.779 197.262 414.833 210.922 414.833 226.333C414.833 244.686 429.779 259.537 448.092 259.537C466.477 259.537 481.352 244.616 481.352 226.333C481.352 222.83 480.791 219.398 479.738 216.106L480.23 215.965C481.282 219.328 481.843 222.83 481.843 226.333C481.914 244.966 466.757 260.097 448.092 260.097Z" fill="#512944"/>
<path d="M423.604 233.688C423.604 227.664 431.953 226.753 431.953 222.76C431.953 221.079 430.69 219.958 428.866 219.958C427.463 219.958 426.13 220.869 425.428 222.13L423.674 220.939C424.656 219.188 426.551 217.717 429.077 217.717C432.164 217.717 434.409 219.678 434.409 222.62C434.409 228.224 426.27 229.065 426.2 232.918H434.69V235.019H423.744C423.674 234.529 423.604 234.109 423.604 233.688Z" fill="#512944"/>
<path d="M436.584 228.855L444.443 217.717H447.179V228.364H449.495V230.396H447.179V235.019H444.864V230.396H436.584V228.855ZM444.864 228.294V221.99C444.864 221.149 444.934 220.239 444.934 220.239H444.864C444.864 220.239 444.513 221.079 444.022 221.71L439.18 228.294V228.364H444.864V228.294Z" fill="#512944"/>
<path d="M457.144 217.647H459.249L453.144 234.949H451.039L457.144 217.647Z" fill="#512944"/>
<path d="M469.423 221.36C469.914 220.379 470.406 219.748 470.406 219.748V219.678C470.406 219.678 470.055 219.748 469.213 219.748H461.564V217.647H472.932V219.328L465.283 234.949H462.827L469.423 221.36Z" fill="#512944"/>
</g>
<defs>
<clipPath id="clip0_206_4833">
<rect width="501" height="305" fill="white"/>
</clipPath>
</defs>
</svg>
